<?xml version="1.0" encoding="UTF-8" standalone="no"?>
<svg
   height="16.007"
   width="16"
   version="1.1"
   id="svg10"
   sodipodi:docname="drive-removable-media-symbolic.svg"
   inkscape:version="1.1.2 (0a00cf5339, 2022-02-04)"
   xmlns:inkscape="http://www.inkscape.org/namespaces/inkscape"
   xmlns:sodipodi="http://sodipodi.sourceforge.net/DTD/sodipodi-0.dtd"
   xmlns="http://www.w3.org/2000/svg"
   xmlns:svg="http://www.w3.org/2000/svg">
  <defs
     id="defs14" />
  <sodipodi:namedview
     id="namedview12"
     pagecolor="#ffffff"
     bordercolor="#666666"
     borderopacity="1.0"
     inkscape:pageshadow="2"
     inkscape:pageopacity="0.0"
     inkscape:pagecheckerboard="0"
     showgrid="false"
     inkscape:zoom="30.127246"
     inkscape:cx="5.958062"
     inkscape:cy="12.148472"
     inkscape:window-width="1360"
     inkscape:window-height="893"
     inkscape:window-x="757"
     inkscape:window-y="72"
     inkscape:window-maximized="0"
     inkscape:current-layer="g8" />
  <g
     color="#000"
     transform="translate(-1113 -120.993)"
     id="g8">
    <path
       d="m 1115.48,121 c 0,0 -0.34,0.009 -0.69,0.197 -0.461,0.26232 -0.7577,0.74043 -0.788,1.27 l -1,11.992 c -0.01,0.0675 0,0.13558 0.023,0.2 l 0.5,1.5 -0.018,-0.077 c 0.036,0.219 0.123,0.433 0.29,0.611 0.1831,0.19269 0.4362,0.30337 0.702,0.307 h 13 c 0.2661,-0.003 0.5196,-0.11406 0.703,-0.307 0.166,-0.178 0.255,-0.392 0.291,-0.611 l -0.019,0.076 0.5,-1.5 c 0.021,-0.0641 0.029,-0.13179 0.023,-0.199 l -1,-11.992 c -0.043,-0.676 -0.434,-1.137 -0.804,-1.317 -0.372,-0.18 -0.727,-0.148 -0.727,-0.148 L 1126.5,121 h -11 c -0.01,-1.3e-4 -0.013,-1.3e-4 -0.02,0 z m 11.055,0.998 c 0,0 0.11,-0.002 0.223,0.053 0.112,0.054 0.22,0.094 0.244,0.48 0,0.003 0,0.007 0,0.01 l 0.992,11.899 -0.469,1.395 c -0.01,0.0248 -0.014,0.0502 -0.018,0.076 -0.01,0.048 -0.027,0.073 -0.033,0.082 h -12.949 c -0.01,-0.01 -0.023,-0.034 -0.03,-0.082 -0,-0.0258 -0.011,-0.0512 -0.02,-0.076 l -0.467,-1.395 0.99,-11.899 c 0,-0.003 0,-0.005 0,-0.008 0.023,-0.322 0.13,-0.382 0.262,-0.453 0.132,-0.07 0.258,-0.08 0.258,-0.08 h 10.982 c 0.012,-2.6e-4 0.023,-9.2e-4 0.035,-0.002 z"
       fill="#666666"
       fill-rule="evenodd"
       font-family="sans-serif"
       font-weight="400"
       overflow="visible"
       style="line-height:normal;font-variant-ligatures:normal;font-variant-position:normal;font-variant-caps:normal;font-variant-numeric:normal;font-variant-alternates:normal;font-feature-settings:normal;text-indent:0;text-align:start;text-decoration-line:none;text-decoration-style:solid;text-decoration-color:#000000;text-transform:none;text-orientation:mixed;shape-padding:0;isolation:auto;mix-blend-mode:normal"
       white-space="normal"
       id="path2"
       sodipodi:nodetypes="ccccccccccccccccccccccccccccccccccccccc" />
    <path
       d="m 1114,133.993 v 2 h 14 v -2 z"
       fill="#666666"
       fill-rule="evenodd"
       font-family="sans-serif"
       font-weight="400"
       overflow="visible"
       style="line-height:normal;font-variant-ligatures:normal;font-variant-position:normal;font-variant-caps:normal;font-variant-numeric:normal;font-variant-alternates:normal;font-feature-settings:normal;text-indent:0;text-align:start;text-decoration-line:none;text-decoration-style:solid;text-decoration-color:#000000;text-transform:none;text-orientation:mixed;shape-padding:0;isolation:auto;mix-blend-mode:normal"
       white-space="normal"
       id="path4"
       sodipodi:nodetypes="ccccc" />
    <path
       d="m 1121,123.993 -3,3 v 2 h 6 v -2 z m -3,6 v 1 h 6 v -1 z"
       fill="#666666"
       font-family="sans-serif"
       font-weight="400"
       overflow="visible"
       style="line-height:normal;font-variant-ligatures:normal;font-variant-position:normal;font-variant-caps:normal;font-variant-numeric:normal;font-variant-alternates:normal;font-feature-settings:normal;text-indent:0;text-align:start;text-decoration-line:none;text-decoration-style:solid;text-decoration-color:#000000;text-transform:none;text-orientation:mixed;shape-padding:0;isolation:auto;mix-blend-mode:normal"
       white-space="normal"
       id="path6"
       sodipodi:nodetypes="ccccccccccc" />
  </g>
</svg>
