<?xml version="1.0" encoding="UTF-8" standalone="no"?>
<svg
   width="24"
   height="24"
   version="1.1"
   id="svg18901"
   sodipodi:docname="nm-stage01-connecting01-symbolic.svg"
   inkscape:version="1.2.2 (b0a8486541, 2022-12-01)"
   xmlns:inkscape="http://www.inkscape.org/namespaces/inkscape"
   xmlns:sodipodi="http://sodipodi.sourceforge.net/DTD/sodipodi-0.dtd"
   xmlns="http://www.w3.org/2000/svg"
   xmlns:svg="http://www.w3.org/2000/svg">
  <sodipodi:namedview
     id="namedview18903"
     pagecolor="#ffffff"
     bordercolor="#000000"
     borderopacity="0.25"
     inkscape:showpageshadow="2"
     inkscape:pageopacity="0.0"
     inkscape:pagecheckerboard="0"
     inkscape:deskcolor="#d1d1d1"
     showgrid="false"
     inkscape:zoom="25.125"
     inkscape:cx="10.925373"
     inkscape:cy="9.5124378"
     inkscape:window-width="1920"
     inkscape:window-height="1019"
     inkscape:window-x="0"
     inkscape:window-y="0"
     inkscape:window-maximized="1"
     inkscape:current-layer="svg18901" />
  <defs
     id="defs18895">
    <linearGradient
       id="linearGradient3605"
       x1="7"
       x2="19"
       y1="12"
       y2="5"
       gradientTransform="matrix(0,-1,-1,0,24,24)"
       gradientUnits="userSpaceOnUse">
      <stop
         offset="0"
         stop-color="#555761"
         stop-opacity=".5"
         id="stop18885" />
      <stop
         offset="1"
         stop-color="#555761"
         stop-opacity="0"
         id="stop18887" />
    </linearGradient>
    <linearGradient
       id="linearGradient3611"
       x1="7"
       x2="17"
       y1="12"
       y2="12"
       gradientTransform="matrix(0,1,1,0,0,0)"
       gradientUnits="userSpaceOnUse">
      <stop
         offset="0"
         stop-color="#555761"
         id="stop18890" />
      <stop
         offset="1"
         stop-color="#555761"
         stop-opacity=".5"
         id="stop18892" />
    </linearGradient>
  </defs>
  <path
     fill="url(#linearGradient3611)"
     d="m 12,5 c -3.866,0 -7,3.134 -7,7 0,3.866 3.134,7 7,7 V 17 C 9.2386,17 7,14.761 7,12 7,9.2386 9.2386,7 12,7 13.3,7 13.3,5 12,5 Z"
     id="path18897"
     style="fill:url(#linearGradient3611)" />
  <path
     fill="url(#linearGradient3605)"
     d="m 12,5 v 2 c 2.7614,0 5,2.2386 5,5 0,2.7614 -2.2386,5 -5,5 v 2 c 3.866,0 7,-3.134 7,-7 0,-3.866 -3.134,-7 -7,-7 z"
     id="path18899"
     style="opacity:0.5;fill:url(#linearGradient3605)" />
</svg>
