<?xml version="1.0" encoding="UTF-8" standalone="no"?>
<svg
   width="24"
   height="24"
   version="1.1"
   id="svg18"
   sodipodi:docname="nm-stage01-connecting01.svg"
   inkscape:version="1.2.2 (b0a8486541, 2022-12-01)"
   xmlns:inkscape="http://www.inkscape.org/namespaces/inkscape"
   xmlns:sodipodi="http://sodipodi.sourceforge.net/DTD/sodipodi-0.dtd"
   xmlns="http://www.w3.org/2000/svg"
   xmlns:svg="http://www.w3.org/2000/svg">
  <sodipodi:namedview
     id="namedview20"
     pagecolor="#ffffff"
     bordercolor="#000000"
     borderopacity="0.25"
     inkscape:showpageshadow="2"
     inkscape:pageopacity="0.0"
     inkscape:pagecheckerboard="0"
     inkscape:deskcolor="#d1d1d1"
     showgrid="false"
     inkscape:zoom="94.752309"
     inkscape:cx="11.466739"
     inkscape:cy="14.996996"
     inkscape:window-width="1920"
     inkscape:window-height="1019"
     inkscape:window-x="0"
     inkscape:window-y="0"
     inkscape:window-maximized="1"
     inkscape:current-layer="svg18" />
  <defs
     id="defs12">
    <linearGradient
       id="linearGradient3605"
       x1="7"
       x2="19"
       y1="12"
       y2="5"
       gradientTransform="matrix(0,-1,-1,0,24,24)"
       gradientUnits="userSpaceOnUse">
      <stop
         offset="0"
         stop-color="#64baff"
         stop-opacity=".5"
         id="stop2" />
      <stop
         offset="1"
         stop-color="#64baff"
         stop-opacity="0"
         id="stop4" />
    </linearGradient>
    <linearGradient
       id="linearGradient3611"
       x1="7"
       x2="17"
       y1="12"
       y2="12"
       gradientTransform="matrix(0,1,1.0031348,0,-0.01567398,0)"
       gradientUnits="userSpaceOnUse">
      <stop
         offset="0"
         stop-color="#64baff"
         id="stop7" />
      <stop
         offset="1"
         stop-color="#64baff"
         stop-opacity=".5"
         id="stop9" />
    </linearGradient>
  </defs>
  <path
     fill="url(#linearGradient3611)"
     d="M 12.021944,5 C 8.1438245,5 5,8.134 5,12 c 0,3.866 3.1438245,7 7.021944,7 v -2 c -2.7700568,0 -5.0156744,-2.239 -5.0156744,-5 0,-2.7614 2.2456176,-5 5.0156744,-5 1.304075,0 1.304075,-2 0,-2 z"
     id="path14"
     style="fill:url(#linearGradient3611);stroke-width:1" />
  <path
     fill="url(#linearGradient3605)"
     d="m12 5v2c2.7614 0 5 2.2386 5 5s-2.2386 5-5 5v2c3.866 0 7-3.134 7-7s-3.134-7-7-7z"
     id="path16" />
</svg>
