<?xml version="1.0" encoding="UTF-8" standalone="no"?>
<svg
   width="24"
   height="24"
   version="1.1"
   id="svg19345"
   sodipodi:docname="nm-stage01-connecting04-symbolic.svg"
   inkscape:version="1.2.2 (b0a8486541, 2022-12-01)"
   xmlns:inkscape="http://www.inkscape.org/namespaces/inkscape"
   xmlns:sodipodi="http://sodipodi.sourceforge.net/DTD/sodipodi-0.dtd"
   xmlns="http://www.w3.org/2000/svg"
   xmlns:svg="http://www.w3.org/2000/svg">
  <sodipodi:namedview
     id="namedview19347"
     pagecolor="#ffffff"
     bordercolor="#000000"
     borderopacity="0.25"
     inkscape:showpageshadow="2"
     inkscape:pageopacity="0.0"
     inkscape:pagecheckerboard="0"
     inkscape:deskcolor="#d1d1d1"
     showgrid="false"
     inkscape:zoom="50.25"
     inkscape:cx="5.6218905"
     inkscape:cy="7.9402985"
     inkscape:window-width="1920"
     inkscape:window-height="1019"
     inkscape:window-x="0"
     inkscape:window-y="0"
     inkscape:window-maximized="1"
     inkscape:current-layer="svg19345" />
  <defs
     id="defs19339">
    <linearGradient
       id="linearGradient3605"
       x1="7"
       x2="19"
       y1="12"
       y2="5"
       gradientTransform="matrix(0.98481,0.17363,0.17363,-0.98481,-1.9013047,21.734179)"
       gradientUnits="userSpaceOnUse">
      <stop
         offset="0"
         stop-color="#555761"
         stop-opacity=".5"
         id="stop19329" />
      <stop
         offset="1"
         stop-color="#555761"
         stop-opacity="0"
         id="stop19331" />
    </linearGradient>
    <linearGradient
       id="linearGradient3611"
       x1="7"
       x2="17"
       y1="12"
       y2="12"
       gradientTransform="matrix(-0.98481,-0.17363,-0.17363,0.98481,25.900995,2.2657793)"
       gradientUnits="userSpaceOnUse">
      <stop
         offset="0"
         stop-color="#555761"
         id="stop19334" />
      <stop
         offset="1"
         stop-color="#555761"
         stop-opacity=".5"
         id="stop19336" />
    </linearGradient>
  </defs>
  <path
     fill="url(#linearGradient3611)"
     d="m 18.893995,13.215179 c 0.671,-3.8068997 -1.871,-7.4373997 -5.679,-8.1086997 -3.8068997,-0.6712 -7.4373997,1.871 -8.1086997,5.6786997 l 1.9696,0.34726 c 0.4795,-2.7195997 3.0730997,-4.5354997 5.7920997,-4.0560997 2.7195,0.47946 4.5354,3.0727997 4.0559,5.7921997 -0.22572,1.2803 1.7439,1.6275 1.9696,0.34726 z"
     id="path19341"
     style="fill:url(#linearGradient3611)" />
  <path
     fill="url(#linearGradient3605)"
     d="m 18.893995,13.215179 -1.9696,-0.34726 c -0.47946,2.7195 -3.0728,4.5354 -5.7922,4.0559 -2.7195997,-0.479 -4.5354997,-3.073 -4.0560997,-5.792 l -1.9696,-0.347 c -0.67126,3.8073 1.871,7.4378 5.6782997,8.1091 3.8073,0.67126 7.4378,-1.871 8.1091,-5.6783 z"
     id="path19343"
     style="opacity:0.5;fill:url(#linearGradient3605)" />
</svg>
