<?xml version="1.0" encoding="UTF-8" standalone="no"?>
<svg
   width="24"
   height="24"
   version="1.1"
   id="svg20233"
   sodipodi:docname="nm-stage01-connecting10-symbolic.svg"
   inkscape:version="1.2.2 (b0a8486541, 2022-12-01)"
   xmlns:inkscape="http://www.inkscape.org/namespaces/inkscape"
   xmlns:sodipodi="http://sodipodi.sourceforge.net/DTD/sodipodi-0.dtd"
   xmlns="http://www.w3.org/2000/svg"
   xmlns:svg="http://www.w3.org/2000/svg">
  <sodipodi:namedview
     id="namedview20235"
     pagecolor="#ffffff"
     bordercolor="#000000"
     borderopacity="0.25"
     inkscape:showpageshadow="2"
     inkscape:pageopacity="0.0"
     inkscape:pagecheckerboard="0"
     inkscape:deskcolor="#d1d1d1"
     showgrid="false"
     inkscape:zoom="50.25"
     inkscape:cx="5.2039801"
     inkscape:cy="7.9402985"
     inkscape:window-width="1920"
     inkscape:window-height="1019"
     inkscape:window-x="0"
     inkscape:window-y="0"
     inkscape:window-maximized="1"
     inkscape:current-layer="svg20233" />
  <defs
     id="defs20227">
    <linearGradient
       id="linearGradient3605"
       x1="7"
       x2="19"
       y1="12"
       y2="5"
       gradientTransform="matrix(-0.86605,-0.49995,-0.49995,0.86605,28.392004,7.6063623)"
       gradientUnits="userSpaceOnUse">
      <stop
         offset="0"
         stop-color="#555761"
         stop-opacity=".5"
         id="stop20217" />
      <stop
         offset="1"
         stop-color="#555761"
         stop-opacity="0"
         id="stop20219" />
    </linearGradient>
    <linearGradient
       id="linearGradient3611"
       x1="7"
       x2="17"
       y1="12"
       y2="12"
       gradientTransform="matrix(0.86605,0.49995,0.49995,-0.86605,-4.3918958,16.392662)"
       gradientUnits="userSpaceOnUse">
      <stop
         offset="0"
         stop-color="#555761"
         id="stop20222" />
      <stop
         offset="1"
         stop-color="#555761"
         stop-opacity=".5"
         id="stop20224" />
    </linearGradient>
  </defs>
  <path
     fill="url(#linearGradient3611)"
     d="m 5.9378042,8.4998623 c -1.9328001,3.3477997 -0.7855,7.6287997 2.5627,9.5617997 3.3484998,1.933 7.6294998,0.786 9.5614998,-2.562 l -1.733,-1 c -1.38,2.391 -4.438,3.211 -6.8297998,1.83 -2.3915,-1.38 -3.211,-4.438 -1.8305,-6.8297997 0.65,-1.1258 -1.0821,-2.1257 -1.7321,-0.9999 z"
     id="path20229"
     style="fill:url(#linearGradient3611)" />
  <path
     fill="url(#linearGradient3605)"
     d="m 5.9378042,8.4998623 1.7321,0.99991 c 1.3806,-2.3915 4.4384998,-3.2111 6.8299998,-1.8305 2.3915,1.3806 3.2111,4.4384997 1.8305,6.8299997 l 1.7321,0.99991 c 1.933,-3.348 0.786,-7.6294997 -2.562,-9.5623997 -3.348,-1.9327999 -7.6294998,-0.7854 -9.5623998,2.5627 z"
     id="path20231"
     style="opacity:0.5;fill:url(#linearGradient3605)" />
</svg>
