<?xml version="1.0" encoding="UTF-8" standalone="no"?>
<svg
   width="24"
   height="24"
   version="1.1"
   id="svg19789"
   sodipodi:docname="nm-stage01-connecting07-symbolic.svg"
   inkscape:version="1.2.2 (b0a8486541, 2022-12-01)"
   xmlns:inkscape="http://www.inkscape.org/namespaces/inkscape"
   xmlns:sodipodi="http://sodipodi.sourceforge.net/DTD/sodipodi-0.dtd"
   xmlns="http://www.w3.org/2000/svg"
   xmlns:svg="http://www.w3.org/2000/svg">
  <sodipodi:namedview
     id="namedview19791"
     pagecolor="#ffffff"
     bordercolor="#000000"
     borderopacity="0.25"
     inkscape:showpageshadow="2"
     inkscape:pageopacity="0.0"
     inkscape:pagecheckerboard="0"
     inkscape:deskcolor="#d1d1d1"
     showgrid="false"
     inkscape:zoom="50.25"
     inkscape:cx="5.6218905"
     inkscape:cy="7.9402985"
     inkscape:window-width="1920"
     inkscape:window-height="1019"
     inkscape:window-x="0"
     inkscape:window-y="0"
     inkscape:window-maximized="1"
     inkscape:current-layer="svg19789" />
  <defs
     id="defs19783">
    <linearGradient
       id="linearGradient3605"
       x1="7"
       x2="19"
       y1="12"
       y2="5"
       gradientTransform="matrix(-0.34199,0.9397,0.9397,0.34199,4.8272661,-3.3803917)"
       gradientUnits="userSpaceOnUse">
      <stop
         offset="0"
         stop-color="#555761"
         stop-opacity=".5"
         id="stop19773" />
      <stop
         offset="1"
         stop-color="#555761"
         stop-opacity="0"
         id="stop19775" />
    </linearGradient>
    <linearGradient
       id="linearGradient3611"
       x1="7"
       x2="17"
       y1="12"
       y2="12"
       gradientTransform="matrix(0.34199,-0.9397,-0.9397,-0.34199,19.172966,27.379908)"
       gradientUnits="userSpaceOnUse">
      <stop
         offset="0"
         stop-color="#555761"
         id="stop19778" />
      <stop
         offset="1"
         stop-color="#555761"
         stop-opacity=".5"
         id="stop19780" />
    </linearGradient>
  </defs>
  <path
     fill="url(#linearGradient3611)"
     d="m 9.6059661,18.577908 c 3.6328999,1.3221 7.6496999,-0.55112 8.9717999,-4.184 1.3221,-3.63288 -0.55112,-7.6496997 -4.184,-8.9717997 l -0.68398,1.8794 c 2.5949,0.94436 3.933,3.8135997 2.9886,6.4084997 -0.94436,2.5949 -3.8136,3.933 -6.4085,2.9886 -1.2215999,-0.44458 -1.9055999,1.4348 -0.6839699,1.8794 z"
     id="path19785"
     style="fill:url(#linearGradient3611)" />
  <path
     fill="url(#linearGradient3605)"
     d="m 9.6059661,18.577908 0.6838999,-1.879 c -2.5947999,-0.945 -3.9328999,-3.814 -2.9884999,-6.409 0.9443,-2.5947997 3.8134999,-3.9328997 6.4084999,-2.9884997 l 0.684,-1.8794 c -3.633,-1.3222 -7.6497999,0.5511 -8.9718999,4.184 -1.3221,3.6328997 0.55112,7.6496997 4.184,8.9717997 z"
     id="path19787"
     style="opacity:0.5;fill:url(#linearGradient3605)" />
</svg>
