<?xml version="1.0" encoding="UTF-8" standalone="no"?>
<svg
   width="24"
   height="24"
   version="1.1"
   id="svg58072"
   sodipodi:docname="nm-vpn-connecting08.svg"
   inkscape:version="1.2.2 (b0a8486541, 2022-12-01)"
   xmlns:inkscape="http://www.inkscape.org/namespaces/inkscape"
   xmlns:sodipodi="http://sodipodi.sourceforge.net/DTD/sodipodi-0.dtd"
   xmlns="http://www.w3.org/2000/svg"
   xmlns:svg="http://www.w3.org/2000/svg">
  <sodipodi:namedview
     id="namedview58074"
     pagecolor="#ffffff"
     bordercolor="#000000"
     borderopacity="0.25"
     inkscape:showpageshadow="2"
     inkscape:pageopacity="0.0"
     inkscape:pagecheckerboard="0"
     inkscape:deskcolor="#d1d1d1"
     showgrid="false"
     inkscape:zoom="36.545455"
     inkscape:cx="4.3507462"
     inkscape:cy="11"
     inkscape:window-width="1920"
     inkscape:window-height="1019"
     inkscape:window-x="0"
     inkscape:window-y="0"
     inkscape:window-maximized="1"
     inkscape:current-layer="svg58072" />
  <defs
     id="defs58064">
    <linearGradient
       id="linearGradient3605"
       x1="7"
       x2="19"
       y1="12"
       y2="5"
       gradientTransform="matrix(0.0017459,1,1,-0.0017459,-0.02108926,0.02096102)"
       gradientUnits="userSpaceOnUse">
      <stop
         offset="0"
         stop-color="#444444"
         stop-opacity=".5"
         id="stop58054"
         style="stop-color:#64baff;stop-opacity:0.5;" />
      <stop
         offset="1"
         stop-color="#444444"
         stop-opacity="0"
         id="stop58056"
         style="stop-color:#64baff;stop-opacity:0;" />
    </linearGradient>
    <linearGradient
       id="linearGradient3611"
       x1="7"
       x2="17"
       y1="12"
       y2="12"
       gradientTransform="matrix(-0.0017459,-1,-1,0.0017459,24.021011,23.979011)"
       gradientUnits="userSpaceOnUse">
      <stop
         offset="0"
         stop-color="#444444"
         id="stop58059"
         style="stop-color:#64baff;stop-opacity:1" />
      <stop
         offset="1"
         stop-color="#444444"
         stop-opacity=".5"
         id="stop58061"
         style="stop-color:#64baff;stop-opacity:0.5;" />
    </linearGradient>
  </defs>
  <path
     style="fill:url(#linearGradient3611)"
     d="m 11.988011,5.0000111 0.004,2 c 2.762,-0.0048 5.003,2.2294 5.008,4.9899999 v 0.01 c 0.754,0 1.431,0.296 1.955,0.764 0.028,-0.255 0.046,-0.513 0.045,-0.776 -0.007,-3.8656999 -3.146,-6.9948 -7.012,-6.9879999 z m 1.012,11.8729999 c -0.321,0.073 -0.649,0.126 -0.992,0.127 -1.3004,0.002 -1.2966,2.002 0.004,2 0.336,-0.001 0.664,-0.035 0.988,-0.082 z"
     id="path58066" />
  <path
     style="fill:url(#linearGradient3605)"
     d="m 11.988011,5.0000111 c -3.8654003,0.0068 -6.9947002,3.1454 -6.9880003,7.0119999 0.0068,3.866 3.1454,6.995 7.0120003,6.988 l -0.004,-2 c -2.7610003,0.005 -5.0031003,-2.229 -5.0080003,-4.99 -0.0048,-2.7620999 2.2313,-5.0051999 4.9920003,-5.0099999 z"
     id="path58068" />
  <path
     fill="#444444"
     d="m 17.000011,13.000011 c -1.108,0 -2,0.91085 -2,2.0312 v 0.96875 h -1 v 4 h 6 v -4 h -1 v -0.96875 c 0,-1.12 -0.892,-2.031 -2,-2.031 z m 0,1 c 0.554,0 1,0.4424 1,1 v 1 h -2 v -1 c 0,-0.5576 0.446,-1 1,-1 z"
     id="path58070"
     style="fill:#f9c440" />
</svg>
