<?xml version="1.0" encoding="UTF-8" standalone="no"?>
<svg
   width="24"
   height="24"
   version="1.1"
   id="svg56742"
   sodipodi:docname="nm-vpn-connecting04.svg"
   inkscape:version="1.2.2 (b0a8486541, 2022-12-01)"
   xmlns:inkscape="http://www.inkscape.org/namespaces/inkscape"
   xmlns:sodipodi="http://sodipodi.sourceforge.net/DTD/sodipodi-0.dtd"
   xmlns="http://www.w3.org/2000/svg"
   xmlns:svg="http://www.w3.org/2000/svg">
  <sodipodi:namedview
     id="namedview56744"
     pagecolor="#ffffff"
     bordercolor="#000000"
     borderopacity="0.25"
     inkscape:showpageshadow="2"
     inkscape:pageopacity="0.0"
     inkscape:pagecheckerboard="0"
     inkscape:deskcolor="#d1d1d1"
     showgrid="false"
     inkscape:zoom="36.545455"
     inkscape:cx="4.3507462"
     inkscape:cy="11"
     inkscape:window-width="1920"
     inkscape:window-height="1019"
     inkscape:window-x="0"
     inkscape:window-y="0"
     inkscape:window-maximized="1"
     inkscape:current-layer="svg56742" />
  <defs
     id="defs56734">
    <linearGradient
       id="linearGradient3605"
       x1="7"
       x2="19"
       y1="12"
       y2="5"
       gradientTransform="matrix(0.97476,-0.22325,-0.22325,-0.97476,2.9817523,26.375891)"
       gradientUnits="userSpaceOnUse">
      <stop
         offset="0"
         stop-color="#444444"
         stop-opacity=".5"
         id="stop56724"
         style="stop-color:#64baff;stop-opacity:0.5;" />
      <stop
         offset="1"
         stop-color="#444444"
         stop-opacity="0"
         id="stop56726"
         style="stop-color:#64baff;stop-opacity:0;" />
    </linearGradient>
    <linearGradient
       id="linearGradient3611"
       x1="7"
       x2="17"
       y1="12"
       y2="12"
       gradientTransform="matrix(-0.97476,0.22325,0.22325,0.97476,21.018352,-2.3761095)"
       gradientUnits="userSpaceOnUse">
      <stop
         offset="0"
         stop-color="#444444"
         id="stop56729"
         style="stop-color:#64baff;stop-opacity:1" />
      <stop
         offset="1"
         stop-color="#444444"
         stop-opacity=".5"
         id="stop56731"
         style="stop-color:#64baff;stop-opacity:0.5;" />
    </linearGradient>
  </defs>
  <path
     style="fill:url(#linearGradient3611)"
     d="m 11.844352,4.9998905 c -0.465,0.0108 -0.9354,0.0679 -1.4065,0.1758 -3.7682997,0.8631 -6.1247996,4.6185 -5.2616997,8.3862005 l 1.9512,-0.445 c -0.6165,-2.6913 1.0644,-5.3737005 3.7557997,-5.9900005 2.6922,-0.6165 5.3742,1.066 5.9902,3.7578005 0.29,1.2672 2.239,0.8202 1.949,-0.4473 -0.755,-3.2972005 -3.723,-5.5134005 -6.978,-5.4375005 z"
     id="path56736" />
  <path
     style="fill:url(#linearGradient3605)"
     d="m 18.822352,10.437391 -1.949,0.4453 c 0.086,0.3772 0.104,0.7502 0.098,1.1212 0.01,0 0.019,-0.004 0.029,-0.004 0.752,0 1.428,0.294 1.951,0.76 0.085,-0.756 0.051,-1.538 -0.129,-2.3225 z m -11.6969997,2.6775 -1.9492,0.447 c 0.82,3.581 4.2518,5.876 7.8241997,5.356 v -2.023 c -2.6523,0.543 -5.2673997,-1.126 -5.8749997,-3.78 z"
     id="path56738" />
  <path
     fill="#444444"
     d="m 17.000352,12.999891 c -1.108,0 -2,0.91085 -2,2.0312 v 0.96875 h -1 v 4 h 6 v -4 h -1 v -0.96875 c 0,-1.12 -0.892,-2.031 -2,-2.031 z m 0,1 c 0.554,0 1,0.4424 1,1 v 1 h -2 v -1 c 0,-0.5576 0.446,-1 1,-1 z"
     id="path56740"
     style="fill:#f9c440" />
</svg>
