<?xml version="1.0" encoding="UTF-8" standalone="no"?>
<svg
   width="24"
   height="24"
   version="1.1"
   id="svg8560"
   sodipodi:docname="nm-vpn-connecting08.svg"
   inkscape:version="1.2.2 (b0a8486541, 2022-12-01)"
   xmlns:inkscape="http://www.inkscape.org/namespaces/inkscape"
   xmlns:sodipodi="http://sodipodi.sourceforge.net/DTD/sodipodi-0.dtd"
   xmlns="http://www.w3.org/2000/svg"
   xmlns:svg="http://www.w3.org/2000/svg">
  <sodipodi:namedview
     id="namedview8562"
     pagecolor="#ffffff"
     bordercolor="#000000"
     borderopacity="0.25"
     inkscape:showpageshadow="2"
     inkscape:pageopacity="0.0"
     inkscape:pagecheckerboard="0"
     inkscape:deskcolor="#d1d1d1"
     showgrid="false"
     inkscape:zoom="33.5"
     inkscape:cx="10.641791"
     inkscape:cy="12"
     inkscape:window-width="1920"
     inkscape:window-height="1019"
     inkscape:window-x="0"
     inkscape:window-y="0"
     inkscape:window-maximized="1"
     inkscape:current-layer="svg8560" />
  <defs
     id="defs8552">
    <linearGradient
       id="linearGradient3605"
       x1="7"
       x2="19"
       y1="12"
       y2="5"
       gradientTransform="matrix(.0017459 1 1 -.0017459 -.020902 .020902)"
       gradientUnits="userSpaceOnUse">
      <stop
         offset="0"
         stop-color="#555761"
         stop-opacity=".5"
         id="stop8542" />
      <stop
         offset="1"
         stop-color="#555761"
         stop-opacity="0"
         id="stop8544" />
    </linearGradient>
    <linearGradient
       id="linearGradient3611"
       x1="7"
       x2="17"
       y1="12"
       y2="12"
       gradientTransform="matrix(-.0017459 -1 -1 .0017459 24.021 23.979)"
       gradientUnits="userSpaceOnUse">
      <stop
         offset="0"
         stop-color="#555761"
         id="stop8547" />
      <stop
         offset="1"
         stop-color="#555761"
         stop-opacity=".5"
         id="stop8549" />
    </linearGradient>
  </defs>
  <path
     style="fill:url(#linearGradient3611)"
     d="m11.988 5l0.004 2c2.762-0.0048 5.003 2.2294 5.008 4.99v0.01c0.754 0 1.431 0.296 1.955 0.764 0.028-0.255 0.046-0.513 0.045-0.776-0.007-3.8657-3.146-6.9948-7.012-6.988zm1.012 11.873c-0.321 0.073-0.649 0.126-0.992 0.127-1.3 0.002-1.296 2.002 0.004 2 0.336-0.001 0.664-0.035 0.988-0.082v-2.045z"
     id="path8554" />
  <path
     style="fill:url(#linearGradient3605);opacity:0.5"
     d="m11.988 5c-3.8654 0.0068-6.9947 3.1454-6.988 7.012 0.0068 3.866 3.1454 6.995 7.012 6.988l-0.004-2c-2.761 0.005-5.0031-2.229-5.008-4.99-0.0048-2.7621 2.2313-5.0052 4.992-5.01l-0.004-2z"
     id="path8556" />
  <path
     fill="#555761"
     d="m17 13c-1.108 0-2 0.91085-2 2.0312v0.96875h-1v4h6v-4h-1v-0.96875c0-1.12-0.892-2.031-2-2.031zm0 1c0.554 0 1 0.4424 1 1v1h-2v-1c0-0.5576 0.446-1 1-1z"
     id="path8558" />
</svg>
