<?xml version="1.0" encoding="UTF-8" standalone="no"?>
<svg
   width="24"
   height="24"
   version="1.1"
   id="svg59190"
   sodipodi:docname="nm-vpn-connecting13.svg"
   inkscape:version="1.2.2 (b0a8486541, 2022-12-01)"
   xmlns:inkscape="http://www.inkscape.org/namespaces/inkscape"
   xmlns:sodipodi="http://sodipodi.sourceforge.net/DTD/sodipodi-0.dtd"
   xmlns="http://www.w3.org/2000/svg"
   xmlns:svg="http://www.w3.org/2000/svg">
  <sodipodi:namedview
     id="namedview59192"
     pagecolor="#ffffff"
     bordercolor="#000000"
     borderopacity="0.25"
     inkscape:showpageshadow="2"
     inkscape:pageopacity="0.0"
     inkscape:pagecheckerboard="0"
     inkscape:deskcolor="#d1d1d1"
     showgrid="false"
     inkscape:zoom="25.841539"
     inkscape:cx="6.0754895"
     inkscape:cy="9.5195568"
     inkscape:window-width="1920"
     inkscape:window-height="1019"
     inkscape:window-x="0"
     inkscape:window-y="0"
     inkscape:window-maximized="1"
     inkscape:current-layer="svg59190" />
  <defs
     id="defs59182">
    <linearGradient
       id="linearGradient3605"
       x1="7"
       x2="19"
       y1="12"
       y2="5"
       gradientTransform="matrix(-0.78369,-0.62115,-0.62115,0.78369,28.858456,10.050372)"
       gradientUnits="userSpaceOnUse">
      <stop
         offset="0"
         stop-color="#444444"
         stop-opacity=".5"
         id="stop59172"
         style="stop-color:#64baff;stop-opacity:0.5;" />
      <stop
         offset="1"
         stop-color="#444444"
         stop-opacity="0"
         id="stop59174"
         style="stop-color:#64baff;stop-opacity:0;" />
    </linearGradient>
    <linearGradient
       id="linearGradient3611"
       x1="7"
       x2="17"
       y1="12"
       y2="12"
       gradientTransform="matrix(0.78369,0.62115,0.62115,-0.78369,-4.8572442,13.951372)"
       gradientUnits="userSpaceOnUse">
      <stop
         offset="0"
         stop-color="#444444"
         id="stop59177"
         style="stop-color:#64baff;stop-opacity:1" />
      <stop
         offset="1"
         stop-color="#444444"
         stop-opacity=".5"
         id="stop59179"
         style="stop-color:#64baff;stop-opacity:0.5;" />
    </linearGradient>
  </defs>
  <path
     style="fill:url(#linearGradient3611)"
     d="m 7.2133558,7.273772 c -0.2479,0.0109 -0.4974,0.1242 -0.6992,0.3789 -2.4014,3.0297 -1.8912,7.4327 1.1386,9.8337 1.571,1.246 3.5087002,1.7 5.3477002,1.434 v -2.025 c -1.395,0.284 -2.9023,-0.021 -4.1055002,-0.975 -2.1644,-1.716 -2.5277,-4.861 -0.8125,-7.0255 0.6057,-0.7641 -0.1255,-1.6537 -0.8691,-1.6211 z"
     id="path59184" />
  <path
     style="fill:url(#linearGradient3605)"
     d="m 11.867456,5.002372 c -2.0163002,0.0398 -4.0025002,0.9461 -5.3533002,2.6503 l 1.5683,1.2422 c 1.7152,-2.1641 4.8590002,-2.5277 7.0230002,-0.8125 1.246,0.9869 1.88,2.4459 1.879,3.92 0.006,0 0.011,-0.002 0.016,-0.002 0.747,0 1.417,0.292 1.939,0.752 0.249,-2.3079 -0.638,-4.6875 -2.591,-6.2364 -1.326,-1.0506 -2.912,-1.5445999 -4.481,-1.5136 z"
     id="path59186" />
  <path
     fill="#444444"
     d="m 17.000456,13.000372 c -1.108,0 -2,0.91085 -2,2.0312 v 0.96875 h -1 v 4 h 6 v -4 h -1 v -0.96875 c 0,-1.12 -0.892,-2.031 -2,-2.031 z m 0,1 c 0.554,0 1,0.4424 1,1 v 1 h -2 v -1 c 0,-0.5576 0.446,-1 1,-1 z"
     id="path59188"
     style="fill:#f9c440" />
</svg>
