<?xml version="1.0" encoding="UTF-8" standalone="no"?>
<svg
   width="24"
   height="24"
   version="1.1"
   id="svg58888"
   sodipodi:docname="nm-vpn-connecting11.svg"
   inkscape:version="1.2.2 (b0a8486541, 2022-12-01)"
   xmlns:inkscape="http://www.inkscape.org/namespaces/inkscape"
   xmlns:sodipodi="http://sodipodi.sourceforge.net/DTD/sodipodi-0.dtd"
   xmlns="http://www.w3.org/2000/svg"
   xmlns:svg="http://www.w3.org/2000/svg">
  <sodipodi:namedview
     id="namedview58890"
     pagecolor="#ffffff"
     bordercolor="#000000"
     borderopacity="0.25"
     inkscape:showpageshadow="2"
     inkscape:pageopacity="0.0"
     inkscape:pagecheckerboard="0"
     inkscape:deskcolor="#d1d1d1"
     showgrid="false"
     inkscape:zoom="25.841539"
     inkscape:cx="6.8881346"
     inkscape:cy="11.880097"
     inkscape:window-width="1920"
     inkscape:window-height="1019"
     inkscape:window-x="0"
     inkscape:window-y="0"
     inkscape:window-maximized="1"
     inkscape:current-layer="svg58888" />
  <defs
     id="defs58880">
    <linearGradient
       id="linearGradient3605"
       x1="7"
       x2="19"
       y1="12"
       y2="5"
       gradientTransform="matrix(-0.97437,0.22495,0.22495,0.97437,20.99328,-2.3914148)"
       gradientUnits="userSpaceOnUse">
      <stop
         offset="0"
         stop-color="#444444"
         stop-opacity=".5"
         id="stop58870"
         style="stop-color:#64baff;stop-opacity:0.5;" />
      <stop
         offset="1"
         stop-color="#444444"
         stop-opacity="0"
         id="stop58872"
         style="stop-color:#64baff;stop-opacity:0;" />
    </linearGradient>
    <linearGradient
       id="linearGradient3611"
       x1="7"
       x2="17"
       y1="12"
       y2="12"
       gradientTransform="matrix(0.97437,-0.22495,-0.22495,-0.97437,3.0078801,26.392185)"
       gradientUnits="userSpaceOnUse">
      <stop
         offset="0"
         stop-color="#444444"
         id="stop58875"
         style="stop-color:#64baff;stop-opacity:1" />
      <stop
         offset="1"
         stop-color="#444444"
         stop-opacity=".5"
         id="stop58877"
         style="stop-color:#64baff;stop-opacity:0.5;" />
    </linearGradient>
  </defs>
  <path
     style="fill:url(#linearGradient3611)"
     d="m 18.82028,10.425985 -1.947,0.4492 c 0.088,0.38 0.105,0.756 0.098,1.129 0.01,0 0.019,-0.004 0.029,-0.004 0.752,0 1.428,0.295 1.951,0.762 0.085,-0.761 0.052,-1.547 -0.131,-2.3362 z m -12.5129999,1.9512 c -0.6166,-0.066 -1.3097,0.406 -1.1269,1.197 0.8252,3.575 4.2538,5.862 7.8202999,5.344 v -2.023 c -2.6483,0.541 -5.2594999,-1.121 -5.8710999,-3.77 -0.1097,-0.475 -0.4523,-0.708 -0.8223,-0.748 z"
     id="path58882" />
  <path
     style="fill:url(#linearGradient3605)"
     d="m 11.83228,5.0001852 c -0.465,0.0117 -0.9353,0.071 -1.4062,0.1797 -3.7671999,0.8696 -6.1157999,4.6276 -5.2460999,8.3942998 l 1.9492,-0.449 c -0.6212,-2.6906 1.0555,-5.3748998 3.7460999,-5.9960998 2.691,-0.6212 5.377,1.0555 5.998,3.7460998 l 1.947,-0.4492 c -0.761,-3.2964998 -3.733,-5.5073998 -6.988,-5.4257998 z"
     id="path58884" />
  <path
     fill="#444444"
     d="m 17.00028,13.000185 c -1.108,0 -2,0.91085 -2,2.0312 v 0.96875 h -1 v 4 h 6 v -4 h -1 v -0.96875 c 0,-1.12 -0.892,-2.031 -2,-2.031 z m 0,1 c 0.554,0 1,0.4424 1,1 v 1 h -2 v -1 c 0,-0.5576 0.446,-1 1,-1 z"
     id="path58886"
     style="fill:#f9c440" />
</svg>
