<?xml version="1.0" encoding="UTF-8" standalone="no"?>
<svg
   width="24"
   height="24"
   version="1.1"
   id="svg57770"
   sodipodi:docname="nm-vpn-connecting06.svg"
   inkscape:version="1.2.2 (b0a8486541, 2022-12-01)"
   xmlns:inkscape="http://www.inkscape.org/namespaces/inkscape"
   xmlns:sodipodi="http://sodipodi.sourceforge.net/DTD/sodipodi-0.dtd"
   xmlns="http://www.w3.org/2000/svg"
   xmlns:svg="http://www.w3.org/2000/svg">
  <sodipodi:namedview
     id="namedview57772"
     pagecolor="#ffffff"
     bordercolor="#000000"
     borderopacity="0.25"
     inkscape:showpageshadow="2"
     inkscape:pageopacity="0.0"
     inkscape:pagecheckerboard="0"
     inkscape:deskcolor="#d1d1d1"
     showgrid="false"
     inkscape:zoom="36.545455"
     inkscape:cx="4.3507462"
     inkscape:cy="11"
     inkscape:window-width="1920"
     inkscape:window-height="1019"
     inkscape:window-x="0"
     inkscape:window-y="0"
     inkscape:window-maximized="1"
     inkscape:current-layer="svg57770" />
  <defs
     id="defs57762">
    <linearGradient
       id="linearGradient3605"
       x1="7"
       x2="19"
       y1="12"
       y2="5"
       gradientTransform="matrix(0.78261,0.62251,0.62251,-0.78261,-4.8606628,13.921147)"
       gradientUnits="userSpaceOnUse">
      <stop
         offset="0"
         stop-color="#444444"
         stop-opacity=".5"
         id="stop57752"
         style="stop-color:#64baff;stop-opacity:0.5;" />
      <stop
         offset="1"
         stop-color="#444444"
         stop-opacity="0"
         id="stop57754"
         style="stop-color:#64baff;stop-opacity:0;" />
    </linearGradient>
    <linearGradient
       id="linearGradient3611"
       x1="7"
       x2="17"
       y1="12"
       y2="12"
       gradientTransform="matrix(-0.78261,-0.62251,-0.62251,0.78261,28.862337,10.079147)"
       gradientUnits="userSpaceOnUse">
      <stop
         offset="0"
         stop-color="#444444"
         id="stop57757"
         style="stop-color:#64baff;stop-opacity:1" />
      <stop
         offset="1"
         stop-color="#444444"
         stop-opacity=".5"
         id="stop57759"
         style="stop-color:#64baff;stop-opacity:0.5;" />
    </linearGradient>
  </defs>
  <path
     style="fill:url(#linearGradient3611)"
     d="m 11.879337,5.0021474 c -2.0169998,0.0363 -4.0037998,0.9387 -5.3574998,2.6406 l 1.5664,1.2441 c 1.719,-2.1611 4.8640998,-2.5176 7.0250998,-0.7988 1.242,0.987 1.874,2.4431996 1.873,3.9140996 0.005,0 0.009,-0.002 0.014,-0.002 0.747,0 1.419,0.291 1.941,0.752 0.249,-2.3045 -0.635,-4.6807996 -2.584,-6.2304996 -1.323,-1.0529 -2.909,-1.5478 -4.478,-1.5195 z"
     id="path57764" />
  <path
     style="fill:url(#linearGradient3605)"
     d="m 6.5218372,7.6427474 c -2.4066,3.0255996 -1.9045,7.4293996 1.1211,9.8363996 1.5723,1.25 3.5143998,1.706 5.3573998,1.439 v -2.022 c -1.398,0.285 -2.9073,-0.024 -4.1112998,-0.982 -2.1615,-1.72 -2.5198,-4.866 -0.8008,-7.0272996 z"
     id="path57766" />
  <path
     fill="#444444"
     d="m 17.000337,13.000147 c -1.108,0 -2,0.91085 -2,2.0312 v 0.96875 h -1 v 4 h 6 v -4 h -1 v -0.96875 c 0,-1.12 -0.892,-2.031 -2,-2.031 z m 0,1 c 0.554,0 1,0.4424 1,1 v 1 h -2 v -1 c 0,-0.5576 0.446,-1 1,-1 z"
     id="path57768"
     style="fill:#f9c440" />
</svg>
