<?xml version="1.0" encoding="UTF-8" standalone="no"?>
<svg
   width="24"
   height="24"
   version="1.1"
   id="svg57256"
   sodipodi:docname="nm-vpn-connecting05.svg"
   inkscape:version="1.2.2 (b0a8486541, 2022-12-01)"
   xmlns:inkscape="http://www.inkscape.org/namespaces/inkscape"
   xmlns:sodipodi="http://sodipodi.sourceforge.net/DTD/sodipodi-0.dtd"
   xmlns="http://www.w3.org/2000/svg"
   xmlns:svg="http://www.w3.org/2000/svg">
  <sodipodi:namedview
     id="namedview57258"
     pagecolor="#ffffff"
     bordercolor="#000000"
     borderopacity="0.25"
     inkscape:showpageshadow="2"
     inkscape:pageopacity="0.0"
     inkscape:pagecheckerboard="0"
     inkscape:deskcolor="#d1d1d1"
     showgrid="false"
     inkscape:zoom="36.545455"
     inkscape:cx="4.3507462"
     inkscape:cy="11"
     inkscape:window-width="1920"
     inkscape:window-height="1019"
     inkscape:window-x="0"
     inkscape:window-y="0"
     inkscape:window-maximized="1"
     inkscape:current-layer="svg57256" />
  <defs
     id="defs57248">
    <linearGradient
       id="linearGradient3605"
       x1="7"
       x2="19"
       y1="12"
       y2="5"
       gradientTransform="matrix(0.97515,0.22155,0.22155,-0.97515,-2.3604237,21.042622)"
       gradientUnits="userSpaceOnUse">
      <stop
         offset="0"
         stop-color="#444444"
         stop-opacity=".5"
         id="stop57238"
         style="stop-color:#64baff;stop-opacity:0.5;" />
      <stop
         offset="1"
         stop-color="#444444"
         stop-opacity="0"
         id="stop57240"
         style="stop-color:#64baff;stop-opacity:0;" />
    </linearGradient>
    <linearGradient
       id="linearGradient3611"
       x1="7"
       x2="17"
       y1="12"
       y2="12"
       gradientTransform="matrix(-0.97515,-0.22155,-0.22155,0.97515,26.360776,2.9564221)"
       gradientUnits="userSpaceOnUse">
      <stop
         offset="0"
         stop-color="#444444"
         id="stop57243"
         style="stop-color:#64baff;stop-opacity:1" />
      <stop
         offset="1"
         stop-color="#444444"
         stop-opacity=".5"
         id="stop57245"
         style="stop-color:#64baff;stop-opacity:0.5;" />
    </linearGradient>
  </defs>
  <path
     style="fill:url(#linearGradient3611)"
     d="m 12.144776,4.9996221 c -3.2557997,-0.0703 -6.2216997,2.1506 -6.9711997,5.4491999 l 1.9512,0.4434 c 0.6118,-2.6927999 3.2923997,-4.3792999 5.9839997,-3.7675999 2.321,0.5274 3.872,2.5928 3.87,4.8769999 0.007,0 0.014,-0.002 0.021,-0.002 0.75,0 1.424,0.294 1.947,0.758 0.385,-3.4892999 -1.891,-6.7877999 -5.396,-7.5841999 -0.471,-0.107 -0.941,-0.1638 -1.406,-0.1738 z"
     id="path57250" />
  <path
     style="fill:url(#linearGradient3605)"
     d="m 5.1755763,10.448822 c -0.8565,3.7698 1.5035,7.5208 5.2733997,8.3768 0.8638,0.196 1.7238,0.208 2.5508,0.086 v -2.037 c -0.676,0.145 -1.388,0.163 -2.1074,0 -2.6927997,-0.612 -4.3793997,-3.29 -3.7675997,-5.9824 z"
     id="path57252" />
  <path
     fill="#444444"
     d="m 16.999776,12.999622 c -1.108,0 -2,0.91085 -2,2.0312 v 0.96875 h -1 v 4 h 6 v -4 h -1 v -0.96875 c 0,-1.12 -0.892,-2.031 -2,-2.031 z m 0,1 c 0.554,0 1,0.4424 1,1 v 1 h -2 v -1 c 0,-0.5576 0.446,-1 1,-1 z"
     id="path57254"
     style="fill:#f9c440" />
</svg>
