<?xml version="1.0" encoding="UTF-8" standalone="no"?>
<svg
   width="24"
   height="24"
   version="1.1"
   id="svg5338"
   sodipodi:docname="nm-vpn-connecting02.svg"
   inkscape:version="1.2.2 (b0a8486541, 2022-12-01)"
   xmlns:inkscape="http://www.inkscape.org/namespaces/inkscape"
   xmlns:sodipodi="http://sodipodi.sourceforge.net/DTD/sodipodi-0.dtd"
   xmlns="http://www.w3.org/2000/svg"
   xmlns:svg="http://www.w3.org/2000/svg">
  <sodipodi:namedview
     id="namedview5340"
     pagecolor="#ffffff"
     bordercolor="#000000"
     borderopacity="0.25"
     inkscape:showpageshadow="2"
     inkscape:pageopacity="0.0"
     inkscape:pagecheckerboard="0"
     inkscape:deskcolor="#d1d1d1"
     showgrid="false"
     inkscape:zoom="33.5"
     inkscape:cx="10.641791"
     inkscape:cy="12"
     inkscape:window-width="1920"
     inkscape:window-height="1019"
     inkscape:window-x="0"
     inkscape:window-y="0"
     inkscape:window-maximized="1"
     inkscape:current-layer="svg5338" />
  <defs
     id="defs5330">
    <linearGradient
       id="linearGradient3605"
       x1="7"
       x2="19"
       y1="12"
       y2="5"
       gradientTransform="matrix(.43366 -.90108 -.90108 -.43366 17.609 28.017)"
       gradientUnits="userSpaceOnUse">
      <stop
         offset="0"
         stop-color="#555761"
         stop-opacity=".5"
         id="stop5320" />
      <stop
         offset="1"
         stop-color="#555761"
         stop-opacity="0"
         id="stop5322" />
    </linearGradient>
    <linearGradient
       id="linearGradient3611"
       x1="7"
       x2="17"
       y1="12"
       y2="12"
       gradientTransform="matrix(-.43366 .90108 .90108 .43366 6.391 -4.0168)"
       gradientUnits="userSpaceOnUse">
      <stop
         offset="0"
         stop-color="#555761"
         id="stop5325" />
      <stop
         offset="1"
         stop-color="#555761"
         stop-opacity=".5"
         id="stop5327" />
    </linearGradient>
  </defs>
  <path
     style="fill:url(#linearGradient3611)"
     d="m12.342 5.0059c-2.7253-0.132-5.3913 1.3462-6.6486 3.9589-1.6765 3.4832-0.2122 7.6672 3.2714 9.3442l0.8672-1.803c-2.4882-1.198-3.5352-4.186-2.3379-6.674 1.1975-2.4882 4.1859-3.5354 6.6739-2.3379 1.171 0.5638 2.039-1.2369 0.867-1.8007-0.871-0.4192-1.785-0.6435-2.693-0.6875z"
     id="path5332" />
  <path
     style="fill:url(#linearGradient3605);opacity:0.5"
     d="m15.035 5.6934l-0.867 1.8007c1.789 0.8613 2.805 2.6479 2.803 4.5099 0.01 0 0.019-0.004 0.029-0.004 0.742 0 1.409 0.287 1.93 0.742 0.306-2.8599-1.154-5.7297-3.895-7.0486zm-5.203 10.813l-0.8672 1.803c1.3052 0.627 2.7022 0.787 4.0352 0.591v-2.035c-1.036 0.217-2.141 0.135-3.168-0.359z"
     id="path5334" />
  <path
     fill="#555761"
     d="m17 13c-1.108 0-2 0.91085-2 2.0312v0.96875h-1v4h6v-4h-1v-0.96875c0-1.12-0.892-2.031-2-2.031zm0 1c0.554 0 1 0.4424 1 1v1h-2v-1c0-0.5576 0.446-1 1-1z"
     id="path5336" />
</svg>
