<?xml version="1.0" encoding="UTF-8" standalone="no"?>
<svg
   width="24"
   height="24"
   version="1.1"
   id="svg59341"
   sodipodi:docname="nm-vpn-connecting14.svg"
   inkscape:version="1.2.2 (b0a8486541, 2022-12-01)"
   xmlns:inkscape="http://www.inkscape.org/namespaces/inkscape"
   xmlns:sodipodi="http://sodipodi.sourceforge.net/DTD/sodipodi-0.dtd"
   xmlns="http://www.w3.org/2000/svg"
   xmlns:svg="http://www.w3.org/2000/svg">
  <sodipodi:namedview
     id="namedview59343"
     pagecolor="#ffffff"
     bordercolor="#000000"
     borderopacity="0.25"
     inkscape:showpageshadow="2"
     inkscape:pageopacity="0.0"
     inkscape:pagecheckerboard="0"
     inkscape:deskcolor="#d1d1d1"
     showgrid="false"
     inkscape:zoom="18.272728"
     inkscape:cx="6.1840795"
     inkscape:cy="8.482587"
     inkscape:window-width="1920"
     inkscape:window-height="1019"
     inkscape:window-x="0"
     inkscape:window-y="0"
     inkscape:window-maximized="1"
     inkscape:current-layer="svg59341" />
  <defs
     id="defs59333">
    <linearGradient
       id="linearGradient3605"
       x1="7"
       x2="19"
       y1="12"
       y2="5"
       gradientTransform="matrix(-0.4368,-0.89956,-0.89956,0.4368,28.037408,17.553371)"
       gradientUnits="userSpaceOnUse">
      <stop
         offset="0"
         stop-color="#444444"
         stop-opacity=".5"
         id="stop59323"
         style="stop-color:#64baff;stop-opacity:0.5;" />
      <stop
         offset="1"
         stop-color="#444444"
         stop-opacity="0"
         id="stop59325"
         style="stop-color:#64baff;stop-opacity:0;" />
    </linearGradient>
    <linearGradient
       id="linearGradient3611"
       x1="7"
       x2="17"
       y1="12"
       y2="12"
       gradientTransform="matrix(0.4368,0.89956,0.89956,-0.4368,-4.035292,6.4473712)"
       gradientUnits="userSpaceOnUse">
      <stop
         offset="0"
         stop-color="#444444"
         id="stop59328"
         style="stop-color:#64baff;stop-opacity:1" />
      <stop
         offset="1"
         stop-color="#444444"
         stop-opacity=".5"
         id="stop59330"
         style="stop-color:#64baff;stop-opacity:0.5;" />
    </linearGradient>
  </defs>
  <path
     style="fill:url(#linearGradient3611)"
     d="m 9.365608,5.5941712 c -0.1335,0.004 -0.2757,0.0384 -0.4218,0.1093 -3.4777,1.6887 -4.929,5.8778998 -3.2403,9.3558998 1.3648,2.81 4.3615,4.265 7.2969,3.839 v -2.025 c -2.1855,0.449 -4.4768,-0.591 -5.4961,-2.689 -1.2062,-2.484 -0.1715,-5.4757998 2.3125,-6.6819998 1.0235,-0.4969 0.4835,-1.9366 -0.4512,-1.9082 z"
     id="path59335" />
  <path
     style="fill:url(#linearGradient3605)"
     d="m 12.312408,5.0062712 c -1.126,-0.0515 -2.282,0.1695 -3.3686,0.6972 l 0.873,1.7989 c 2.4836,-1.2062 5.4756,-0.1696 6.6816,2.3144 0.343,0.7062998 0.487,1.4505998 0.482,2.1855998 0.007,0 0.013,-0.002 0.02,-0.002 0.743,0 1.411,0.288 1.932,0.744 0.139,-1.262 -0.039,-2.573 -0.635,-3.8005998 -1.161,-2.391 -3.503,-3.8244 -5.985,-3.9375 z"
     id="path59337" />
  <path
     fill="#444444"
     d="m 17.000408,13.000371 c -1.108,0 -2,0.91085 -2,2.0312 v 0.96875 h -1 v 4 h 6 v -4 h -1 v -0.96875 c 0,-1.12 -0.892,-2.031 -2,-2.031 z m 0,1 c 0.554,0 1,0.4424 1,1 v 1 h -2 v -1 c 0,-0.5576 0.446,-1 1,-1 z"
     id="path59339"
     style="fill:#f9c440" />
</svg>
