<?xml version="1.0" encoding="UTF-8" standalone="no"?>
<svg
   id="svg4266"
   height="128"
   width="128"
   version="1.1"
   sodipodi:docname="document-properties.svg"
   inkscape:version="1.1.2 (0a00cf5339, 2022-02-04)"
   xmlns:inkscape="http://www.inkscape.org/namespaces/inkscape"
   xmlns:sodipodi="http://sodipodi.sourceforge.net/DTD/sodipodi-0.dtd"
   xmlns:xlink="http://www.w3.org/1999/xlink"
   xmlns="http://www.w3.org/2000/svg"
   xmlns:svg="http://www.w3.org/2000/svg"
   xmlns:rdf="http://www.w3.org/1999/02/22-rdf-syntax-ns#"
   xmlns:cc="http://creativecommons.org/ns#"
   xmlns:dc="http://purl.org/dc/elements/1.1/">
  <sodipodi:namedview
     id="namedview59"
     pagecolor="#ffffff"
     bordercolor="#666666"
     borderopacity="1.0"
     inkscape:pageshadow="2"
     inkscape:pageopacity="0.0"
     inkscape:pagecheckerboard="0"
     showgrid="false"
     inkscape:snap-global="false"
     inkscape:zoom="10.65625"
     inkscape:cx="64.703812"
     inkscape:cy="71.97654"
     inkscape:window-width="1360"
     inkscape:window-height="893"
     inkscape:window-x="658"
     inkscape:window-y="116"
     inkscape:window-maximized="0"
     inkscape:current-layer="svg4266" />
  <defs
     id="defs4268">
    <linearGradient
       gradientTransform="matrix(2.4594595,0,0,3.1081081,4.9729852,-14.594559)"
       gradientUnits="userSpaceOnUse"
       xlink:href="#linearGradient3977"
       id="linearGradient3093"
       y2="43"
       x2="23.99999"
       y1="5.5641499"
       x1="23.99999" />
    <linearGradient
       id="linearGradient3977">
      <stop
         offset="0"
         style="stop-color:#ffffff;stop-opacity:1"
         id="stop3979" />
      <stop
         offset="0.03626217"
         style="stop-color:#ffffff;stop-opacity:0.23529412"
         id="stop3981" />
      <stop
         offset="0.95056331"
         style="stop-color:#ffffff;stop-opacity:0.15686275"
         id="stop3983" />
      <stop
         offset="1"
         style="stop-color:#ffffff;stop-opacity:0.39215687"
         id="stop3985" />
    </linearGradient>
    <linearGradient
       gradientTransform="matrix(2.6571409,0,0,2.5422194,0.228619,-4.91283)"
       gradientUnits="userSpaceOnUse"
       xlink:href="#linearGradient3600"
       id="linearGradient3096"
       y2="47.013336"
       x2="25.132275"
       y1="0.98520643"
       x1="25.132275" />
    <linearGradient
       id="linearGradient3600">
      <stop
         offset="0"
         style="stop-color:#f4f4f4;stop-opacity:1"
         id="stop3602" />
      <stop
         offset="1"
         style="stop-color:#dbdbdb;stop-opacity:1"
         id="stop3604" />
    </linearGradient>
    <linearGradient
       gradientTransform="matrix(2.1456328,0,0,2.3791386,158.08997,-7.746077)"
       gradientUnits="userSpaceOnUse"
       xlink:href="#linearGradient3104"
       id="linearGradient3098"
       y2="2.9062471"
       x2="-51.786404"
       y1="50.786446"
       x1="-51.786404" />
    <linearGradient
       id="linearGradient3104">
      <stop
         offset="0"
         style="stop-color:#a0a0a0;stop-opacity:1"
         id="stop3106" />
      <stop
         offset="1"
         style="stop-color:#bebebe;stop-opacity:1"
         id="stop3108-4" />
    </linearGradient>
    <linearGradient
       gradientTransform="matrix(3.1428572,0,0,1.2857143,-11.428573,61.571428)"
       gradientUnits="userSpaceOnUse"
       xlink:href="#linearGradient3702-501-757-486"
       id="linearGradient3120"
       y2="39.999443"
       x2="25.058096"
       y1="47.027729"
       x1="25.058096" />
    <linearGradient
       id="linearGradient3702-501-757-486">
      <stop
         offset="0"
         style="stop-color:#181818;stop-opacity:0"
         id="stop3100" />
      <stop
         offset="0.5"
         style="stop-color:#181818;stop-opacity:1"
         id="stop3102" />
      <stop
         offset="1"
         style="stop-color:#181818;stop-opacity:0"
         id="stop3104" />
    </linearGradient>
    <radialGradient
       gradientTransform="matrix(2.4045407,0,0,1.7999999,-32.014243,-195.8)"
       gradientUnits="userSpaceOnUse"
       xlink:href="#linearGradient3688-464-309-255"
       id="radialGradient3123"
       fy="43.5"
       fx="4.9929786"
       r="2.5"
       cy="43.5"
       cx="4.9929786" />
    <linearGradient
       id="linearGradient3688-464-309-255">
      <stop
         offset="0"
         style="stop-color:#181818;stop-opacity:1"
         id="stop3094" />
      <stop
         offset="1"
         style="stop-color:#181818;stop-opacity:0"
         id="stop3096" />
    </linearGradient>
    <linearGradient
       id="linearGradient3688-166-749-737">
      <stop
         offset="0"
         style="stop-color:#181818;stop-opacity:1"
         id="stop3088" />
      <stop
         offset="1"
         style="stop-color:#181818;stop-opacity:0"
         id="stop3090" />
    </linearGradient>
    <radialGradient
       gradientTransform="matrix(2.4045407,0,0,1.7999999,95.985757,39.200001)"
       gradientUnits="userSpaceOnUse"
       xlink:href="#linearGradient3688-166-749-737"
       id="radialGradient4264"
       fy="43.5"
       fx="4.9929786"
       r="2.5"
       cy="43.5"
       cx="4.9929786" />
    <linearGradient
       xlink:href="#linearGradient992"
       id="linearGradient994"
       x1="39.706413"
       y1="44.004978"
       x2="41.985638"
       y2="47.065151"
       gradientUnits="userSpaceOnUse"
       gradientTransform="matrix(2.9686198,0,0,2.9684655,-13.370634,-16.846765)" />
    <linearGradient
       id="linearGradient992">
      <stop
         style="stop-color:#e5e5e5;stop-opacity:1"
         offset="0"
         id="stop988" />
      <stop
         style="stop-color:#d4d4d4;stop-opacity:0"
         offset="1"
         id="stop990" />
    </linearGradient>
    <linearGradient
       xlink:href="#linearGradient984"
       id="linearGradient986"
       x1="38.832764"
       y1="44.151825"
       x2="41.099575"
       y2="47.189423"
       gradientUnits="userSpaceOnUse"
       gradientTransform="matrix(2.9686198,0,0,2.9684655,-13.370634,-16.846765)" />
    <linearGradient
       id="linearGradient984">
      <stop
         style="stop-color:#555761;stop-opacity:1;"
         offset="0"
         id="stop980" />
      <stop
         style="stop-color:#555761;stop-opacity:0;"
         offset="1"
         id="stop982" />
    </linearGradient>
    <linearGradient
       gradientTransform="matrix(3.5062947,0,0,3.5041259,-1000.3125,-128.21899)"
       gradientUnits="userSpaceOnUse"
       xlink:href="#linearGradient7381"
       id="linearGradient3284"
       y2="63.1413"
       x2="309.18304"
       y1="52.062881"
       x1="299.20316" />
    <linearGradient
       id="linearGradient7381">
      <stop
         offset="0"
         style="stop-color:#abacae;stop-opacity:1"
         id="stop7383" />
      <stop
         offset="1"
         style="stop-color:#fafafa;stop-opacity:1"
         id="stop7385" />
    </linearGradient>
    <linearGradient
       gradientTransform="matrix(3.1242938,0,0,3.3128127,-47.75197,-66.015629)"
       xlink:href="#linearGradient7421"
       id="linearGradient968"
       x1="47.430111"
       y1="54.704376"
       x2="50.420952"
       y2="58.91193"
       gradientUnits="userSpaceOnUse" />
    <linearGradient
       id="linearGradient7421">
      <stop
         offset="0"
         style="stop-color:white;stop-opacity:1"
         id="stop7423" />
      <stop
         offset="1"
         style="stop-color:white;stop-opacity:0"
         id="stop7425" />
    </linearGradient>
  </defs>
  <metadata
     id="metadata4271">
    <rdf:RDF>
      <cc:Work
         rdf:about="">
        <dc:format>image/svg+xml</dc:format>
        <dc:type
           rdf:resource="http://purl.org/dc/dcmitype/StillImage" />
      </cc:Work>
    </rdf:RDF>
  </metadata>
  <rect
     width="6"
     height="8.999999"
     x="108"
     y="113"
     id="rect2801"
     style="opacity:0.4;fill:url(#radialGradient4264);fill-opacity:1;stroke:none" />
  <rect
     width="6"
     height="8.999999"
     x="-20"
     y="-122"
     transform="scale(-1,-1)"
     id="rect3696"
     style="opacity:0.4;fill:url(#radialGradient3123);fill-opacity:1;stroke:none" />
  <rect
     width="88"
     height="9"
     x="20"
     y="113"
     id="rect3700"
     style="opacity:0.4;fill:url(#linearGradient3120);fill-opacity:1;stroke:none" />
  <path
     d="m 17.499929,1.500412 c 21.311061,0 93.000031,0.007 93.000031,0.007 l 1.1e-4,116.992628 c 0,0 -62.0001,0 -93.00014,0 0,-39.000029 0,-78.000054 0,-117.000079 z"
     id="path4160"
     style="display:inline;fill:url(#linearGradient3096);fill-opacity:1;stroke:url(#linearGradient3098);stroke-width:0.99992186;stroke-linecap:butt;stroke-linejoin:round;stroke-miterlimit:4;stroke-dasharray:none;stroke-dashoffset:0;stroke-opacity:1" />
  <path
     d="m 109.5,117.5 -91,0 0,-115.000003 91,0 z"
     id="rect6741-1"
     style="fill:none;stroke:url(#linearGradient3093);stroke-width:1;stroke-linecap:round;stroke-linejoin:round;stroke-miterlimit:4;stroke-dasharray:none;stroke-dashoffset:0;stroke-opacity:1" />
  <path
     id="path6912"
     d="m 48.602499,64.284059 c -0.161998,0.173061 -0.278398,0.382932 -0.333801,0.613255 -1.52566,6.570788 -0.804381,14.120517 2.089436,19.295442 3.952014,7.067352 12.182936,10.439499 20.242745,9.013004 3.293475,1.107296 7.662157,3.545059 12.840112,8.68522 l 27.090109,24.28993 9.34789,-9.90095 -24.621367,-25.505681 c -4.667798,-4.633686 -7.117267,-8.60582 -8.371925,-11.742419 1.088564,-4.336125 1.006679,-9.938738 -1.283967,-14.035162 -2.892625,-5.172728 -8.962382,-9.74651 -15.395025,-11.976926 -0.551985,-0.201856 -1.159928,-0.0475 -1.53537,0.39626 -0.375501,0.443785 -0.440752,1.080314 -0.146354,1.586436 l 7.875808,14.114994 c 0.707422,1.265012 0.338364,2.892088 -0.801824,4.556121 -1.150964,1.679824 -3.065961,3.358254 -5.516231,4.692995 -2.450773,1.334979 -4.901109,2.067417 -6.949694,2.136613 -2.036492,0.06917 -3.636801,-0.495822 -4.346018,-1.764189 l -7.92314,-14.193303 c -0.220895,-0.393796 -0.608588,-0.651905 -1.058201,-0.704209 -0.449576,-0.05225 -0.903328,0.109243 -1.203255,0.442569 z"
     style="display:inline;vector-effect:none;fill:url(#linearGradient994);fill-opacity:1;fill-rule:evenodd;stroke:url(#linearGradient986);stroke-width:0.999999;stroke-linecap:round;stroke-linejoin:round;stroke-miterlimit:4;stroke-dasharray:none;stroke-dashoffset:0.3612;stroke-opacity:0.5;enable-background:new"
     sodipodi:nodetypes="cccccccccccccccccccccc" />
  <path
     d="m 69.764886,54.214578 c 0.0656,0.02376 0.02376,0.109244 0,0.109538 l 7.889166,14.126007 c 1.06425,1.903024 0.296566,4.150449 -0.986145,6.02272 -1.295566,1.890793 -3.302947,3.722781 -5.916875,5.146696 -2.619569,1.426941 -5.367164,2.112241 -7.67003,2.190074 -2.297812,0.07777 -4.454638,-0.57787 -5.478583,-2.409087 L 49.713254,65.16501 c -0.04525,-0.0059 -0.117108,0.0059 -0.109747,0 0.07223,-0.07718 0.01394,0.05611 0,0.109833 -1.454832,6.265836 -0.700278,13.507884 1.972291,18.287143 3.655733,6.53751 11.716158,8.691832 19.2743,7.354123 7.522631,-1.345635 13.52696,-6.927199 15.131201,-13.15783 1.013013,-4.035272 0.581464,-8.371844 -1.534005,-12.154916 -2.665285,-4.766229 -8.528577,-9.254607 -14.682584,-11.38843 z"
     id="path7379"
     style="display:inline;fill:url(#linearGradient3284);fill-opacity:1;fill-rule:evenodd;stroke:none;stroke-width:1.18078;enable-background:new"
     sodipodi:nodetypes="cccccccccccccccc" />
  <path
     d="M 70.951466,55.308894 77.4933,66.247031 c 1.574081,2.984582 1.183841,6.211324 -0.347783,8.581675 -1.547432,2.394831 -2.118679,2.762141 -5.077948,4.471487 -2.971672,1.716531 -6.926433,3.252436 -9.673578,3.350861 -2.750794,0.09872 -5.234932,-1.786036 -6.712992,-4.58904 l -5.76588,-10.998605 c -0.245758,5.154637 -0.368976,10.360987 1.513944,13.931571 3.470486,6.581034 10.788673,11.533816 18.10485,10.160722 0.535597,-0.111975 1.099313,-0.06957 1.614447,0.122244 3.965417,1.41371 10.216534,5.464419 15.936678,11.485774 l 25.181572,21.91336 9.97926,-3.73713 L 94.761386,92.931357 C 89.604112,87.502618 86.971549,84.358074 85.478355,80.399725 85.253092,79.780757 85.212788,79.088214 85.36307,78.444404 86.333102,74.346918 85.563063,68.146413 82.303067,64.052462 79.432581,60.496108 77.148353,58.63533 76.190442,58.121131 Z"
     id="path6394"
     style="display:inline;vector-effect:none;fill:none;fill-opacity:1;stroke:url(#linearGradient968);stroke-width:0.999999;stroke-linecap:round;stroke-linejoin:round;stroke-miterlimit:4;stroke-dasharray:none;stroke-dashoffset:0.3612;stroke-opacity:1;enable-background:new"
     sodipodi:nodetypes="ccsscccccccccccccsc" />
</svg>
