<?xml version="1.0" encoding="UTF-8" standalone="no"?>
<svg
   id="svg3810"
   height="22"
   width="22"
   version="1.1"
   sodipodi:docname="edit-delete.svg"
   inkscape:version="1.2.2 (b0a8486541, 2022-12-01)"
   xmlns:inkscape="http://www.inkscape.org/namespaces/inkscape"
   xmlns:sodipodi="http://sodipodi.sourceforge.net/DTD/sodipodi-0.dtd"
   xmlns:xlink="http://www.w3.org/1999/xlink"
   xmlns="http://www.w3.org/2000/svg"
   xmlns:svg="http://www.w3.org/2000/svg"
   xmlns:rdf="http://www.w3.org/1999/02/22-rdf-syntax-ns#"
   xmlns:cc="http://creativecommons.org/ns#"
   xmlns:dc="http://purl.org/dc/elements/1.1/">
  <sodipodi:namedview
     id="namedview24"
     pagecolor="#ffffff"
     bordercolor="#666666"
     borderopacity="1.0"
     inkscape:pageshadow="2"
     inkscape:pageopacity="0.0"
     inkscape:pagecheckerboard="0"
     showgrid="false"
     inkscape:zoom="22.125"
     inkscape:cx="8.9039548"
     inkscape:cy="11.774011"
     inkscape:window-width="1396"
     inkscape:window-height="896"
     inkscape:window-x="434"
     inkscape:window-y="119"
     inkscape:window-maximized="0"
     inkscape:current-layer="svg3810"
     inkscape:showpageshadow="2"
     inkscape:deskcolor="#d1d1d1" />
  <defs
     id="defs3812">
    <linearGradient
       gradientTransform="matrix(0.24324324,0,0,0.35135133,2.1621636,-0.43242804)"
       gradientUnits="userSpaceOnUse"
       xlink:href="#linearGradient3977"
       id="linearGradient3988"
       y2="41.076912"
       x2="23.99999"
       y1="6.9230647"
       x1="23.99999" />
    <linearGradient
       id="linearGradient3977">
      <stop
         offset="0"
         style="stop-color:#ffffff;stop-opacity:1"
         id="stop3979" />
      <stop
         offset="0"
         style="stop-color:#ffffff;stop-opacity:0.23529412"
         id="stop3981" />
      <stop
         offset="1"
         style="stop-color:#ffffff;stop-opacity:0.15686275"
         id="stop3983" />
      <stop
         offset="1"
         style="stop-color:#ffffff;stop-opacity:0.39215687"
         id="stop3985" />
    </linearGradient>
    <linearGradient
       id="linearGradient3600">
      <stop
         offset="0"
         style="stop-color:#f4f4f4;stop-opacity:1"
         id="stop3602" />
      <stop
         offset="1"
         style="stop-color:#dbdbdb;stop-opacity:1"
         id="stop3604" />
    </linearGradient>
    <linearGradient
       gradientTransform="matrix(0.28571361,0,0,0.30419701,1.1428727,0.2326048)"
       gradientUnits="userSpaceOnUse"
       xlink:href="#linearGradient3600"
       id="linearGradient3806"
       y2="47.013336"
       x2="25.132275"
       y1="0.98520643"
       x1="25.132275" />
    <linearGradient
       id="linearGradient3104-9">
      <stop
         offset="0"
         style="stop-color:#000000;stop-opacity:0.33950618"
         id="stop3106-5" />
      <stop
         offset="1"
         style="stop-color:#000000;stop-opacity:0.24691358"
         id="stop3108-5" />
    </linearGradient>
    <linearGradient
       gradientTransform="matrix(0.25378586,0,0,0.30501865,19.128979,-0.68547704)"
       gradientUnits="userSpaceOnUse"
       xlink:href="#linearGradient3104-9"
       id="linearGradient3019"
       y2="2.9062471"
       x2="-51.786404"
       y1="50.786446"
       x1="-51.786404" />
    <linearGradient
       xlink:href="#linearGradient947"
       id="linearGradient1054"
       gradientUnits="userSpaceOnUse"
       gradientTransform="matrix(0,-1,-1,0,-2.7715087,19.51972)"
       x1="13.445079"
       y1="-8.8364296"
       x2="9.542304"
       y2="-8.8364296" />
    <linearGradient
       id="linearGradient947">
      <stop
         offset="0"
         style="stop-color:#ed5353;stop-opacity:1"
         id="stop943" />
      <stop
         offset="1"
         style="stop-color:#c6262e;stop-opacity:1"
         id="stop945" />
    </linearGradient>
    <linearGradient
       gradientTransform="matrix(0.31772733,0,0,0.13938333,-0.61723745,4.7764592)"
       gradientUnits="userSpaceOnUse"
       xlink:href="#linearGradient4333"
       id="linearGradient3030-1"
       y2="23.137005"
       x2="24.138529"
       y1="22.844936"
       x1="24.138529" />
    <linearGradient
       id="linearGradient4333">
      <stop
         id="stop4335"
         style="stop-color:#ffffff;stop-opacity:1"
         offset="0" />
      <stop
         id="stop4337"
         style="stop-color:#ffffff;stop-opacity:0.23529412"
         offset="0.99999797" />
      <stop
         id="stop4339"
         style="stop-color:#ffffff;stop-opacity:0.15686275"
         offset="1" />
      <stop
         id="stop4341"
         style="stop-color:#ffffff;stop-opacity:0.39215687"
         offset="1" />
    </linearGradient>
  </defs>
  <metadata
     id="metadata3815">
    <rdf:RDF>
      <cc:Work
         rdf:about="">
        <dc:format>image/svg+xml</dc:format>
        <dc:type
           rdf:resource="http://purl.org/dc/dcmitype/StillImage" />
      </cc:Work>
    </rdf:RDF>
  </metadata>
  <path
     id="rect1095"
     style="opacity:0.8;fill:#ff362f;fill-opacity:1;stroke:#ff241d;stroke-width:0.795237;stroke-miterlimit:4;stroke-dasharray:none;stroke-opacity:1"
     d="m 5.9843659,7.561738 c 0,0 0.4917406,2.4259063 1.4022539,2.2889963 C 8.8817676,9.6259178 8.7106954,8.0711455 9.1433896,7.0696061 9.8381604,5.4614552 10.443123,1.9975808 10.443123,1.9975808 c 0,0 2.151352,2.9863631 3.208061,4.4919392 0.628214,0.8950671 0.746312,2.5703675 1.861959,2.6997632 0.7762,0.090029 1.723582,-1.5281704 1.723582,-1.5281704 0,0 2.576275,8.7237692 -0.325341,11.2191322 C 13.79861,21.557194 7.0208918,21.028117 4.4203991,17.886953 2.1668364,15.164849 5.9843659,7.561738 5.9843659,7.561738 Z"
     sodipodi:nodetypes="csacaacaac" />
  <path
     id="path6235"
     style="opacity:0.8;fill:#ff6b66;fill-opacity:1;stroke:none;stroke-width:0.795237;stroke-miterlimit:4;stroke-dasharray:none;stroke-opacity:1"
     d="m 5.9843659,7.561738 c 0,0 0.4917406,2.4259063 1.4022539,2.2889963 C 8.8817676,9.6259178 8.7106954,8.0711455 9.1433896,7.0696061 9.8381604,5.4614552 10.443123,1.9975808 10.443123,1.9975808 c 0,0 2.151352,2.9863631 3.208061,4.4919392 0.628214,0.8950671 0.746312,2.5703675 1.861959,2.6997632 0.7762,0.090029 1.723582,-1.5281704 1.723582,-1.5281704 0,0 2.576275,8.7237692 -0.325341,11.2191322 C 13.79861,21.557194 7.0208918,21.028117 4.4203991,17.886953 2.1668364,15.164849 5.9843659,7.561738 5.9843659,7.561738 Z"
     sodipodi:nodetypes="csacaacaac" />
  <path
     id="path3852"
     style="opacity:1;fill:#ffcb6b;fill-opacity:1;stroke-width:0.787942"
     d="m 8.0166553,10.414778 c 0,0 0.9974877,2.358995 1.9874107,2.183948 1.450645,-0.256512 1.53516,-3.9868108 1.53516,-3.9868108 0,0 0.980088,1.1614557 1.483793,2.5307298 0.328452,0.892869 -0.143256,2.181267 0.673567,2.284259 0.926417,0.116784 1.434091,-2.31364 1.434091,-2.31364 0,0 1.422703,6.104108 -0.643739,7.791452 -1.799352,1.469253 -5.5240335,1.161302 -7.0605196,-0.561456 -1.7945339,-2.01209 0.5902369,-7.928482 0.5902369,-7.928482 z"
     sodipodi:nodetypes="cacsacaac" />
</svg>
