<?xml version="1.0" encoding="UTF-8" standalone="no"?>
<svg
   width="16"
   height="16"
   version="1.1"
   id="svg19493"
   sodipodi:docname="nm-stage01-connecting05.svg"
   inkscape:version="1.2.2 (b0a8486541, 2022-12-01)"
   xmlns:inkscape="http://www.inkscape.org/namespaces/inkscape"
   xmlns:sodipodi="http://sodipodi.sourceforge.net/DTD/sodipodi-0.dtd"
   xmlns="http://www.w3.org/2000/svg"
   xmlns:svg="http://www.w3.org/2000/svg">
  <sodipodi:namedview
     id="namedview19495"
     pagecolor="#ffffff"
     bordercolor="#000000"
     borderopacity="0.25"
     inkscape:showpageshadow="2"
     inkscape:pageopacity="0.0"
     inkscape:pagecheckerboard="0"
     inkscape:deskcolor="#d1d1d1"
     showgrid="false"
     inkscape:zoom="50.25"
     inkscape:cx="7.5124378"
     inkscape:cy="7.9800995"
     inkscape:window-width="1920"
     inkscape:window-height="1019"
     inkscape:window-x="0"
     inkscape:window-y="0"
     inkscape:window-maximized="1"
     inkscape:current-layer="svg19493" />
  <defs
     id="defs19487">
    <linearGradient
       id="linearGradient3605"
       x1="7"
       x2="19"
       y1="12"
       y2="5"
       gradientTransform="matrix(0.72739,0.68622,0.68622,-0.72739,-8.9638343,8.4940462)"
       gradientUnits="userSpaceOnUse">
      <stop
         offset="0"
         stop-color="#64baff"
         stop-opacity=".5"
         id="stop19477" />
      <stop
         offset="1"
         stop-color="#64baff"
         stop-opacity="0"
         id="stop19479" />
    </linearGradient>
    <linearGradient
       id="linearGradient3611"
       x1="7"
       x2="17"
       y1="12"
       y2="12"
       gradientTransform="matrix(-0.72739,-0.68622,-0.68622,0.72739,24.962766,7.5060462)"
       gradientUnits="userSpaceOnUse">
      <stop
         offset="0"
         stop-color="#64baff"
         id="stop19482" />
      <stop
         offset="1"
         stop-color="#64baff"
         stop-opacity=".5"
         id="stop19484" />
    </linearGradient>
  </defs>
  <path
     fill="url(#linearGradient3611)"
     d="m 13.091766,12.804046 c 2.653,-2.8129998 2.524,-7.2427998 -0.288,-9.8956998 -2.8130003,-2.65300001 -7.2428003,-2.52400001 -9.8957003,0.2881 l 1.4548,1.3725 c 1.8949,-2.0086 5.0599,-2.1008 7.0679003,-0.2058 2.0086,1.8949 2.1008,5.0595 0.20582,7.0680998 -0.89209,0.94561 0.56269,2.3181 1.4548,1.3724 z"
     id="path19489"
     style="fill:url(#linearGradient3611)" />
  <path
     fill="url(#linearGradient3605)"
     d="m 13.091766,12.804046 -1.4548,-1.3724 c -1.8949003,2.0086 -5.0595003,2.1008 -7.0681003,0.20582 -2.0086,-1.8959998 -2.1008,-5.0609998 -0.2058,-7.0690998 l -1.4548,-1.3725 c -2.65289996,2.8121 -2.52389996,7.2423998 0.28815,9.8952998 2.8121,2.6529 7.2424003,2.5239 9.8953003,-0.28816 z"
     id="path19491"
     style="fill:url(#linearGradient3605)" />
</svg>
