<?xml version="1.0" encoding="UTF-8" standalone="no"?>
<svg
   version="1.0"
   width="32"
   height="32"
   id="svg9481"
   sodipodi:docname="user-desktop.svg"
   inkscape:version="1.2.2 (b0a8486541, 2022-12-01)"
   xmlns:inkscape="http://www.inkscape.org/namespaces/inkscape"
   xmlns:sodipodi="http://sodipodi.sourceforge.net/DTD/sodipodi-0.dtd"
   xmlns:xlink="http://www.w3.org/1999/xlink"
   xmlns="http://www.w3.org/2000/svg"
   xmlns:svg="http://www.w3.org/2000/svg"
   xmlns:rdf="http://www.w3.org/1999/02/22-rdf-syntax-ns#"
   xmlns:cc="http://creativecommons.org/ns#"
   xmlns:dc="http://purl.org/dc/elements/1.1/">
  <sodipodi:namedview
     id="namedview50"
     pagecolor="#ffffff"
     bordercolor="#666666"
     borderopacity="1.0"
     inkscape:pageshadow="2"
     inkscape:pageopacity="0.0"
     inkscape:pagecheckerboard="0"
     showgrid="false"
     inkscape:zoom="45.254832"
     inkscape:cx="5.1154759"
     inkscape:cy="7.1926021"
     inkscape:window-width="1319"
     inkscape:window-height="980"
     inkscape:window-x="599"
     inkscape:window-y="38"
     inkscape:window-maximized="0"
     inkscape:current-layer="svg9481"
     showguides="false"
     inkscape:snap-object-midpoints="true"
     inkscape:document-rotation="0"
     inkscape:showpageshadow="2"
     inkscape:deskcolor="#d1d1d1" />
  <metadata
     id="metadata54">
    <rdf:RDF>
      <cc:Work
         rdf:about="">
        <dc:format>image/svg+xml</dc:format>
        <dc:type
           rdf:resource="http://purl.org/dc/dcmitype/StillImage" />
      </cc:Work>
    </rdf:RDF>
  </metadata>
  <defs
     id="defs9483">
    <linearGradient
       id="linearGradient5048-7">
      <stop
         id="stop5050-5"
         style="stop-color:#000000;stop-opacity:0"
         offset="0" />
      <stop
         id="stop5056-9"
         style="stop-color:#000000;stop-opacity:1"
         offset="0.5" />
      <stop
         id="stop5052-6"
         style="stop-color:#000000;stop-opacity:0"
         offset="1" />
    </linearGradient>
    <linearGradient
       id="linearGradient5060-6">
      <stop
         id="stop5062-3"
         style="stop-color:#000000;stop-opacity:1"
         offset="0" />
      <stop
         id="stop5064-1"
         style="stop-color:#000000;stop-opacity:0"
         offset="1" />
    </linearGradient>
    <radialGradient
       gradientTransform="matrix(0.02008097,0,0,0.01647116,16.89799,21.960748)"
       gradientUnits="userSpaceOnUse"
       xlink:href="#linearGradient5060-6"
       id="radialGradient5942"
       fy="486.64789"
       fx="605.71429"
       r="117.14286"
       cy="486.64789"
       cx="605.71429" />
    <linearGradient
       gradientTransform="matrix(0.05384615,0,0,0.01647044,-3.4615405,21.961183)"
       gradientUnits="userSpaceOnUse"
       xlink:href="#linearGradient5048-7"
       id="linearGradient5946"
       y2="609.50507"
       x2="302.85715"
       y1="366.64789"
       x1="302.85715" />
    <radialGradient
       gradientTransform="matrix(-0.02008097,0,0,0.01647116,15.102006,21.960748)"
       gradientUnits="userSpaceOnUse"
       xlink:href="#linearGradient5060-6"
       id="radialGradient5950"
       fy="486.64789"
       fx="605.71429"
       r="117.14286"
       cy="486.64789"
       cx="605.71429" />
    <linearGradient
       id="linearGradient872">
      <stop
         id="stop868"
         offset="0"
         style="stop-color:#64baff;stop-opacity:1" />
      <stop
         id="stop870"
         offset="1"
         style="stop-color:#3689e6;stop-opacity:1" />
    </linearGradient>
    <linearGradient
       gradientTransform="matrix(0.72972972,0,0,0.56756764,-1.5135105,4.3783836)"
       gradientUnits="userSpaceOnUse"
       xlink:href="#linearGradient3924"
       id="linearGradient3141"
       y2="41.729153"
       x2="23.99999"
       y1="6.270823"
       x1="23.99999" />
    <linearGradient
       id="linearGradient3924">
      <stop
         offset="0"
         style="stop-color:#ffffff;stop-opacity:1"
         id="stop3926" />
      <stop
         offset="0.04197389"
         style="stop-color:#ffffff;stop-opacity:0.23529412"
         id="stop3928" />
      <stop
         offset="0.95056331"
         style="stop-color:#ffffff;stop-opacity:0.15686275"
         id="stop3930" />
      <stop
         offset="1"
         style="stop-color:#ffffff;stop-opacity:0.39215687"
         id="stop3932" />
    </linearGradient>
    <linearGradient
       gradientUnits="userSpaceOnUse"
       y2="109.39322"
       x2="33.169186"
       y1="8.7142859"
       x1="33.169186"
       id="linearGradient850"
       xlink:href="#linearGradient872"
       gradientTransform="matrix(0.49152543,0,0,0.4509804,0.27118734,3.1176474)" />
  </defs>
  <path
     d="m 29,28 c 0,0 0,3.99992 0,3.99992 1.03412,0.0076 2.5,-0.896183 2.5,-2.000218 C 31.5,28.895662 30.346,28 29,28 Z"
     id="path3411"
     style="display:inline;overflow:visible;visibility:visible;opacity:0.3;fill:url(#radialGradient5942);fill-opacity:1;fill-rule:nonzero;stroke:none;stroke-width:1;marker:none" />
  <rect
     width="26"
     height="3.999965"
     x="3.0000019"
     y="28.000034"
     id="rect4173-14"
     style="display:inline;overflow:visible;visibility:visible;opacity:0.3;fill:url(#linearGradient5946);fill-opacity:1;fill-rule:nonzero;stroke:none;stroke-width:1;marker:none" />
  <path
     d="m 3,28 c 0,0 0,3.99992 0,3.99992 C 1.965875,32.00752 0.5,31.103737 0.5,29.999702 0.5,28.895662 1.654,28 3,28 Z"
     id="path5018-7"
     style="display:inline;overflow:visible;visibility:visible;opacity:0.3;fill:url(#radialGradient5950);fill-opacity:1;fill-rule:nonzero;stroke:none;stroke-width:1;marker:none" />
  <rect
     width="29"
     height="23"
     rx="1.5"
     ry="1.5"
     x="1.5"
     y="6.5"
     id="rect5505"
     style="color:#000000;font-variation-settings:normal;display:inline;overflow:visible;visibility:visible;opacity:1;vector-effect:none;fill:url(#linearGradient850);fill-opacity:1;fill-rule:nonzero;stroke:none;stroke-width:1;stroke-linecap:round;stroke-linejoin:round;stroke-miterlimit:4;stroke-dasharray:none;stroke-dashoffset:0;stroke-opacity:1;-inkscape-stroke:none;marker:none;enable-background:accumulate;stop-color:#000000;stop-opacity:1" />
  <path
     d="m 5.4999999,25.5 c -0.554,0 -1,0.446 -1,1 v 2 H 27.5 v -2 c 0,-0.554 -0.446,-1 -1,-1 z"
     id="path4306"
     style="opacity:0.7;fill:#ffffff;fill-opacity:0.588235;stroke:#ffffff;stroke-width:1px;stroke-linecap:butt;stroke-linejoin:miter;stroke-opacity:1" />
  <path
     d="M 9.1184009,22 H 4.8815971 c -0.4884047,0 -0.8815972,0.393193 -0.8815972,0.881597 v 4.236805 c 0,0.488405 0.3931925,0.881597 0.8815972,0.881597 h 4.2368038 c 0.488406,0 0.881599,-0.393192 0.881599,-0.881597 V 22.881597 C 9.9999999,22.393193 9.6068069,22 9.1184009,22 Z"
     id="path3184"
     style="color:#000000;display:inline;overflow:visible;visibility:visible;opacity:0.3;fill:#002e99;fill-opacity:1;fill-rule:nonzero;stroke:none;stroke-width:1;marker:none;enable-background:accumulate" />
  <path
     d="M 8.2067059,23.492712 H 5.793295 c -0.1665219,0 -0.3005814,0.13406 -0.3005814,0.300581 v 2.413411 c 0,0.166522 0.1340595,0.300581 0.3005814,0.300581 h 2.4134109 c 0.1665209,0 0.3005805,-0.134059 0.3005805,-0.300581 v -2.413411 c 0,-0.166521 -0.1340596,-0.300581 -0.3005805,-0.300581 z"
     id="path3176"
     style="color:#000000;display:inline;overflow:visible;visibility:visible;fill:#f7f7f7;fill-opacity:1;fill-rule:nonzero;stroke:#ffffff;stroke-width:0.985427;stroke-linecap:butt;stroke-linejoin:miter;stroke-miterlimit:4;stroke-dashoffset:0;stroke-opacity:1;marker:none;enable-background:accumulate" />
  <path
     d="m 15.118401,22 h -4.236804 c -0.488404,0 -0.8815971,0.393193 -0.8815971,0.881597 v 4.236805 c 0,0.488405 0.3931931,0.881597 0.8815971,0.881597 h 4.236804 C 15.606807,27.999999 16,27.606807 16,27.118402 V 22.881597 C 16,22.393193 15.606807,22 15.118401,22 Z"
     id="path3184-5"
     style="color:#000000;display:inline;overflow:visible;visibility:visible;opacity:0.3;fill:#002e99;fill-opacity:1;fill-rule:nonzero;stroke:none;stroke-width:1;marker:none;enable-background:accumulate" />
  <path
     d="m 14.206706,23.492712 h -2.413411 c -0.166522,0 -0.300581,0.13406 -0.300581,0.300581 v 2.413411 c 0,0.166522 0.134059,0.300581 0.300581,0.300581 h 2.413411 c 0.166521,0 0.300581,-0.134059 0.300581,-0.300581 v -2.413411 c 0,-0.166521 -0.13406,-0.300581 -0.300581,-0.300581 z"
     id="path3176-9"
     style="color:#000000;display:inline;overflow:visible;visibility:visible;fill:#f7f7f7;fill-opacity:1;fill-rule:nonzero;stroke:#ffffff;stroke-width:0.985427;stroke-linecap:butt;stroke-linejoin:miter;stroke-miterlimit:4;stroke-dashoffset:0;stroke-opacity:1;marker:none;enable-background:accumulate" />
  <path
     d="M 21.118401,22 H 16.881597 C 16.393193,22 16,22.393193 16,22.881597 v 4.236805 c 0,0.488405 0.393193,0.881597 0.881597,0.881597 h 4.236804 C 21.606807,27.999999 22,27.606807 22,27.118402 V 22.881597 C 22,22.393193 21.606807,22 21.118401,22 Z"
     id="path3184-0"
     style="color:#000000;display:inline;overflow:visible;visibility:visible;opacity:0.3;fill:#002e99;fill-opacity:1;fill-rule:nonzero;stroke:none;stroke-width:1;marker:none;enable-background:accumulate" />
  <path
     d="m 20.206706,23.492712 h -2.413411 c -0.166522,0 -0.300581,0.13406 -0.300581,0.300581 v 2.413411 c 0,0.166522 0.134059,0.300581 0.300581,0.300581 h 2.413411 c 0.166521,0 0.300581,-0.134059 0.300581,-0.300581 v -2.413411 c 0,-0.166521 -0.13406,-0.300581 -0.300581,-0.300581 z"
     id="path3176-4"
     style="color:#000000;display:inline;overflow:visible;visibility:visible;fill:#f7f7f7;fill-opacity:1;fill-rule:nonzero;stroke:#ffffff;stroke-width:0.985427;stroke-linecap:butt;stroke-linejoin:miter;stroke-miterlimit:4;stroke-dashoffset:0;stroke-opacity:1;marker:none;enable-background:accumulate" />
  <path
     d="M 27.118401,22 H 22.881597 C 22.393193,22 22,22.393193 22,22.881597 v 4.236805 c 0,0.488405 0.393193,0.881597 0.881597,0.881597 h 4.236804 C 27.606807,27.999999 28,27.606807 28,27.118402 V 22.881597 C 28,22.393193 27.606807,22 27.118401,22 Z"
     id="path3184-7"
     style="color:#000000;display:inline;overflow:visible;visibility:visible;opacity:0.3;fill:#002e99;fill-opacity:1;fill-rule:nonzero;stroke:none;stroke-width:1;marker:none;enable-background:accumulate" />
  <path
     d="m 26.206706,23.492712 h -2.413411 c -0.166522,0 -0.300581,0.13406 -0.300581,0.300581 v 2.413411 c 0,0.166522 0.134059,0.300581 0.300581,0.300581 h 2.413411 c 0.166521,0 0.300581,-0.134059 0.300581,-0.300581 v -2.413411 c 0,-0.166521 -0.13406,-0.300581 -0.300581,-0.300581 z"
     id="path3176-5"
     style="color:#000000;display:inline;overflow:visible;visibility:visible;fill:#f7f7f7;fill-opacity:1;fill-rule:nonzero;stroke:#ffffff;stroke-width:0.985427;stroke-linecap:butt;stroke-linejoin:miter;stroke-miterlimit:4;stroke-dashoffset:0;stroke-opacity:1;marker:none;enable-background:accumulate" />
  <rect
     width="29"
     height="23"
     rx="1.5"
     ry="1.5"
     x="1.5"
     y="6.5"
     id="rect5505-1"
     style="color:#000000;clip-rule:nonzero;display:inline;overflow:visible;visibility:visible;opacity:0.5;isolation:auto;mix-blend-mode:normal;color-interpolation:sRGB;color-interpolation-filters:linearRGB;solid-color:#000000;solid-opacity:1;fill:#000000;fill-opacity:0;fill-rule:nonzero;stroke:#002e99;stroke-width:1;stroke-linecap:round;stroke-linejoin:round;stroke-miterlimit:4;stroke-dasharray:none;stroke-dashoffset:0;stroke-opacity:1;marker:none;color-rendering:auto;image-rendering:auto;shape-rendering:auto;text-rendering:auto;enable-background:accumulate" />
  <rect
     width="26.999998"
     height="21"
     rx="0.5"
     ry="0.5"
     x="2.5"
     y="7.5"
     id="rect6741-7"
     style="opacity:0.5;fill:none;stroke:url(#linearGradient3141);stroke-width:0.999999;stroke-linecap:round;stroke-linejoin:round;stroke-miterlimit:4;stroke-dasharray:none;stroke-dashoffset:0;stroke-opacity:1" />
</svg>
