<?xml version="1.0" encoding="UTF-8" standalone="no"?>
<svg
   version="1.1"
   width="24"
   height="24"
   id="svg7107"
   sodipodi:docname="application-x-tar.svg"
   inkscape:version="1.2.2 (b0a8486541, 2022-12-01)"
   xmlns:inkscape="http://www.inkscape.org/namespaces/inkscape"
   xmlns:sodipodi="http://sodipodi.sourceforge.net/DTD/sodipodi-0.dtd"
   xmlns:xlink="http://www.w3.org/1999/xlink"
   xmlns="http://www.w3.org/2000/svg"
   xmlns:svg="http://www.w3.org/2000/svg"
   xmlns:rdf="http://www.w3.org/1999/02/22-rdf-syntax-ns#"
   xmlns:cc="http://creativecommons.org/ns#"
   xmlns:dc="http://purl.org/dc/elements/1.1/">
  <sodipodi:namedview
     id="namedview24624"
     pagecolor="#ffffff"
     bordercolor="#000000"
     borderopacity="0.25"
     inkscape:showpageshadow="2"
     inkscape:pageopacity="0.0"
     inkscape:pagecheckerboard="0"
     inkscape:deskcolor="#d1d1d1"
     showgrid="false"
     inkscape:zoom="12.49222"
     inkscape:cx="6.1238115"
     inkscape:cy="16.490264"
     inkscape:window-width="1423"
     inkscape:window-height="1051"
     inkscape:window-x="903"
     inkscape:window-y="114"
     inkscape:window-maximized="0"
     inkscape:current-layer="svg7107" />
  <defs
     id="defs7109">
    <linearGradient
       id="linearGradient2671">
      <stop
         offset="0"
         stop-color="#fff"
         id="stop2663" />
      <stop
         offset="0.21609467"
         stop-color="#fff"
         id="stop2665" />
      <stop
         offset="0.36015779"
         stop-color="#fff"
         stop-opacity=".643"
         id="stop2667" />
      <stop
         offset="1"
         stop-color="#fff"
         stop-opacity=".391"
         id="stop2669" />
    </linearGradient>
    <linearGradient
       xlink:href="#linearGradient121303"
       id="linearGradient121764"
       gradientUnits="userSpaceOnUse"
       gradientTransform="matrix(0.46324744,0,0,0.39332388,0.88842124,4.2372046)"
       x1="25.086039"
       y1="-0.47852933"
       x2="25.086039"
       y2="18.299334" />
    <linearGradient
       id="linearGradient121303">
      <stop
         id="stop121295"
         style="stop-color:#ffffff;stop-opacity:1"
         offset="0" />
      <stop
         id="stop121297"
         style="stop-color:#ffffff;stop-opacity:0.23529412"
         offset="0.08609325" />
      <stop
         id="stop121299"
         style="stop-color:#ffffff;stop-opacity:0.15686275"
         offset="0.93896598" />
      <stop
         id="stop121301"
         style="stop-color:#ffffff;stop-opacity:0.39215687"
         offset="1" />
    </linearGradient>
    <linearGradient
       xlink:href="#linearGradient3924-2-2-5-8"
       id="linearGradient121760"
       gradientUnits="userSpaceOnUse"
       gradientTransform="matrix(0.45945951,0,0,0.37837833,0.97296934,4.4189186)"
       x1="23.99999"
       y1="6.8214302"
       x2="23.99999"
       y2="41.178577" />
    <linearGradient
       id="linearGradient3924-2-2-5-8">
      <stop
         id="stop3926-9-4-9-6"
         style="stop-color:#ffffff;stop-opacity:1"
         offset="0" />
      <stop
         id="stop3928-9-8-6-5"
         style="stop-color:#ffffff;stop-opacity:0.23529412"
         offset="0.07495743" />
      <stop
         id="stop3930-3-5-1-7"
         style="stop-color:#ffffff;stop-opacity:0.15686275"
         offset="0.92307693" />
      <stop
         id="stop3932-8-0-4-8"
         style="stop-color:#ffffff;stop-opacity:0.39215687"
         offset="1" />
    </linearGradient>
    <linearGradient
       xlink:href="#d"
       id="linearGradient121758"
       gradientUnits="userSpaceOnUse"
       gradientTransform="matrix(0.59060316,0,0,0.54106907,-1.884579,-1.44337)"
       x1="23.452"
       y1="30.555"
       x2="43.007"
       y2="45.933998" />
    <linearGradient
       id="d">
      <stop
         offset="0"
         stop-color="#fff"
         stop-opacity="0"
         id="stop65" />
      <stop
         offset="1"
         stop-color="#fff"
         stop-opacity="0"
         id="stop67" />
    </linearGradient>
    <linearGradient
       xlink:href="#linearGradient106305"
       id="linearGradient121756"
       gradientUnits="userSpaceOnUse"
       gradientTransform="matrix(0.59418207,0,0,0.62971369,20.177759,-6.0846012)"
       x1="-5.8870335"
       y1="19.72085"
       x2="-5.8870335"
       y2="43.375748" />
    <linearGradient
       id="linearGradient106305">
      <stop
         offset="0"
         stop-color="#dac197"
         id="stop106301"
         style="stop-color:#e7c591;stop-opacity:1" />
      <stop
         offset="1"
         stop-color="#b19974"
         id="stop106303"
         style="stop-color:#cfa25e;stop-opacity:1" />
    </linearGradient>
    <linearGradient
       xlink:href="#linearGradient106305"
       id="linearGradient1703"
       gradientUnits="userSpaceOnUse"
       gradientTransform="matrix(0.59418207,0,0,0.61617359,20.184777,-6.1580918)"
       x1="-5.8870335"
       y1="11.482978"
       x2="-5.8870335"
       y2="22.148865" />
    <radialGradient
       cx="5"
       cy="41.5"
       fx="5"
       fy="41.5"
       gradientTransform="matrix(1.0028871,0,0,1.6,-26.450086,-100.24811)"
       gradientUnits="userSpaceOnUse"
       xlink:href="#g"
       id="k-0-7-3-9-3"
       r="5" />
    <linearGradient
       id="g">
      <stop
         offset="0"
         id="stop13" />
      <stop
         offset="1"
         stop-opacity="0"
         id="stop15" />
    </linearGradient>
    <linearGradient
       xlink:href="#h"
       id="linearGradient121754"
       gradientUnits="userSpaceOnUse"
       gradientTransform="matrix(2.1304332,0,0,1.45455,-96.001966,-25.061894)"
       x1="17.554001"
       y1="46"
       x2="17.554001"
       y2="35" />
    <linearGradient
       id="h">
      <stop
         offset="0"
         stop-opacity="0"
         id="stop54" />
      <stop
         offset=".5"
         id="stop56" />
      <stop
         offset="1"
         stop-opacity="0"
         id="stop58" />
    </linearGradient>
    <radialGradient
       cx="5"
       cy="41.5"
       fx="5"
       fy="41.5"
       gradientTransform="matrix(1.0028871,0,0,1.6,65.421996,-100.24811)"
       gradientUnits="userSpaceOnUse"
       xlink:href="#g"
       id="i-6-9-7-8-9"
       r="5" />
    <linearGradient
       xlink:href="#linearGradient2671"
       id="linearGradient121762-6"
       gradientUnits="userSpaceOnUse"
       gradientTransform="matrix(0.49693557,0,0,0.57610552,0.079678,-3.6742869)"
       x1="24.537001"
       y1="21.915001"
       x2="24.537001"
       y2="7.9130001" />
  </defs>
  <metadata
     id="metadata7112">
    <rdf:RDF>
      <cc:Work
         rdf:about="">
        <dc:format>image/svg+xml</dc:format>
        <dc:type
           rdf:resource="http://purl.org/dc/dcmitype/StillImage" />
      </cc:Work>
    </rdf:RDF>
  </metadata>
  <g
     id="g2756"
     transform="matrix(0.37288137,0,0,0.40625,29.129042,6.4992068)"
     style="stroke-width:2.56931">
    <rect
       fill="url(#i)"
       height="16"
       opacity="0.4"
       transform="scale(-1)"
       width="5"
       x="70.436974"
       y="-41.848106"
       id="rect77-9-90-2-7-8"
       style="fill:url(#i-6-9-7-8-9);stroke-width:2.56931" />
    <rect
       fill="url(#j)"
       height="16"
       opacity="0.4"
       width="49"
       x="-70.436974"
       y="25.848106"
       id="rect79-7-2-0-1-4"
       style="fill:url(#linearGradient121754);stroke-width:2.56931" />
    <rect
       fill="url(#k)"
       height="16"
       opacity="0.4"
       transform="scale(1,-1)"
       width="5"
       x="-21.436975"
       y="-41.848106"
       id="rect81-3-8-6-7-8"
       style="fill:url(#k-0-7-3-9-3);stroke-width:2.56931" />
  </g>
  <path
     id="rect5505-21-1-5-0-6-5-1-2-5-10"
     style="color:#000000;font-variation-settings:normal;display:inline;overflow:visible;visibility:visible;vector-effect:none;fill:url(#linearGradient1703);fill-opacity:1;fill-rule:nonzero;stroke:none;stroke-width:1;stroke-linecap:butt;stroke-linejoin:miter;stroke-miterlimit:4;stroke-dasharray:none;stroke-dashoffset:0;stroke-opacity:0.3;-inkscape-stroke:none;marker:none;enable-background:accumulate;stop-color:#000000"
     d="m 5.954546,2.499999 c -1.148292,0 -1.606365,0.6541642 -2.072729,1.6666673 C 3.524347,4.9407062 3.108431,5.7415735 2.777983,6.4999992 2.602235,6.7940451 2.499999,7.1348294 2.499999,7.499999 h 19.000008 c 0,-0.3651696 -0.102238,-0.7059539 -0.277985,-0.9999998 C 20.882617,5.7454148 20.485651,4.936366 20.118188,4.1666663 19.637695,3.1603309 19.193751,2.499999 18.04546,2.499999 Z" />
  <path
     id="rect5505-21-1-5-0-6-5-1-2-3"
     style="color:#000000;font-variation-settings:normal;display:inline;overflow:visible;visibility:visible;vector-effect:none;fill:url(#linearGradient121756);fill-opacity:1;fill-rule:nonzero;stroke:none;stroke-width:0.999994;stroke-linecap:butt;stroke-linejoin:miter;stroke-miterlimit:4;stroke-dasharray:none;stroke-dashoffset:0;stroke-opacity:0.3;-inkscape-stroke:none;marker:none;enable-background:accumulate;stop-color:#000000"
     d="M 4.572728,6 C 3.709091,6 2.5,6.7423074 2.5,8.5549362 V 19.455998 c 0,0.08585 0.0071,0.169901 0.01755,0.252833 0.0024,0.01923 0.0058,0.03815 0.0088,0.05722 0.01043,0.06698 0.02363,0.132987 0.04048,0.197609 0.0043,0.01667 0.0081,0.0334 0.01282,0.0499 0.04732,0.163983 0.11389,0.319965 0.198367,0.464412 2.48e-4,4.44e-4 3.45e-4,8.86e-4 6.91e-4,0.0014 C 3.13637,21.089938 3.80345,21.5 4.572754,21.5 h 14.854552 c 0.769303,0 1.436383,-0.410062 1.79407,-1.020643 1.94e-4,-4.44e-4 3.46e-4,-8.87e-4 6.91e-4,-0.0014 0.08448,-0.144448 0.15105,-0.30043 0.198367,-0.464413 0.0047,-0.01651 0.0085,-0.03322 0.01281,-0.0499 0.01686,-0.06462 0.03006,-0.130628 0.04048,-0.197609 0.0028,-0.01906 0.0064,-0.03798 0.0088,-0.05722 0.01046,-0.08293 0.01752,-0.166987 0.01752,-0.252835 V 8.7252651 C 21.500044,7.4492734 20.981862,6 19.427316,6 Z" />
  <path
     d="m 5.493643,5.381094 h 12.736915 c 0.743763,0 1.20391,0.256328 1.515509,0.961056 l 1.072637,2.9570964 V 19.959646 c 0,0.672601 -0.377237,1.011492 -1.120655,1.011492 H 4.160188 c -0.743419,0 -1.046728,-0.372746 -1.046728,-1.045347 V 9.2985555 L 4.151551,6.278241 C 4.358824,5.732422 4.750225,5.380749 5.493643,5.380749 Z"
     display="block"
     fill="none"
     opacity="0.505"
     overflow="visible"
     stroke="url(#m)"
     stroke-width="0.742"
     style="stroke:url(#linearGradient121758);marker:none"
     id="path85-1-8-5-7-0" />
  <rect
     style="opacity:0.3;fill:none;stroke:url(#linearGradient121760);stroke-width:1;stroke-linecap:round;stroke-linejoin:round;stroke-miterlimit:4;stroke-dasharray:none;stroke-dashoffset:0;stroke-opacity:1"
     id="rect6741-5-0-2-3-4-2-4"
     y="6.4999986"
     x="3.4999986"
     ry="1"
     height="14"
     width="17"
     rx="1" />
  <path
     id="rect5505-21-1-5-0-6-5-1-2-5-1-4"
     style="color:#000000;font-variation-settings:normal;display:inline;overflow:visible;visibility:visible;vector-effect:none;fill:none;fill-opacity:1;fill-rule:nonzero;stroke:#804b00;stroke-width:0.999997;stroke-linecap:butt;stroke-linejoin:miter;stroke-miterlimit:4;stroke-dasharray:none;stroke-dashoffset:0;stroke-opacity:0.5;-inkscape-stroke:none;marker:none;enable-background:accumulate;stop-color:#000000"
     d="m 5.954546,2.499999 c -1.148292,0 -1.606365,0.677953 -2.072729,1.727276 C 3.524347,5.029463 3.108431,5.859454 2.777983,6.64546 2.602235,6.950199 2.499999,7.303376 2.499999,7.681825 v 11.745474 c 0,1.148293 0.924436,2.072731 2.072728,2.072731 h 14.854552 c 1.14829,0 2.072728,-0.924438 2.072728,-2.072731 V 7.681825 c 0,-0.378449 -0.102238,-0.731626 -0.277985,-1.036365 C 20.882617,5.863435 20.485651,5.024965 20.118188,4.227275 19.637695,3.184344 19.193751,2.499999 18.04546,2.499999 Z" />
  <path
     id="rect5505-21-1-5-0-6-5-1-2-5-1-7-7"
     style="color:#000000;font-variation-settings:normal;display:inline;overflow:visible;visibility:visible;opacity:0.15;vector-effect:none;fill:none;fill-opacity:1;fill-rule:nonzero;stroke:url(#linearGradient121764);stroke-width:0.999994;stroke-linecap:round;stroke-linejoin:round;stroke-miterlimit:4;stroke-dasharray:none;stroke-dashoffset:0;stroke-opacity:1;-inkscape-stroke:none;marker:none;enable-background:accumulate;stop-color:#000000"
     d="M 20.132782,6.733994 19.297362,4.9230806 C 19.077192,4.4451762 18.921714,3.9706724 18.683129,3.7420464 18.444541,3.5134196 18.130819,3.4999985 17.65953,3.4999985 H 6.3405586 c -0.4719103,0 -0.7829126,0.010941 -1.0223184,0.2384658 C 5.0788345,3.9659912 4.9172751,4.4401584 4.7046143,4.918661 v 6.458e-4 L 3.8605301,6.733994" />
  <path
     d="m 11.177906,2.0000005 h 1.656452 L 12.987745,6 l 0.01226,3.0000005 c -0.195461,0 -0.391254,-0.4440268 -0.587047,-0.4440268 -0.200099,0 -0.40053,0.4440268 -0.60096,0.4440268 -0.161007,0 -0.322346,-0.3888417 -0.483684,-0.3888417 -0.105351,0 -0.210701,0.3888417 -0.316051,0.3888417 L 11.000003,6 Z"
     fill="url(#n)"
     opacity="0.3"
     overflow="visible"
     style="fill:url(#linearGradient121762-6);stroke-width:0.999997;marker:none"
     id="path87-0-9-7-6-4" />
  <path
     style="font-style:normal;font-variant:normal;font-weight:bold;font-stretch:normal;font-size:12px;line-height:100%;font-family:'URW Gothic L';-inkscape-font-specification:'URW Gothic L Semi-Bold';text-align:start;writing-mode:lr-tb;text-anchor:start;display:inline;opacity:0.5;fill:#000000;fill-opacity:1;stroke:none;stroke-width:0.999998px;stroke-linecap:butt;stroke-linejoin:miter;stroke-opacity:1"
     d="m 5.2750764,18.812042 c 0.528643,0 1.0572861,0 1.5859292,0 0,-1.72107 0,-3.442142 0,-5.163212 0.3179809,0 0.6359615,0 0.9539423,0 0,-0.480946 0,-0.961892 0,-1.442838 -0.3179808,0 -0.6359614,0 -0.9539423,0 0,-0.735331 0,-1.470661 0,-2.2059923 -0.5286431,0 -1.0572862,0 -1.5859292,0 0,0.7353313 0,1.4706613 0,2.2059923 -0.2583594,0 -0.5167188,0 -0.7750782,0 0,0.480946 0,0.961892 0,1.442838 0.2583593,0 0.5167188,0 0.7750782,0 0,1.72107 0,3.442142 0,5.163212 z m 10.0376356,-6.60605 c -0.48492,0 -0.969841,0 -1.454762,0 0,0.294133 0,0.588265 0,0.882397 -0.617409,-0.924731 -1.828089,-1.191629 -2.864249,-0.970455 -1.4233452,0.237775 -2.5169643,1.533363 -2.6313382,2.9531 -0.1972364,1.43657 0.5138789,3.028491 1.8918412,3.607379 1.138259,0.500391 2.635939,0.393198 3.485176,-0.595633 0.222313,-0.294277 0.07718,0.353813 0.11857,0.52425 -0.101539,0.336462 0.305512,0.164339 0.499764,0.205012 0.318332,0 0.636665,0 0.954998,0 0,-2.202016 0,-4.404033 0,-6.60605 z m -3.446117,1.299745 c 1.013596,-0.04852 1.899805,0.829493 1.934276,1.829473 0.104143,0.938556 -0.474107,2.005674 -1.4737,2.137587 -0.949731,0.21453 -2.071279,-0.304006 -2.310956,-1.295279 -0.3126732,-1.037606 0.22415,-2.360834 1.345605,-2.610854 0.164816,-0.04148 0.334905,-0.06096 0.504775,-0.06092 z m 4.628483,5.306305 c 0.528644,0 1.057287,0 1.585929,0 0.0128,-1.344183 -0.02671,-2.690532 0.02185,-4.033247 0.02554,-0.723126 0.696967,-1.245459 1.397145,-1.201511 0,-0.508771 0,-1.017539 -10e-7,-1.526309 -0.628941,-0.07252 -1.244661,0.242255 -1.550155,0.798927 -0.04635,-0.193924 0.09593,-0.576455 -0.07689,-0.64391 -0.459293,0 -0.918585,0 -1.377877,0 0,2.202017 0,4.404034 -1e-6,6.60605 z"
     id="text3329" />
</svg>
