<?xml version="1.0" encoding="UTF-8" standalone="no"?>
<svg
   version="1.1"
   width="48"
   height="48"
   id="svg9767"
   sodipodi:docname="emblem-videos.svg"
   inkscape:version="1.2.2 (b0a8486541, 2022-12-01)"
   xmlns:inkscape="http://www.inkscape.org/namespaces/inkscape"
   xmlns:sodipodi="http://sodipodi.sourceforge.net/DTD/sodipodi-0.dtd"
   xmlns:xlink="http://www.w3.org/1999/xlink"
   xmlns="http://www.w3.org/2000/svg"
   xmlns:svg="http://www.w3.org/2000/svg"
   xmlns:rdf="http://www.w3.org/1999/02/22-rdf-syntax-ns#"
   xmlns:cc="http://creativecommons.org/ns#"
   xmlns:dc="http://purl.org/dc/elements/1.1/">
  <sodipodi:namedview
     id="namedview21"
     pagecolor="#ffffff"
     bordercolor="#666666"
     borderopacity="1.0"
     inkscape:showpageshadow="2"
     inkscape:pageopacity="0.0"
     inkscape:pagecheckerboard="0"
     inkscape:deskcolor="#d1d1d1"
     showgrid="false"
     inkscape:zoom="5.6568543"
     inkscape:cx="21.566757"
     inkscape:cy="12.993087"
     inkscape:window-width="1326"
     inkscape:window-height="631"
     inkscape:window-x="1154"
     inkscape:window-y="418"
     inkscape:window-maximized="0"
     inkscape:current-layer="svg9767" />
  <defs
     id="defs9769">
    <linearGradient
       inkscape:collect="always"
       id="linearGradient28477">
      <stop
         style="stop-color:#273445;stop-opacity:0.40000001;"
         offset="0"
         id="stop28473" />
      <stop
         style="stop-color:#273445;stop-opacity:0.40000001;"
         offset="1"
         id="stop28475" />
    </linearGradient>
    <linearGradient
       x1="23.99999"
       y1="6.0441375"
       x2="23.99999"
       y2="41.955894"
       id="linearGradient7191"
       xlink:href="#linearGradient3924-4-8"
       gradientUnits="userSpaceOnUse"
       gradientTransform="matrix(0.45946106,0,0,0.91891916,12.972957,2.4459264)" />
    <linearGradient
       id="linearGradient3924-4-8">
      <stop
         id="stop3926-0-4"
         style="stop-color:#ffffff;stop-opacity:1"
         offset="0" />
      <stop
         id="stop3928-6-8"
         style="stop-color:#ffffff;stop-opacity:0.23529412"
         offset="0.00510271" />
      <stop
         id="stop3930-2-1"
         style="stop-color:#ffffff;stop-opacity:0.15686275"
         offset="1" />
      <stop
         id="stop3932-9-0"
         style="stop-color:#ffffff;stop-opacity:0.39215687"
         offset="1" />
    </linearGradient>
    <linearGradient
       id="linearGradient895">
      <stop
         offset="0"
         style="stop-color:#8cd5ff;stop-opacity:1"
         id="stop891" />
      <stop
         offset="1"
         style="stop-color:#64baff;stop-opacity:1"
         id="stop893" />
    </linearGradient>
    <linearGradient
       gradientUnits="userSpaceOnUse"
       y2="32.439423"
       x2="12"
       y1="5.369091"
       x1="12"
       id="linearGradient889"
       xlink:href="#linearGradient895"
       gradientTransform="matrix(1.4615383,0,0,1.8000001,6.4615115,-10.599945)" />
    <linearGradient
       inkscape:collect="always"
       xlink:href="#linearGradient28477"
       id="linearGradient5665"
       gradientUnits="userSpaceOnUse"
       gradientTransform="matrix(1.5,0,0,1.5,-0.25,0.25)"
       x1="16.829401"
       y1="4.1729145"
       x2="16.829401"
       y2="27.995064" />
  </defs>
  <metadata
     id="metadata9772">
    <rdf:RDF>
      <cc:Work
         rdf:about="">
        <dc:format>image/svg+xml</dc:format>
        <dc:type
           rdf:resource="http://purl.org/dc/dcmitype/StillImage" />
      </cc:Work>
    </rdf:RDF>
  </metadata>
  <path
     id="path28450"
     style="color:#000000;font-style:normal;font-variant:normal;font-weight:normal;font-stretch:normal;font-size:medium;line-height:normal;font-family:sans-serif;text-indent:0;text-align:start;text-decoration:none;text-decoration-line:none;text-decoration-style:solid;text-decoration-color:#000000;letter-spacing:normal;word-spacing:normal;text-transform:none;writing-mode:lr-tb;direction:ltr;baseline-shift:baseline;text-anchor:start;white-space:normal;clip-rule:nonzero;display:inline;overflow:visible;visibility:visible;opacity:1;isolation:auto;mix-blend-mode:normal;color-interpolation:sRGB;color-interpolation-filters:linearRGB;solid-color:#000000;solid-opacity:1;fill:#000000;fill-opacity:0.5;fill-rule:nonzero;stroke:none;stroke-width:1;stroke-linecap:round;stroke-linejoin:round;stroke-miterlimit:4;stroke-dasharray:none;stroke-dashoffset:0;stroke-opacity:1;marker:none;color-rendering:auto;image-rendering:auto;shape-rendering:auto;text-rendering:auto;enable-background:accumulate"
     d="M 11,5 C 9.3380034,5 8,6.3380034 8,8 v 33 c 0,1.661996 1.3380034,3 3,3 h 26 c 1.564754,0 2.842186,-1.1871 2.986328,-2.712891 C 39.957884,37.30699 39.816886,16.74469 39.955078,7.5 39.71759,6.0785854 38.490897,5 37,5 Z m -1,3 h 3 v 3 h -3 z m 6.5,-1 h 15 C 32.330996,7 33,7.6690026 33,8.5 v 14 c 0,0.830996 -0.669004,1.5 -1.5,1.5 h -15 C 15.669004,24 15,23.330996 15,22.5 V 8.5 C 15,7.6690026 15.669004,7 16.5,7 Z M 35,8 h 3 v 3 h -3 z m -25,6 h 3 v 3 h -3 z m 25,0 h 3 v 3 h -3 z m -25,6 h 3 v 3 h -3 z m 25,0 h 3 v 3 h -3 z m -18.5,5 h 15 c 0.830997,0 1.5,0.669001 1.5,1.5 v 14 c 0,0.830997 -0.669003,1.5 -1.5,1.5 h -15 C 15.669003,42 15,41.330997 15,40.5 v -14 C 15,25.669001 15.669003,25 16.5,25 Z M 10,26 h 3 v 3 h -3 z m 25,0 h 3 v 3 h -3 z m -25,6 h 3 v 3 h -3 z m 25,0 h 3 v 3 h -3 z m -25,6 h 3 v 3 h -3 z m 25,0 h 3 v 3 h -3 z"
     sodipodi:nodetypes="sssssccsscccccssssssssscccccccccccccccccccccccccssssssssscccccccccccccccccccccccccccccc" />
  <rect
     style="display:inline;opacity:1;fill:url(#linearGradient889);fill-opacity:1;stroke:none;stroke-width:0.999996;stroke-linecap:butt;stroke-linejoin:miter;stroke-miterlimit:4;stroke-dasharray:none;stroke-dashoffset:0;stroke-opacity:0.831373"
     id="rect3457-8"
     y="6.5"
     x="14.5"
     ry="2"
     rx="2"
     height="36"
     width="19" />
  <rect
     style="opacity:0.3;fill:none;stroke:url(#linearGradient7191);stroke-width:0.999999;stroke-linecap:round;stroke-linejoin:miter;stroke-miterlimit:4;stroke-dasharray:none;stroke-dashoffset:0;stroke-opacity:1"
     id="rect6741-0-3"
     y="7.4999995"
     x="15.499997"
     height="34.000004"
     width="17.000059"
     rx="1"
     ry="1" />
  <path
     id="path5663"
     style="color:#000000;font-style:normal;font-variant:normal;font-weight:normal;font-stretch:normal;font-size:medium;line-height:normal;font-family:sans-serif;text-indent:0;text-align:start;text-decoration:none;text-decoration-line:none;text-decoration-style:solid;text-decoration-color:#000000;letter-spacing:normal;word-spacing:normal;text-transform:none;writing-mode:lr-tb;direction:ltr;baseline-shift:baseline;text-anchor:start;white-space:normal;clip-rule:nonzero;display:inline;overflow:visible;visibility:visible;isolation:auto;mix-blend-mode:normal;color-interpolation:sRGB;color-interpolation-filters:linearRGB;solid-color:#000000;solid-opacity:1;fill:url(#linearGradient5665);fill-opacity:1;fill-rule:nonzero;stroke:none;stroke-width:1;stroke-linecap:round;stroke-linejoin:round;stroke-miterlimit:4;stroke-dasharray:none;stroke-dashoffset:0;stroke-opacity:1;marker:none;color-rendering:auto;image-rendering:auto;shape-rendering:auto;text-rendering:auto;enable-background:accumulate"
     d="m 11.5,5.5 c -1.661997,0 -3,1.338003 -3,3 v 32 c 0,1.661996 1.338003,3 3,3 h 25 c 1.661996,0 3,-1.338004 3,-3 v -32 c 0,-1.661997 -1.338004,-3 -3,-3 z M 10,8 h 3 v 3 h -3 z m 6.5,-1 h 15 C 32.330995,7 33,7.669003 33,8.5 v 14 c 0,0.830995 -0.669005,1.5 -1.5,1.5 h -15 C 15.669005,24 15,23.330995 15,22.5 V 8.5 C 15,7.669003 15.669005,7 16.5,7 Z M 35,8 h 3 v 3 h -3 z m -25,6 h 3 v 3 h -3 z m 25,0 h 3 v 3 h -3 z m -25,6 h 3 v 3 h -3 z m 25,0 h 3 v 3 h -3 z m -18.5,5 h 15 c 0.830996,0 1.5,0.669002 1.5,1.5 v 14 c 0,0.830996 -0.669004,1.5 -1.5,1.5 h -15 C 15.669004,42 15,41.330996 15,40.5 v -14 C 15,25.669002 15.669004,25 16.5,25 Z M 10,26 h 3 v 3 h -3 z m 25,0 h 3 v 3 h -3 z m -25,6 h 3 v 3 h -3 z m 25,0 h 3 v 3 h -3 z m -25,6 h 3 v 3 h -3 z m 25,0 h 3 v 3 h -3 z"
     sodipodi:nodetypes="ssssssssscccccssssssssscccccccccccccccccccccccccssssssssscccccccccccccccccccccccccccccc" />
  <path
     id="path4249"
     d="M 9.9999999,8 H 13 v 3 H 9.9999999 Z M 35,8 h 3 v 3 H 35 Z M 9.9999999,14 H 13 v 3 H 9.9999999 Z M 35,14 h 3 v 3 H 35 Z M 9.9999999,20 H 13 v 3 H 9.9999999 Z M 35,20 h 3 v 3 H 35 Z M 9.9999999,26 H 13 v 3 H 9.9999999 Z M 35,26 h 3 v 3 H 35 Z M 9.9999999,32 H 13 v 3 H 9.9999999 Z M 35,32 h 3 v 3 H 35 Z M 9.9999999,38 H 13 v 3 H 9.9999999 Z M 35,38 h 3 v 3 h -3 z"
     style="color:#000000;font-style:normal;font-variant:normal;font-weight:normal;font-stretch:normal;font-size:medium;line-height:normal;font-family:sans-serif;text-indent:0;text-align:start;text-decoration:none;text-decoration-line:none;text-decoration-style:solid;text-decoration-color:#000000;letter-spacing:normal;word-spacing:normal;text-transform:none;writing-mode:lr-tb;direction:ltr;baseline-shift:baseline;text-anchor:start;white-space:normal;clip-rule:nonzero;display:inline;overflow:visible;visibility:visible;opacity:0.1;isolation:auto;mix-blend-mode:normal;color-interpolation:sRGB;color-interpolation-filters:linearRGB;solid-color:#000000;solid-opacity:1;fill:#ffffff;fill-opacity:1;fill-rule:nonzero;stroke:none;stroke-width:1;stroke-linecap:round;stroke-linejoin:round;stroke-miterlimit:4;stroke-dasharray:none;stroke-dashoffset:0;stroke-opacity:1;marker:none;color-rendering:auto;image-rendering:auto;shape-rendering:auto;text-rendering:auto;enable-background:accumulate"
     sodipodi:nodetypes="cccccccccccccccccccccccccccccccccccccccccccccccccccccccccccc" />
  <rect
     style="opacity:1;fill:#ffffff;fill-opacity:0.5;fill-rule:evenodd;stroke:none;stroke-width:1.99999;stroke-linejoin:round;stop-color:#000000"
     id="rect30060"
     width="3"
     height="3"
     x="10"
     y="8" />
  <rect
     style="opacity:1;fill:#ffffff;fill-opacity:0.5;fill-rule:evenodd;stroke:none;stroke-width:1.99999;stroke-linejoin:round;stop-color:#000000"
     id="rect30426"
     width="3"
     height="3"
     x="10"
     y="14" />
  <rect
     style="opacity:1;fill:#ffffff;fill-opacity:0.5;fill-rule:evenodd;stroke:none;stroke-width:1.99999;stroke-linejoin:round;stop-color:#000000"
     id="rect30428"
     width="3"
     height="3"
     x="10"
     y="20.000002" />
  <rect
     style="opacity:1;fill:#ffffff;fill-opacity:0.5;fill-rule:evenodd;stroke:none;stroke-width:1.99999;stroke-linejoin:round;stop-color:#000000"
     id="rect30430"
     width="3"
     height="3"
     x="10"
     y="26" />
  <rect
     style="opacity:1;fill:#ffffff;fill-opacity:0.5;fill-rule:evenodd;stroke:none;stroke-width:1.99999;stroke-linejoin:round;stop-color:#000000"
     id="rect30432"
     width="3"
     height="3"
     x="10"
     y="32" />
  <rect
     style="opacity:1;fill:#ffffff;fill-opacity:0.5;fill-rule:evenodd;stroke:none;stroke-width:1.99999;stroke-linejoin:round;stop-color:#000000"
     id="rect30434"
     width="3"
     height="3"
     x="10"
     y="37.999996" />
  <rect
     style="opacity:1;fill:#ffffff;fill-opacity:0.5;fill-rule:evenodd;stroke:none;stroke-width:1.99999;stroke-linejoin:round;stop-color:#000000"
     id="rect30436"
     width="3"
     height="3"
     x="35"
     y="8" />
  <rect
     style="opacity:1;fill:#ffffff;fill-opacity:0.5;fill-rule:evenodd;stroke:none;stroke-width:1.99999;stroke-linejoin:round;stop-color:#000000"
     id="rect30438"
     width="3"
     height="3"
     x="35"
     y="14" />
  <rect
     style="opacity:1;fill:#ffffff;fill-opacity:0.5;fill-rule:evenodd;stroke:none;stroke-width:1.99999;stroke-linejoin:round;stop-color:#000000"
     id="rect30440"
     width="3"
     height="3"
     x="35"
     y="20.000002" />
  <rect
     style="opacity:1;fill:#ffffff;fill-opacity:0.5;fill-rule:evenodd;stroke:none;stroke-width:1.99999;stroke-linejoin:round;stop-color:#000000"
     id="rect30442"
     width="3"
     height="3"
     x="35"
     y="26" />
  <rect
     style="opacity:1;fill:#ffffff;fill-opacity:0.5;fill-rule:evenodd;stroke:none;stroke-width:1.99999;stroke-linejoin:round;stop-color:#000000"
     id="rect30444"
     width="3"
     height="3"
     x="35"
     y="32" />
  <rect
     style="opacity:1;fill:#ffffff;fill-opacity:0.5;fill-rule:evenodd;stroke:none;stroke-width:1.99999;stroke-linejoin:round;stop-color:#000000"
     id="rect30446"
     width="3"
     height="3"
     x="35"
     y="37.999996" />
  <path
     style="display:block;overflow:visible;visibility:visible;fill:none;stroke:#000000;stroke-width:0.999993;stroke-linecap:square;stroke-linejoin:round;stroke-miterlimit:4;stroke-dasharray:none;stroke-dashoffset:0;stroke-opacity:0.588235;marker:none"
     id="path4320"
     d="m 15.499997,24.499997 c 5.666763,0 11.333526,0 17.000311,0" />
  <path
     style="display:block;overflow:visible;visibility:visible;opacity:0.2;fill:none;stroke:#ffffff;stroke-width:0.999993;stroke-linecap:square;stroke-linejoin:round;stroke-miterlimit:4;stroke-dasharray:none;stroke-dashoffset:0;stroke-opacity:1;marker:none"
     id="path4820"
     d="m 15.499997,25.5 c 5.666769,0 11.333565,0 17.000311,0" />
</svg>
