<?xml version="1.0" encoding="UTF-8" standalone="no"?>
<svg
   id="svg3810"
   height="16"
   width="16"
   version="1.1"
   sodipodi:docname="edit-delete.svg"
   inkscape:version="1.2.2 (b0a8486541, 2022-12-01)"
   xmlns:inkscape="http://www.inkscape.org/namespaces/inkscape"
   xmlns:sodipodi="http://sodipodi.sourceforge.net/DTD/sodipodi-0.dtd"
   xmlns:xlink="http://www.w3.org/1999/xlink"
   xmlns="http://www.w3.org/2000/svg"
   xmlns:svg="http://www.w3.org/2000/svg"
   xmlns:rdf="http://www.w3.org/1999/02/22-rdf-syntax-ns#"
   xmlns:cc="http://creativecommons.org/ns#"
   xmlns:dc="http://purl.org/dc/elements/1.1/">
  <sodipodi:namedview
     id="namedview24"
     pagecolor="#ffffff"
     bordercolor="#666666"
     borderopacity="1.0"
     inkscape:pageshadow="2"
     inkscape:pageopacity="0.0"
     inkscape:pagecheckerboard="0"
     showgrid="false"
     inkscape:zoom="22.125"
     inkscape:cx="7.9774011"
     inkscape:cy="10.915254"
     inkscape:window-width="1396"
     inkscape:window-height="896"
     inkscape:window-x="460"
     inkscape:window-y="331"
     inkscape:window-maximized="0"
     inkscape:current-layer="svg3810"
     inkscape:showpageshadow="2"
     inkscape:deskcolor="#d1d1d1" />
  <defs
     id="defs3812">
    <linearGradient
       gradientTransform="matrix(0.24324324,0,0,0.35135133,2.1621636,-0.43242804)"
       gradientUnits="userSpaceOnUse"
       xlink:href="#linearGradient3977"
       id="linearGradient3988"
       y2="41.076912"
       x2="23.99999"
       y1="6.9230647"
       x1="23.99999" />
    <linearGradient
       id="linearGradient3977">
      <stop
         offset="0"
         style="stop-color:#ffffff;stop-opacity:1"
         id="stop3979" />
      <stop
         offset="0"
         style="stop-color:#ffffff;stop-opacity:0.23529412"
         id="stop3981" />
      <stop
         offset="1"
         style="stop-color:#ffffff;stop-opacity:0.15686275"
         id="stop3983" />
      <stop
         offset="1"
         style="stop-color:#ffffff;stop-opacity:0.39215687"
         id="stop3985" />
    </linearGradient>
    <linearGradient
       id="linearGradient3600">
      <stop
         offset="0"
         style="stop-color:#f4f4f4;stop-opacity:1"
         id="stop3602" />
      <stop
         offset="1"
         style="stop-color:#dbdbdb;stop-opacity:1"
         id="stop3604" />
    </linearGradient>
    <linearGradient
       gradientTransform="matrix(0.28571361,0,0,0.30419701,1.1428727,0.2326048)"
       gradientUnits="userSpaceOnUse"
       xlink:href="#linearGradient3600"
       id="linearGradient3806"
       y2="47.013336"
       x2="25.132275"
       y1="0.98520643"
       x1="25.132275" />
    <linearGradient
       id="linearGradient3104-9">
      <stop
         offset="0"
         style="stop-color:#000000;stop-opacity:0.33950618"
         id="stop3106-5" />
      <stop
         offset="1"
         style="stop-color:#000000;stop-opacity:0.24691358"
         id="stop3108-5" />
    </linearGradient>
    <linearGradient
       gradientTransform="matrix(0.25378586,0,0,0.30501865,19.128979,-0.68547704)"
       gradientUnits="userSpaceOnUse"
       xlink:href="#linearGradient3104-9"
       id="linearGradient3019"
       y2="2.9062471"
       x2="-51.786404"
       y1="50.786446"
       x1="-51.786404" />
    <linearGradient
       xlink:href="#linearGradient947"
       id="linearGradient1054"
       gradientUnits="userSpaceOnUse"
       gradientTransform="matrix(0,-1,-1,0,-2.7715087,19.51972)"
       x1="13.445079"
       y1="-8.8364296"
       x2="9.542304"
       y2="-8.8364296" />
    <linearGradient
       id="linearGradient947">
      <stop
         offset="0"
         style="stop-color:#ed5353;stop-opacity:1"
         id="stop943" />
      <stop
         offset="1"
         style="stop-color:#c6262e;stop-opacity:1"
         id="stop945" />
    </linearGradient>
    <linearGradient
       gradientTransform="matrix(0.31772733,0,0,0.13938333,-0.61723745,4.7764592)"
       gradientUnits="userSpaceOnUse"
       xlink:href="#linearGradient4333"
       id="linearGradient3030-1"
       y2="23.137005"
       x2="24.138529"
       y1="22.844936"
       x1="24.138529" />
    <linearGradient
       id="linearGradient4333">
      <stop
         id="stop4335"
         style="stop-color:#ffffff;stop-opacity:1"
         offset="0" />
      <stop
         id="stop4337"
         style="stop-color:#ffffff;stop-opacity:0.23529412"
         offset="0.99999797" />
      <stop
         id="stop4339"
         style="stop-color:#ffffff;stop-opacity:0.15686275"
         offset="1" />
      <stop
         id="stop4341"
         style="stop-color:#ffffff;stop-opacity:0.39215687"
         offset="1" />
    </linearGradient>
  </defs>
  <metadata
     id="metadata3815">
    <rdf:RDF>
      <cc:Work
         rdf:about="">
        <dc:format>image/svg+xml</dc:format>
        <dc:type
           rdf:resource="http://purl.org/dc/dcmitype/StillImage" />
      </cc:Work>
    </rdf:RDF>
  </metadata>
  <path
     id="rect1095"
     style="opacity:0.8;fill:#ff362f;fill-opacity:1;stroke:#ff241d;stroke-width:0.795237;stroke-miterlimit:4;stroke-dasharray:none;stroke-opacity:1"
     d="m 4.0403954,5.3619879 c 0,0 0.3882018,1.9052687 1.1070015,1.7977417 C 6.327733,6.9831622 6.192681,5.7620685 6.534269,4.9754752 7.082752,3.7124588 7.560336,0.99198624 7.560336,0.99198624 c 0,0 1.698374,2.34544266 2.532587,3.52789846 0.495939,0.7029716 0.589171,2.0187262 1.469913,2.1203516 0.612767,0.070707 1.360672,-1.200201 1.360672,-1.200201 0,0 2.033826,6.8515107 -0.256838,8.8113297 C 10.209307,16.353799 4.8586749,15.93827 2.8057305,13.471249 1.026668,11.333351 4.0403954,5.3619879 4.0403954,5.3619879 Z"
     sodipodi:nodetypes="csacaacaac" />
  <path
     id="path6235"
     style="opacity:0.8;fill:#ff6b66;fill-opacity:1;stroke:none;stroke-width:0.795237;stroke-miterlimit:4;stroke-dasharray:none;stroke-opacity:1"
     d="m 4.0403954,5.3619879 c 0,0 0.3882018,1.9052687 1.1070015,1.7977417 C 6.327733,6.9831622 6.192681,5.7620685 6.534269,4.9754752 7.082752,3.7124588 7.560336,0.99198624 7.560336,0.99198624 c 0,0 1.698374,2.34544266 2.532587,3.52789846 0.495939,0.7029716 0.589171,2.0187262 1.469913,2.1203516 0.612767,0.070707 1.360672,-1.200201 1.360672,-1.200201 0,0 2.033826,6.8515107 -0.256838,8.8113297 C 10.209307,16.353799 4.8586749,15.93827 2.8057305,13.471249 1.026668,11.333351 4.0403954,5.3619879 4.0403954,5.3619879 Z"
     sodipodi:nodetypes="csacaacaac" />
  <path
     id="path3852"
     style="opacity:1;fill:#ffcb6b;fill-opacity:1;stroke-width:0.787942"
     d="m 5.6447749,7.6027206 c 0,0 0.7874611,1.852717 1.5689501,1.715238 1.145204,-0.20146 1.211924,-3.131178 1.211924,-3.131178 0,0 0.773725,0.912189 1.171372,1.987595 0.259295,0.701245 -0.113093,1.713133 0.531744,1.794021 0.731355,0.09172 1.132135,-1.817096 1.132135,-1.817096 0,0 1.123145,4.7940694 -0.508196,6.1192834 C 9.332216,15.424512 6.391786,15.182653 5.1788157,13.829626 3.7621309,12.249362 5.6447749,7.6027206 5.6447749,7.6027206 Z"
     sodipodi:nodetypes="cacsacaac" />
</svg>
