<?xml version="1.0" encoding="UTF-8" standalone="no"?>
<svg
   version="1.1"
   width="96"
   height="96"
   id="svg6649"
   sodipodi:docname="folder-documents-open.svg"
   inkscape:version="1.2.2 (b0a8486541, 2022-12-01)"
   xmlns:inkscape="http://www.inkscape.org/namespaces/inkscape"
   xmlns:sodipodi="http://sodipodi.sourceforge.net/DTD/sodipodi-0.dtd"
   xmlns:xlink="http://www.w3.org/1999/xlink"
   xmlns="http://www.w3.org/2000/svg"
   xmlns:svg="http://www.w3.org/2000/svg"
   xmlns:rdf="http://www.w3.org/1999/02/22-rdf-syntax-ns#"
   xmlns:cc="http://creativecommons.org/ns#"
   xmlns:dc="http://purl.org/dc/elements/1.1/">
  <sodipodi:namedview
     id="namedview61"
     pagecolor="#ffffff"
     bordercolor="#000000"
     borderopacity="0.25"
     inkscape:showpageshadow="2"
     inkscape:pageopacity="0.0"
     inkscape:pagecheckerboard="0"
     inkscape:deskcolor="#d1d1d1"
     showgrid="false"
     inkscape:zoom="4"
     inkscape:cx="13.625"
     inkscape:cy="41.5"
     inkscape:window-width="1278"
     inkscape:window-height="909"
     inkscape:window-x="638"
     inkscape:window-y="79"
     inkscape:window-maximized="0"
     inkscape:current-layer="svg6649" />
  <defs
     id="defs6651">
    <linearGradient
       id="linearGradient2511">
      <stop
         id="stop2503"
         style="stop-color:#ffffff;stop-opacity:1"
         offset="0" />
      <stop
         id="stop2505"
         style="stop-color:#ffffff;stop-opacity:0.23529412"
         offset="0.08629532" />
      <stop
         id="stop2507"
         style="stop-color:#ffffff;stop-opacity:0.15686275"
         offset="0.93042839" />
      <stop
         id="stop2509"
         style="stop-color:#ffffff;stop-opacity:0.39215687"
         offset="1" />
    </linearGradient>
    <linearGradient
       id="linearGradient2392">
      <stop
         id="stop2384"
         style="stop-color:#ffffff;stop-opacity:1"
         offset="0" />
      <stop
         id="stop2386"
         style="stop-color:#ffffff;stop-opacity:0.23529412"
         offset="0.07945278" />
      <stop
         id="stop2388"
         style="stop-color:#ffffff;stop-opacity:0.15686275"
         offset="0.94694352" />
      <stop
         id="stop2390"
         style="stop-color:#ffffff;stop-opacity:0.39215687"
         offset="1" />
    </linearGradient>
    <linearGradient
       id="linearGradient1201">
      <stop
         id="stop1193"
         style="stop-color:#ffffff;stop-opacity:1"
         offset="0" />
      <stop
         id="stop1195"
         style="stop-color:#ffffff;stop-opacity:0.23529412"
         offset="0.14769693" />
      <stop
         id="stop1197"
         style="stop-color:#ffffff;stop-opacity:0.15686275"
         offset="0.85241598" />
      <stop
         id="stop1199"
         style="stop-color:#ffffff;stop-opacity:0.39215687"
         offset="1" />
    </linearGradient>
    <linearGradient
       id="linearGradient3688-166-749">
      <stop
         id="stop2883"
         style="stop-color:#181818;stop-opacity:1"
         offset="0" />
      <stop
         id="stop2885"
         style="stop-color:#181818;stop-opacity:0"
         offset="1" />
    </linearGradient>
    <linearGradient
       id="linearGradient3702-501-757">
      <stop
         id="stop2895"
         style="stop-color:#181818;stop-opacity:0"
         offset="0" />
      <stop
         id="stop2897"
         style="stop-color:#181818;stop-opacity:1"
         offset="0.5" />
      <stop
         id="stop2899"
         style="stop-color:#181818;stop-opacity:0"
         offset="1" />
    </linearGradient>
    <linearGradient
       x1="13.320448"
       y1="5.8028727"
       x2="13.320448"
       y2="42.227989"
       id="linearGradient3058-5"
       xlink:href="#linearGradient2392"
       gradientUnits="userSpaceOnUse"
       gradientTransform="matrix(2.0577668,0,0,2.1283303,-1.8292498,6.7811279)" />
    <linearGradient
       xlink:href="#linearGradient3702-501-757"
       id="linearGradient1191"
       gradientUnits="userSpaceOnUse"
       x1="25.058096"
       y1="47.027729"
       x2="25.058096"
       y2="39.999443"
       gradientTransform="matrix(1.1428571,0,0,0.6428571,-3.428569,16.035716)" />
    <linearGradient
       id="linearGradient3600-9-51">
      <stop
         offset="0"
         style="stop-color:#f4f4f4;stop-opacity:1"
         id="stop3602-0-0" />
      <stop
         offset="1"
         style="stop-color:#dbdbdb;stop-opacity:1"
         id="stop3604-9-04" />
    </linearGradient>
    <linearGradient
       id="linearGradient3104-6">
      <stop
         offset="0"
         style="stop-color:#000000;stop-opacity:0.31782946"
         id="stop3106-3" />
      <stop
         offset="1"
         style="stop-color:#000000;stop-opacity:0.24031007"
         id="stop3108-9" />
    </linearGradient>
    <linearGradient
       xlink:href="#linearGradient3600-9-51"
       id="linearGradient1512"
       gradientUnits="userSpaceOnUse"
       gradientTransform="matrix(1.9933657,0,0,2.0735654,-99.516413,7.9996832)"
       x1="74.838791"
       y1="4.7853589"
       x2="74.838791"
       y2="45.85183" />
    <radialGradient
       cx="4.9929786"
       cy="43.5"
       r="2.5"
       fx="4.9929786"
       fy="43.5"
       id="radialGradient3013-6"
       xlink:href="#linearGradient3688-166-749"
       gradientUnits="userSpaceOnUse"
       gradientTransform="matrix(2.003784,0,0,0.89999994,29.98813,4.8500025)" />
    <radialGradient
       cx="4.9929786"
       cy="43.5"
       r="2.5"
       fx="4.9929786"
       fy="43.5"
       id="radialGradient3015-1"
       xlink:href="#linearGradient3688-166-749"
       gradientUnits="userSpaceOnUse"
       gradientTransform="matrix(2.003784,0,0,0.89999994,-18.01187,-83.149997)" />
    <linearGradient
       xlink:href="#linearGradient1201"
       id="linearGradient1192"
       gradientUnits="userSpaceOnUse"
       gradientTransform="matrix(2.0810811,0,0,1.2162163,-1.9459714,36.810825)"
       x1="23.976463"
       y1="5.9121246"
       x2="23.976463"
       y2="42.08535" />
    <linearGradient
       xlink:href="#linearGradient3104-6"
       id="linearGradient1978"
       gradientUnits="userSpaceOnUse"
       gradientTransform="matrix(1.6356971,0,0,1.8341666,21.333136,12.103953)"
       x1="-51.786404"
       y1="50.786446"
       x2="-51.786404"
       y2="2.9062471" />
    <linearGradient
       x1="35.996761"
       y1="8.8111582"
       x2="35.996761"
       y2="40.922527"
       id="linearGradient3058-5-7"
       xlink:href="#linearGradient2511"
       gradientUnits="userSpaceOnUse"
       gradientTransform="matrix(2.0519043,0,0,2.205171,-1.6944068,5.7442722)" />
    <linearGradient
       y2="112.56245"
       x2="45.408443"
       y1="47.69669"
       x1="45.408443"
       gradientTransform="matrix(1.021191,0,0,0.72458422,5.6375236,7.9350048)"
       gradientUnits="userSpaceOnUse"
       id="linearGradient997"
       xlink:href="#linearGradient4632-0-6-4-4-4" />
    <linearGradient
       id="linearGradient4632-0-6-4-4-4">
      <stop
         offset="0"
         style="stop-color:#efdfc4;stop-opacity:1"
         id="stop4634-4-4-7-4" />
      <stop
         offset="1"
         style="stop-color:#e7c591;stop-opacity:1"
         id="stop4636-3-1-5-9" />
    </linearGradient>
  </defs>
  <metadata
     id="metadata6654">
    <rdf:RDF>
      <cc:Work
         rdf:about="">
        <dc:format>image/svg+xml</dc:format>
        <dc:type
           rdf:resource="http://purl.org/dc/dcmitype/StillImage" />
      </cc:Work>
    </rdf:RDF>
  </metadata>
  <g
     id="g1784"
     transform="matrix(2,0,0,2,0,-7.6504601e-5)"
     style="stroke-width:0.5">
    <rect
       style="opacity:0.3;fill:url(#radialGradient3013-6);fill-opacity:1;stroke:none;stroke-width:0.431382"
       id="rect2801-3-7"
       y="41.75"
       x="40"
       height="4.4999995"
       width="5" />
    <rect
       style="opacity:0.3;fill:url(#radialGradient3015-1);fill-opacity:1;stroke:none;stroke-width:0.431382"
       id="rect3696-6-3"
       transform="scale(-1)"
       y="-46.25"
       x="-8"
       height="4.4999995"
       width="5" />
    <rect
       style="opacity:0.3;fill:url(#linearGradient1191);fill-opacity:1;stroke:none;stroke-width:0.431382"
       id="rect3700-4-6"
       y="41.75"
       x="8"
       height="4.5"
       width="32" />
  </g>
  <path
     id="rect5505-21-1-2-8-6-1"
     style="color:#000000;font-variation-settings:normal;display:inline;overflow:visible;visibility:visible;opacity:1;vector-effect:none;fill:url(#linearGradient1512);fill-opacity:1;fill-rule:nonzero;stroke:none;stroke-width:0.999994;stroke-linecap:butt;stroke-linejoin:miter;stroke-miterlimit:4;stroke-dasharray:none;stroke-dashoffset:0;stroke-opacity:1;-inkscape-stroke:none;marker:none;enable-background:accumulate;stop-color:#000000;stop-opacity:1"
     d="m 16.457795,17.999922 c -4.002133,0 -7.4577949,3.427265 -7.4577949,7.643217 V 48 H 87.000001 V 32.031509 c 0,-4.328493 -3.191885,-8.031587 -7.194018,-8.031587 H 45.5 c -1.757553,0 -4.00285,-1.40474 -5.550625,-2.51073 -1.587049,-1.134055 -2.026578,-1.505958 -2.738398,-2.097476 -1.288684,-1.070889 -2.839309,-1.391794 -4.600968,-1.391794 z"
     sodipodi:nodetypes="ssccsssssss" />
  <rect
     style="color:#000000;font-variation-settings:normal;display:inline;overflow:visible;visibility:visible;vector-effect:none;fill:#555761;fill-opacity:0.03;fill-rule:nonzero;stroke:none;stroke-width:1;stroke-linecap:butt;stroke-linejoin:miter;stroke-miterlimit:4;stroke-dasharray:none;stroke-dashoffset:0;stroke-opacity:0.5;-inkscape-stroke:none;marker:none;enable-background:accumulate;stop-color:#000000"
     id="rect2200"
     y="35.5"
     x="9"
     ry="8"
     rx="8"
     height="40"
     width="78" />
  <rect
     style="color:#000000;font-variation-settings:normal;display:inline;overflow:visible;visibility:visible;vector-effect:none;fill:#555761;fill-opacity:0.05;fill-rule:nonzero;stroke:none;stroke-width:1;stroke-linecap:butt;stroke-linejoin:miter;stroke-miterlimit:4;stroke-dasharray:none;stroke-dashoffset:0;stroke-opacity:0.5;-inkscape-stroke:none;marker:none;enable-background:accumulate;stop-color:#000000"
     id="rect973"
     y="37.5"
     x="9"
     ry="8"
     rx="8"
     height="40"
     width="78" />
  <path
     id="rect5505-21-1-2-8-6-1-9"
     style="color:#000000;font-variation-settings:normal;display:inline;overflow:visible;visibility:visible;opacity:1;vector-effect:none;fill:none;fill-opacity:1;fill-rule:nonzero;stroke:url(#linearGradient3058-5);stroke-width:1;stroke-linecap:round;stroke-linejoin:round;stroke-miterlimit:4;stroke-dasharray:none;stroke-dashoffset:0;stroke-opacity:1;-inkscape-stroke:none;marker:none;enable-background:accumulate;stop-color:#000000;stop-opacity:1"
     d="m 46,24.499922 c -2.171125,0 -3.452701,-0.669491 -5.113502,-1.720947 -1.660802,-1.051456 -3.062117,-2.203948 -3.76473,-2.809815 -1.066049,-0.919256 -2.420352,-1.469238 -3.937501,-1.469238 H 16.325202 C 12.876669,18.499922 9.5,21.881473 9.5,25.448262 V 44.5"
     sodipodi:nodetypes="csssssc" />
  <path
     id="rect5505-21-1-2-8-6-1-9-9"
     style="color:#000000;font-variation-settings:normal;display:inline;overflow:visible;visibility:visible;vector-effect:none;fill:none;fill-opacity:1;fill-rule:nonzero;stroke:url(#linearGradient3058-5-7);stroke-width:1;stroke-linecap:round;stroke-linejoin:round;stroke-miterlimit:4;stroke-dasharray:none;stroke-dashoffset:0;stroke-opacity:1;-inkscape-stroke:none;marker:none;enable-background:accumulate;stop-color:#000000"
     d="M 86.5,44.5 V 31.410886 c 0,-3.695565 -3.448898,-6.910964 -6.887607,-6.910964 H 47"
     sodipodi:nodetypes="cssc" />
  <rect
     style="color:#000000;font-variation-settings:normal;display:inline;overflow:visible;visibility:visible;vector-effect:none;fill:#555761;fill-opacity:0.07;fill-rule:nonzero;stroke:none;stroke-width:1;stroke-linecap:butt;stroke-linejoin:miter;stroke-miterlimit:4;stroke-dasharray:none;stroke-dashoffset:0;stroke-opacity:0.5;-inkscape-stroke:none;marker:none;enable-background:accumulate;stop-color:#000000"
     id="rect3772"
     y="39.5"
     x="9"
     ry="7"
     rx="7"
     height="40"
     width="78" />
  <path
     id="rect5505-21-1-2-8-6"
     style="color:#000000;font-variation-settings:normal;display:inline;overflow:visible;visibility:visible;vector-effect:none;fill:none;fill-opacity:1;fill-rule:nonzero;stroke:url(#linearGradient1978);stroke-width:0.999923;stroke-linecap:butt;stroke-linejoin:round;stroke-miterlimit:4;stroke-dasharray:none;stroke-dashoffset:0;stroke-opacity:1;-inkscape-stroke:none;marker:none;enable-background:accumulate;stop-color:#000000"
     d="M 87.49996,48 V 31.849934 c 0,-4.542788 -3.613744,-8.199985 -8.102556,-8.199985 H 45.97436 c -2.691397,0 -6.699193,-3.173812 -7.983292,-4.257257 -1.401617,-1.182598 -3.206692,-1.892731 -5.183361,-1.892731 H 16.602595 c -4.488812,0 -8.1025562,3.657197 -8.1025562,8.199984 V 48"
     sodipodi:nodetypes="csssssssc" />
  <path
     id="rect5505-21-1"
     style="display:inline;overflow:visible;opacity:1;vector-effect:none;fill:url(#linearGradient997);stroke-width:0.999995;stroke-opacity:0.498039;marker:none;enable-background:accumulate;stop-color:#000000;stop-opacity:1"
     d="m 13.500016,42.499996 h 69.000015 c 4.432,0 8.426909,3.588609 8,8 l -3,31 c -0.426909,4.411391 -3.568,8 -8,8 h -63 c -4.432,0 -7.5730895,-3.588609 -8.0000005,-8 l -3.0000155,-31 c -0.426911,-4.411391 3.5680005,-8 8.000001,-8 z"
     sodipodi:nodetypes="sssssssss" />
  <path
     style="color:#000000;opacity:0.5;fill:url(#linearGradient1192);stroke-linecap:round;stroke-linejoin:round;-inkscape-stroke:none"
     d="M 13.5,43 C 9.353653,43 5.6006065,46.372933 6,50.5 l 3,31 c 0.3993935,4.127067 3.353653,7.5 7.5,7.5 h 63 c 4.146347,0 7.100606,-3.372933 7.5,-7.5 l 3,-31 C 90.399394,46.372933 86.646347,43 82.5,43 Z m 0,1 h 69 c 3.609645,0 6.847696,2.90714 6.5,6.5 l -3,31 C 85.652304,85.09286 83.109645,88 79.5,88 h -63 C 12.890355,88 10.347696,85.09286 10,81.5 L 7,50.5 C 6.6523039,46.90714 9.890355,44 13.5,44 Z"
     id="rect6741-2"
     sodipodi:nodetypes="ssssssssssssssssss" />
  <path
     style="color:#000000;fill:#987124;fill-opacity:0.498039;-inkscape-stroke:none"
     d="M 13.499985,42 C 8.7996395,42 4.5472252,45.821512 4.9999845,50.5 L 8,81.5 c 0.4527593,4.678488 3.799655,8.5 8.5,8.5 h 63 c 4.700345,0 8.047243,-3.821512 8.5,-8.5 l 3,-31 C 91.452757,45.821512 87.200345,42 82.5,42 Z m 0,1 H 82.5 c 4.163646,0 7.90106,3.355715 7.5,7.5 l -3,31 C 86.59894,85.644285 83.663646,89 79.5,89 h -63 C 12.336354,89 9.4010619,85.644285 9,81.5 L 5.9999845,50.5 C 5.5989226,46.355715 9.3363385,43 13.499985,43 Z"
     id="rect5887"
     sodipodi:nodetypes="ssssssssssssssssss" />
  <path
     style="color:#000000;display:inline;overflow:visible;visibility:visible;opacity:0.3;fill:#ffffff;fill-opacity:1;fill-rule:nonzero;stroke:none;stroke-width:1.7;marker:none;enable-background:accumulate"
     id="path7557"
     d="m 38.000826,58 c -1.10802,0 -2.04892,0.89308 -2,2 l 0.88388,20 c 0.049,1.10692 0.89198,2 2,2 h 18.40902 c 1.108,0 1.9441,-0.89342 2,-2 l 0.7071,-14 c 0.056,-1.10658 -8.892,-8 -10,-8 z m 1,2 h 11 v 6 h 8 l -0.7071,13 c -0.03,0.55318 -0.446,1 -1,1 h -16.40902 c -0.554,0 -0.97282,-0.44666 -1,-1 l -0.88388,-18 c -0.0272,-0.55334 0.446,-1 1,-1 z" />
  <path
     style="color:#000000;display:inline;overflow:visible;visibility:visible;opacity:0.6;vector-effect:none;fill:#7e5514;fill-opacity:0.972549;fill-rule:nonzero;stroke:none;stroke-width:1;stroke-linecap:butt;stroke-linejoin:miter;stroke-miterlimit:4;stroke-dasharray:none;stroke-dashoffset:0;stroke-opacity:0.498039;marker:none;enable-background:accumulate"
     id="rect21401-5"
     d="m 38.000826,56 c -1.10802,0 -2.04892,0.89308 -2,2 l 0.88388,20 c 0.049,1.10692 0.89198,2 2,2 h 18.40902 c 1.108,0 1.9441,-0.89342 2,-2 l 0.7071,-14 c 0.056,-1.10658 -8.892,-8 -10,-8 z m 1,2 h 11 v 6 h 8 l -0.7071,13 c -0.03,0.55318 -0.446,1 -1,1 h -16.40902 c -0.554,0 -0.97282,-0.44666 -1,-1 l -0.88388,-18 c -0.0272,-0.55334 0.446,-1 1,-1 z" />
</svg>
