<?xml version="1.0" encoding="UTF-8" standalone="no"?>
<svg
   version="1.1"
   width="96"
   height="96"
   id="svg6649"
   sodipodi:docname="folder-videos-open.svg"
   inkscape:version="1.2.2 (b0a8486541, 2022-12-01)"
   xmlns:inkscape="http://www.inkscape.org/namespaces/inkscape"
   xmlns:sodipodi="http://sodipodi.sourceforge.net/DTD/sodipodi-0.dtd"
   xmlns:xlink="http://www.w3.org/1999/xlink"
   xmlns="http://www.w3.org/2000/svg"
   xmlns:svg="http://www.w3.org/2000/svg"
   xmlns:rdf="http://www.w3.org/1999/02/22-rdf-syntax-ns#"
   xmlns:cc="http://creativecommons.org/ns#"
   xmlns:dc="http://purl.org/dc/elements/1.1/">
  <sodipodi:namedview
     id="namedview61"
     pagecolor="#ffffff"
     bordercolor="#000000"
     borderopacity="0.25"
     inkscape:showpageshadow="2"
     inkscape:pageopacity="0.0"
     inkscape:pagecheckerboard="0"
     inkscape:deskcolor="#d1d1d1"
     showgrid="false"
     inkscape:zoom="2.8284271"
     inkscape:cx="65.584155"
     inkscape:cy="114.5513"
     inkscape:window-width="1278"
     inkscape:window-height="909"
     inkscape:window-x="293"
     inkscape:window-y="-50"
     inkscape:window-maximized="0"
     inkscape:current-layer="svg6649" />
  <defs
     id="defs6651">
    <linearGradient
       id="linearGradient2511">
      <stop
         id="stop2503"
         style="stop-color:#ffffff;stop-opacity:1"
         offset="0" />
      <stop
         id="stop2505"
         style="stop-color:#ffffff;stop-opacity:0.23529412"
         offset="0.08629532" />
      <stop
         id="stop2507"
         style="stop-color:#ffffff;stop-opacity:0.15686275"
         offset="0.93042839" />
      <stop
         id="stop2509"
         style="stop-color:#ffffff;stop-opacity:0.39215687"
         offset="1" />
    </linearGradient>
    <linearGradient
       id="linearGradient2392">
      <stop
         id="stop2384"
         style="stop-color:#ffffff;stop-opacity:1"
         offset="0" />
      <stop
         id="stop2386"
         style="stop-color:#ffffff;stop-opacity:0.23529412"
         offset="0.07945278" />
      <stop
         id="stop2388"
         style="stop-color:#ffffff;stop-opacity:0.15686275"
         offset="0.94694352" />
      <stop
         id="stop2390"
         style="stop-color:#ffffff;stop-opacity:0.39215687"
         offset="1" />
    </linearGradient>
    <linearGradient
       id="linearGradient1201">
      <stop
         id="stop1193"
         style="stop-color:#ffffff;stop-opacity:1"
         offset="0" />
      <stop
         id="stop1195"
         style="stop-color:#ffffff;stop-opacity:0.23529412"
         offset="0.14769693" />
      <stop
         id="stop1197"
         style="stop-color:#ffffff;stop-opacity:0.15686275"
         offset="0.85241598" />
      <stop
         id="stop1199"
         style="stop-color:#ffffff;stop-opacity:0.39215687"
         offset="1" />
    </linearGradient>
    <linearGradient
       id="linearGradient3688-166-749">
      <stop
         id="stop2883"
         style="stop-color:#181818;stop-opacity:1"
         offset="0" />
      <stop
         id="stop2885"
         style="stop-color:#181818;stop-opacity:0"
         offset="1" />
    </linearGradient>
    <linearGradient
       id="linearGradient3702-501-757">
      <stop
         id="stop2895"
         style="stop-color:#181818;stop-opacity:0"
         offset="0" />
      <stop
         id="stop2897"
         style="stop-color:#181818;stop-opacity:1"
         offset="0.5" />
      <stop
         id="stop2899"
         style="stop-color:#181818;stop-opacity:0"
         offset="1" />
    </linearGradient>
    <linearGradient
       x1="13.320448"
       y1="5.8028727"
       x2="13.320448"
       y2="42.227989"
       id="linearGradient3058-5"
       xlink:href="#linearGradient2392"
       gradientUnits="userSpaceOnUse"
       gradientTransform="matrix(2.0577668,0,0,2.1283303,-1.8290686,6.7811279)" />
    <linearGradient
       xlink:href="#linearGradient3702-501-757"
       id="linearGradient1191"
       gradientUnits="userSpaceOnUse"
       x1="25.058096"
       y1="47.027729"
       x2="25.058096"
       y2="39.999443"
       gradientTransform="matrix(1.1428571,0,0,0.6428571,-3.428569,16.035716)" />
    <linearGradient
       id="linearGradient3600-9-51">
      <stop
         offset="0"
         style="stop-color:#f4f4f4;stop-opacity:1"
         id="stop3602-0-0" />
      <stop
         offset="1"
         style="stop-color:#dbdbdb;stop-opacity:1"
         id="stop3604-9-04" />
    </linearGradient>
    <linearGradient
       id="linearGradient3104-6">
      <stop
         offset="0"
         style="stop-color:#000000;stop-opacity:0.31782946"
         id="stop3106-3" />
      <stop
         offset="1"
         style="stop-color:#000000;stop-opacity:0.24031007"
         id="stop3108-9" />
    </linearGradient>
    <linearGradient
       xlink:href="#linearGradient3600-9-51"
       id="linearGradient1512"
       gradientUnits="userSpaceOnUse"
       gradientTransform="matrix(1.9933657,0,0,2.0735654,-99.516232,7.9996832)"
       x1="74.838791"
       y1="4.7853589"
       x2="74.838791"
       y2="45.85183" />
    <radialGradient
       cx="4.9929786"
       cy="43.5"
       r="2.5"
       fx="4.9929786"
       fy="43.5"
       id="radialGradient3013-6"
       xlink:href="#linearGradient3688-166-749"
       gradientUnits="userSpaceOnUse"
       gradientTransform="matrix(2.003784,0,0,0.89999994,29.98813,4.8500025)" />
    <radialGradient
       cx="4.9929786"
       cy="43.5"
       r="2.5"
       fx="4.9929786"
       fy="43.5"
       id="radialGradient3015-1"
       xlink:href="#linearGradient3688-166-749"
       gradientUnits="userSpaceOnUse"
       gradientTransform="matrix(2.003784,0,0,0.89999994,-18.01187,-83.149997)" />
    <linearGradient
       xlink:href="#linearGradient1201"
       id="linearGradient1192"
       gradientUnits="userSpaceOnUse"
       gradientTransform="matrix(2.0810811,0,0,1.2162163,-1.9457902,36.810825)"
       x1="23.976463"
       y1="5.9121246"
       x2="23.976463"
       y2="42.08535" />
    <linearGradient
       xlink:href="#linearGradient3104-6"
       id="linearGradient1978"
       gradientUnits="userSpaceOnUse"
       gradientTransform="matrix(1.6356971,0,0,1.8341666,21.333317,12.103953)"
       x1="-51.786404"
       y1="50.786446"
       x2="-51.786404"
       y2="2.9062471" />
    <linearGradient
       x1="35.996761"
       y1="8.8111582"
       x2="35.996761"
       y2="40.922527"
       id="linearGradient3058-5-7"
       xlink:href="#linearGradient2511"
       gradientUnits="userSpaceOnUse"
       gradientTransform="matrix(2.0519043,0,0,2.205171,-1.6942256,5.7442722)" />
    <linearGradient
       y2="112.56245"
       x2="45.408443"
       y1="47.69669"
       x1="45.408443"
       gradientTransform="matrix(1.021191,0,0,0.72458422,5.6377048,7.9350048)"
       gradientUnits="userSpaceOnUse"
       id="linearGradient997"
       xlink:href="#linearGradient4632-0-6-4-4-4" />
    <linearGradient
       id="linearGradient4632-0-6-4-4-4">
      <stop
         offset="0"
         style="stop-color:#efdfc4;stop-opacity:1"
         id="stop4634-4-4-7-4" />
      <stop
         offset="1"
         style="stop-color:#e7c591;stop-opacity:1"
         id="stop4636-3-1-5-9" />
    </linearGradient>
  </defs>
  <metadata
     id="metadata6654">
    <rdf:RDF>
      <cc:Work
         rdf:about="">
        <dc:format>image/svg+xml</dc:format>
        <dc:type
           rdf:resource="http://purl.org/dc/dcmitype/StillImage" />
      </cc:Work>
    </rdf:RDF>
  </metadata>
  <g
     id="g1784"
     transform="matrix(2,0,0,2,1.8119772e-4,-7.6504601e-5)"
     style="stroke-width:0.5">
    <rect
       style="opacity:0.3;fill:url(#radialGradient3013-6);fill-opacity:1;stroke:none;stroke-width:0.431382"
       id="rect2801-3-7"
       y="41.75"
       x="40"
       height="4.4999995"
       width="5" />
    <rect
       style="opacity:0.3;fill:url(#radialGradient3015-1);fill-opacity:1;stroke:none;stroke-width:0.431382"
       id="rect3696-6-3"
       transform="scale(-1)"
       y="-46.25"
       x="-8"
       height="4.4999995"
       width="5" />
    <rect
       style="opacity:0.3;fill:url(#linearGradient1191);fill-opacity:1;stroke:none;stroke-width:0.431382"
       id="rect3700-4-6"
       y="41.75"
       x="8"
       height="4.5"
       width="32" />
  </g>
  <path
     id="rect5505-21-1-2-8-6-1"
     style="color:#000000;font-variation-settings:normal;display:inline;overflow:visible;visibility:visible;opacity:1;vector-effect:none;fill:url(#linearGradient1512);fill-opacity:1;fill-rule:nonzero;stroke:none;stroke-width:0.999994;stroke-linecap:butt;stroke-linejoin:miter;stroke-miterlimit:4;stroke-dasharray:none;stroke-dashoffset:0;stroke-opacity:1;-inkscape-stroke:none;marker:none;enable-background:accumulate;stop-color:#000000;stop-opacity:1"
     d="m 16.457976,17.999922 c -4.002133,0 -7.4577947,3.427265 -7.4577947,7.643217 V 48 H 87.000182 V 32.031509 c 0,-4.328493 -3.191885,-8.031587 -7.194018,-8.031587 H 45.500181 c -1.757553,0 -4.00285,-1.40474 -5.550625,-2.51073 -1.587049,-1.134055 -2.026578,-1.505958 -2.738398,-2.097476 -1.288684,-1.070889 -2.839309,-1.391794 -4.600968,-1.391794 z"
     sodipodi:nodetypes="ssccsssssss" />
  <rect
     style="color:#000000;font-variation-settings:normal;display:inline;overflow:visible;visibility:visible;vector-effect:none;fill:#555761;fill-opacity:0.03;fill-rule:nonzero;stroke:none;stroke-width:1;stroke-linecap:butt;stroke-linejoin:miter;stroke-miterlimit:4;stroke-dasharray:none;stroke-dashoffset:0;stroke-opacity:0.5;-inkscape-stroke:none;marker:none;enable-background:accumulate;stop-color:#000000"
     id="rect2200"
     y="35.5"
     x="9.0001812"
     ry="8"
     rx="8"
     height="40"
     width="78" />
  <rect
     style="color:#000000;font-variation-settings:normal;display:inline;overflow:visible;visibility:visible;vector-effect:none;fill:#555761;fill-opacity:0.05;fill-rule:nonzero;stroke:none;stroke-width:1;stroke-linecap:butt;stroke-linejoin:miter;stroke-miterlimit:4;stroke-dasharray:none;stroke-dashoffset:0;stroke-opacity:0.5;-inkscape-stroke:none;marker:none;enable-background:accumulate;stop-color:#000000"
     id="rect973"
     y="37.5"
     x="9.0001812"
     ry="8"
     rx="8"
     height="40"
     width="78" />
  <path
     id="rect5505-21-1-2-8-6-1-9"
     style="color:#000000;font-variation-settings:normal;display:inline;overflow:visible;visibility:visible;opacity:1;vector-effect:none;fill:none;fill-opacity:1;fill-rule:nonzero;stroke:url(#linearGradient3058-5);stroke-width:1;stroke-linecap:round;stroke-linejoin:round;stroke-miterlimit:4;stroke-dasharray:none;stroke-dashoffset:0;stroke-opacity:1;-inkscape-stroke:none;marker:none;enable-background:accumulate;stop-color:#000000;stop-opacity:1"
     d="m 46.000181,24.499922 c -2.171125,0 -3.452701,-0.669491 -5.113502,-1.720947 C 39.225877,21.727519 37.824562,20.575027 37.121949,19.96916 36.0559,19.049904 34.701597,18.499922 33.184448,18.499922 H 16.325383 c -3.448533,0 -6.8252018,3.381551 -6.8252018,6.94834 V 44.5"
     sodipodi:nodetypes="csssssc" />
  <path
     id="rect5505-21-1-2-8-6-1-9-9"
     style="color:#000000;font-variation-settings:normal;display:inline;overflow:visible;visibility:visible;vector-effect:none;fill:none;fill-opacity:1;fill-rule:nonzero;stroke:url(#linearGradient3058-5-7);stroke-width:1;stroke-linecap:round;stroke-linejoin:round;stroke-miterlimit:4;stroke-dasharray:none;stroke-dashoffset:0;stroke-opacity:1;-inkscape-stroke:none;marker:none;enable-background:accumulate;stop-color:#000000"
     d="M 86.500181,44.5 V 31.410886 c 0,-3.695565 -3.448898,-6.910964 -6.887607,-6.910964 H 47.000181"
     sodipodi:nodetypes="cssc" />
  <rect
     style="color:#000000;font-variation-settings:normal;display:inline;overflow:visible;visibility:visible;vector-effect:none;fill:#555761;fill-opacity:0.07;fill-rule:nonzero;stroke:none;stroke-width:1;stroke-linecap:butt;stroke-linejoin:miter;stroke-miterlimit:4;stroke-dasharray:none;stroke-dashoffset:0;stroke-opacity:0.5;-inkscape-stroke:none;marker:none;enable-background:accumulate;stop-color:#000000"
     id="rect3772"
     y="39.5"
     x="9.0001812"
     ry="7"
     rx="7"
     height="40"
     width="78" />
  <path
     id="rect5505-21-1-2-8-6"
     style="color:#000000;font-variation-settings:normal;display:inline;overflow:visible;visibility:visible;vector-effect:none;fill:none;fill-opacity:1;fill-rule:nonzero;stroke:url(#linearGradient1978);stroke-width:0.999923;stroke-linecap:butt;stroke-linejoin:round;stroke-miterlimit:4;stroke-dasharray:none;stroke-dashoffset:0;stroke-opacity:1;-inkscape-stroke:none;marker:none;enable-background:accumulate;stop-color:#000000"
     d="M 87.500141,48 V 31.849934 c 0,-4.542788 -3.613744,-8.199985 -8.102556,-8.199985 H 45.974541 c -2.691397,0 -6.699193,-3.173812 -7.983292,-4.257257 -1.401617,-1.182598 -3.206692,-1.892731 -5.183361,-1.892731 H 16.602776 c -4.488812,0 -8.102556,3.657197 -8.102556,8.199984 V 48"
     sodipodi:nodetypes="csssssssc" />
  <path
     id="rect5505-21-1"
     style="display:inline;overflow:visible;opacity:1;vector-effect:none;fill:url(#linearGradient997);stroke-width:0.999995;stroke-opacity:0.498039;marker:none;enable-background:accumulate;stop-color:#000000;stop-opacity:1"
     d="m 13.500197,42.499996 h 69.000015 c 4.432,0 8.426909,3.588609 8,8 l -3,31 c -0.426909,4.411391 -3.568,8 -8,8 h -63 c -4.432,0 -7.5730893,-3.588609 -8.0000003,-8 l -3.0000155,-31 c -0.426911,-4.411391 3.5680005,-8 8.0000008,-8 z"
     sodipodi:nodetypes="sssssssss" />
  <path
     style="color:#000000;opacity:0.5;fill:url(#linearGradient1192);stroke-linecap:round;stroke-linejoin:round;-inkscape-stroke:none"
     d="m 13.500181,43 c -4.1463468,0 -7.8993933,3.372933 -7.4999998,7.5 l 3,31 C 9.3995747,85.627067 12.353834,89 16.500181,89 h 63 c 4.146347,0 7.100606,-3.372933 7.5,-7.5 l 3,-31 c 0.399394,-4.127067 -3.353653,-7.5 -7.5,-7.5 z m 0,1 h 69 c 3.609645,0 6.847696,2.90714 6.5,6.5 l -3,31 c -0.347696,3.59286 -2.890355,6.5 -6.5,6.5 h -63 c -3.609645,0 -6.152304,-2.90714 -6.5,-6.5 L 7.0001812,50.5 C 6.6524851,46.90714 9.8905362,44 13.500181,44 Z"
     id="rect6741-2"
     sodipodi:nodetypes="ssssssssssssssssss" />
  <path
     style="color:#000000;fill:#987124;fill-opacity:0.498039;-inkscape-stroke:none"
     d="m 13.500166,42 c -4.7003453,0 -8.9527596,3.821512 -8.5000003,8.5 l 3.0000155,31 C 8.4529405,86.178488 11.799836,90 16.500181,90 h 63 c 4.700345,0 8.047243,-3.821512 8.5,-8.5 l 3,-31 c 0.452757,-4.678488 -3.799655,-8.5 -8.5,-8.5 z m 0,1 h 69.000015 c 4.163646,0 7.90106,3.355715 7.5,7.5 l -3,31 c -0.40106,4.144285 -3.336354,7.5 -7.5,7.5 h -63 C 12.336535,89 9.4012431,85.644285 9.0001812,81.5 L 6.0001657,50.5 C 5.5991038,46.355715 9.3365197,43 13.500166,43 Z"
     id="rect5887"
     sodipodi:nodetypes="ssssssssssssssssss" />
  <path
     style="color:#000000;display:inline;overflow:visible;visibility:visible;opacity:0.3;fill:#ffffff;fill-opacity:1;fill-rule:nonzero;stroke:none;stroke-width:1.7;marker:none;enable-background:accumulate"
     id="path7826"
     d="m 33.613325,58 c -0.831,0 -1.4506,0.58058 -1.3866,1.30078 l 2.0468,23.39844 c 0.064,0.7202 0.7822,1.30078 1.6132,1.30078 h 12.8634 11.3632 c 0.831,0 1.5504,-0.58058 1.6134,-1.30078 l 2.0468,-23.39844 C 63.837525,58.58058 63.217725,58 62.386725,58 h -13.6366 z m 0.6524,1.73438 h 2 l 0.148,1.73046 h -2 z m 5,0 h 9.4844 7.9844 c 0.554,0 0.9678,0.38704 0.9258,0.86718 l -0.758,8.66406 c -0.042,0.48014 -0.524,0.8672 -1.078,0.8672 h -7.0742 -8.5742 c -0.554,0 -1.0362,-0.38706 -1.0782,-0.8672 l -0.7578,-8.66406 c -0.042,-0.48014 0.3718,-0.86718 0.9258,-0.86718 z m 20.4688,0 h 2 l -0.148,1.73046 h -2 z m -25.168,3.46484 h 2 l 0.152,1.73438 h -2 z m 24.8672,0 h 2 l -0.152,1.73438 h -2 z m -24.5626,3.46874 h 2 l 0.152,1.73048 h -2 z m 24.2578,0 h 2 l -0.152,1.73048 h -2 z m -23.953,3.46486 h 2 l 0.148,1.73436 h -2 z m 23.6484,0 h 2 l -0.148,1.73436 h -2 z m -18.5,1.73436 h 8.4258 6.9258 c 0.554,0 0.9638,0.38706 0.9218,0.8672 l -0.7578,8.66406 c -0.042,0.48014 -0.5202,0.86718 -1.0742,0.86718 h -6.0156 -7.5156 c -0.554,0 -1.0322,-0.38704 -1.0742,-0.86718 l -0.758,-8.66406 c -0.042,-0.48014 0.368,-0.8672 0.922,-0.8672 z m -4.8476,1.73438 h 2 l 0.152,1.73048 h -2 z m 23.0468,0 h 2 l -0.152,1.73048 h -2 z m -22.7422,3.46484 h 2 l 0.152,1.73438 h -2 z m 22.4374,0 h 2 l -0.152,1.73438 h -2 z m -22.1328,3.46876 h 2 l 0.148,1.73046 h -2 z m 21.8282,0 h 2 l -0.148,1.73046 h -2 z" />
  <path
     style="color:#000000;display:inline;overflow:visible;visibility:visible;opacity:0.6;vector-effect:none;fill:#7e5514;fill-opacity:0.972549;fill-rule:nonzero;stroke:none;stroke-width:1;stroke-linecap:butt;stroke-linejoin:miter;stroke-miterlimit:4;stroke-dasharray:none;stroke-dashoffset:0;stroke-opacity:0.498039;marker:none;enable-background:accumulate"
     id="path7816"
     d="m 33.613325,56 c -0.831,0 -1.4506,0.58058 -1.3866,1.30078 l 2.0468,23.39844 c 0.064,0.7202 0.7822,1.30078 1.6132,1.30078 h 12.8634 11.3632 c 0.831,0 1.5504,-0.58058 1.6134,-1.30078 l 2.0468,-23.39844 C 63.837525,56.58058 63.217725,56 62.386725,56 h -13.6366 z m 0.6524,1.73438 h 2 l 0.148,1.73046 h -2 z m 5,0 h 9.4844 7.9844 c 0.554,0 0.9678,0.38704 0.9258,0.86718 l -0.758,8.66406 c -0.042,0.48014 -0.524,0.8672 -1.078,0.8672 h -7.0742 -8.5742 c -0.554,0 -1.0362,-0.38706 -1.0782,-0.8672 l -0.7578,-8.66406 c -0.042,-0.48014 0.3718,-0.86718 0.9258,-0.86718 z m 20.4688,0 h 2 l -0.148,1.73046 h -2 z m -25.168,3.46484 h 2 l 0.152,1.73438 h -2 z m 24.8672,0 h 2 l -0.152,1.73438 h -2 z m -24.5626,3.46874 h 2 l 0.152,1.73048 h -2 z m 24.2578,0 h 2 l -0.152,1.73048 h -2 z m -23.953,3.46486 h 2 l 0.148,1.73436 h -2 z m 23.6484,0 h 2 l -0.148,1.73436 h -2 z m -18.5,1.73436 h 8.4258 6.9258 c 0.554,0 0.9638,0.38706 0.9218,0.8672 l -0.7578,8.66406 c -0.042,0.48014 -0.5202,0.86718 -1.0742,0.86718 h -6.0156 -7.5156 c -0.554,0 -1.0322,-0.38704 -1.0742,-0.86718 l -0.758,-8.66406 c -0.042,-0.48014 0.368,-0.8672 0.922,-0.8672 z m -4.8476,1.73438 h 2 l 0.152,1.73048 h -2 z m 23.0468,0 h 2 l -0.152,1.73048 h -2 z m -22.7422,3.46484 h 2 l 0.152,1.73438 h -2 z m 22.4374,0 h 2 l -0.152,1.73438 h -2 z m -22.1328,3.46876 h 2 l 0.148,1.73046 h -2 z m 21.8282,0 h 2 l -0.148,1.73046 h -2 z" />
</svg>
