<?xml version="1.0" encoding="UTF-8" standalone="no"?>
<svg
   width="16px"
   height="16px"
   id="svg9991"
   version="1.1"
   sodipodi:docname="folder-music.svg"
   inkscape:version="1.2.2 (b0a8486541, 2022-12-01)"
   xmlns:inkscape="http://www.inkscape.org/namespaces/inkscape"
   xmlns:sodipodi="http://sodipodi.sourceforge.net/DTD/sodipodi-0.dtd"
   xmlns:xlink="http://www.w3.org/1999/xlink"
   xmlns="http://www.w3.org/2000/svg"
   xmlns:svg="http://www.w3.org/2000/svg"
   xmlns:rdf="http://www.w3.org/1999/02/22-rdf-syntax-ns#"
   xmlns:cc="http://creativecommons.org/ns#"
   xmlns:dc="http://purl.org/dc/elements/1.1/">
  <sodipodi:namedview
     id="namedview15"
     pagecolor="#ffffff"
     bordercolor="#666666"
     borderopacity="1.0"
     inkscape:pageshadow="2"
     inkscape:pageopacity="0.0"
     inkscape:pagecheckerboard="0"
     showgrid="false"
     inkscape:zoom="11.0625"
     inkscape:cx="-5.2429378"
     inkscape:cy="7.0056497"
     inkscape:window-width="1326"
     inkscape:window-height="417"
     inkscape:window-x="-43"
     inkscape:window-y="557"
     inkscape:window-maximized="0"
     inkscape:current-layer="svg9991"
     inkscape:showpageshadow="2"
     inkscape:deskcolor="#d1d1d1" />
  <defs
     id="defs9993">
    <linearGradient
       inkscape:collect="always"
       id="linearGradient20925">
      <stop
         style="stop-color:#8cd5ff;stop-opacity:1;"
         offset="0"
         id="stop20921" />
      <stop
         style="stop-color:#3689e6;stop-opacity:1"
         offset="1"
         id="stop20923" />
    </linearGradient>
    <linearGradient
       inkscape:collect="always"
       xlink:href="#linearGradient20925"
       id="linearGradient1553"
       gradientUnits="userSpaceOnUse"
       gradientTransform="matrix(0.63099977,0,0,0.63099977,7.6742929,4.4183185)"
       x1="4.6068439"
       y1="10.674069"
       x2="4.6068439"
       y2="14.495984" />
    <linearGradient
       inkscape:collect="always"
       xlink:href="#linearGradient20925"
       id="linearGradient19413"
       x1="2.3633194"
       y1="13.206434"
       x2="2.3633194"
       y2="15.693823"
       gradientUnits="userSpaceOnUse" />
  </defs>
  <metadata
     id="metadata9996">
    <rdf:RDF>
      <cc:Work
         rdf:about="">
        <dc:format>image/svg+xml</dc:format>
        <dc:type
           rdf:resource="http://purl.org/dc/dcmitype/StillImage" />
      </cc:Work>
    </rdf:RDF>
  </metadata>
  <g
     id="layer1">
    <path
       style="color:#000000;fill:#8cd5ff;fill-opacity:1;fill-rule:nonzero;stroke:#3689e6;stroke-width:1;stroke-miterlimit:4;stroke-opacity:1;stroke-dasharray:none;marker:none;visibility:visible;display:inline;overflow:visible;enable-background:accumulate"
       id="path5541"
       d="m 183.3125,222.53125 -7.1875,1.84375 c -0.30752,0.0824 -0.65625,0.52036 -0.65625,0.84375 l 0,9.09375 a 0.48257405,0.48257405 0 0 1 -0.6875,0.4375 c -0.45871,-0.2402 -1.05898,-0.35081 -1.6875,-0.1875 -0.57617,0.14971 -1.04136,0.45145 -1.3125,0.8125 -0.27114,0.36105 -0.35061,0.76088 -0.25,1.125 0.20054,0.72575 1.22627,1.23598 2.375,0.9375 0.91465,-0.23766 1.50878,-0.90083 1.59375,-1.5 l 0.0312,-8.53125 a 0.48257405,0.48257405 0 0 1 0.34375,-0.46875 l 7,-1.875 a 0.48257405,0.48257405 0 0 1 0.59375,0.46875 l 0,6.78125 a 0.48257405,0.48257405 0 0 1 -0.6875,0.4375 c -0.45871,-0.2402 -1.05898,-0.35081 -1.6875,-0.1875 -0.57617,0.14971 -1.04136,0.45145 -1.3125,0.8125 -0.27114,0.36105 -0.35061,0.76088 -0.25,1.125 0.20054,0.72575 1.22627,1.23598 2.375,0.9375 0.91465,-0.23766 1.50878,-0.90083 1.59375,-1.5 l 0.0312,-11.125 c 0,-0.19384 -0.12436,-0.24481 -0.21875,-0.28125 z"
       transform="translate(-170.98934,-222.02429)" />
    <rect
       style="opacity:0.1;color:#000000;fill:none;stroke:#ffffff;stroke-width:1;stroke-linecap:butt;stroke-linejoin:round;stroke-miterlimit:4;stroke-opacity:1;stroke-dasharray:none;stroke-dashoffset:0;marker:none;visibility:visible;display:inline;overflow:visible;enable-background:accumulate"
       id="rect5543"
       width="7.0147758"
       height="0.032473594"
       x="4.2184629"
       y="4.6079249"
       transform="matrix(0.96592583,-0.25881905,0.25881905,0.96592583,0,0)" />
  </g>
  <path
     d="M 4,14.263578 A 1.2462304,1.5899875 78.380078 1 1 1.0003469,13.716855 1.2462304,1.5899875 78.380078 0 1 4,14.263578 Z"
     id="path2937-9-5-9-3"
     style="fill:url(#linearGradient19413);fill-opacity:1;stroke:none;stroke-width:0.631" />
  <path
     d="M 12,12.263376 A 1.2462304,1.5899875 78.380078 1 1 9.0003469,11.716653 1.2462304,1.5899875 78.380078 0 1 12,12.263376 Z"
     id="path1551"
     style="fill:url(#linearGradient1553);fill-opacity:1;stroke:none;stroke-width:0.631" />
</svg>
