<?xml version="1.0" encoding="UTF-8" standalone="no"?>
<svg
   id="svg3810"
   height="24"
   width="24"
   version="1.1"
   sodipodi:docname="edit-delete.svg"
   inkscape:version="1.2.2 (b0a8486541, 2022-12-01)"
   xmlns:inkscape="http://www.inkscape.org/namespaces/inkscape"
   xmlns:sodipodi="http://sodipodi.sourceforge.net/DTD/sodipodi-0.dtd"
   xmlns:xlink="http://www.w3.org/1999/xlink"
   xmlns="http://www.w3.org/2000/svg"
   xmlns:svg="http://www.w3.org/2000/svg"
   xmlns:rdf="http://www.w3.org/1999/02/22-rdf-syntax-ns#"
   xmlns:cc="http://creativecommons.org/ns#"
   xmlns:dc="http://purl.org/dc/elements/1.1/">
  <sodipodi:namedview
     id="namedview24"
     pagecolor="#ffffff"
     bordercolor="#666666"
     borderopacity="1.0"
     inkscape:pageshadow="2"
     inkscape:pageopacity="0.0"
     inkscape:pagecheckerboard="0"
     showgrid="false"
     inkscape:zoom="22.125"
     inkscape:cx="7.7740113"
     inkscape:cy="10.870056"
     inkscape:window-width="1396"
     inkscape:window-height="896"
     inkscape:window-x="434"
     inkscape:window-y="119"
     inkscape:window-maximized="0"
     inkscape:current-layer="svg3810"
     inkscape:showpageshadow="2"
     inkscape:deskcolor="#d1d1d1" />
  <defs
     id="defs3812">
    <linearGradient
       gradientTransform="matrix(0.24324324,0,0,0.35135133,2.1621636,-0.43242804)"
       gradientUnits="userSpaceOnUse"
       xlink:href="#linearGradient3977"
       id="linearGradient3988"
       y2="41.076912"
       x2="23.99999"
       y1="6.9230647"
       x1="23.99999" />
    <linearGradient
       id="linearGradient3977">
      <stop
         offset="0"
         style="stop-color:#ffffff;stop-opacity:1"
         id="stop3979" />
      <stop
         offset="0"
         style="stop-color:#ffffff;stop-opacity:0.23529412"
         id="stop3981" />
      <stop
         offset="1"
         style="stop-color:#ffffff;stop-opacity:0.15686275"
         id="stop3983" />
      <stop
         offset="1"
         style="stop-color:#ffffff;stop-opacity:0.39215687"
         id="stop3985" />
    </linearGradient>
    <linearGradient
       id="linearGradient3600">
      <stop
         offset="0"
         style="stop-color:#f4f4f4;stop-opacity:1"
         id="stop3602" />
      <stop
         offset="1"
         style="stop-color:#dbdbdb;stop-opacity:1"
         id="stop3604" />
    </linearGradient>
    <linearGradient
       gradientTransform="matrix(0.28571361,0,0,0.30419701,1.1428727,0.2326048)"
       gradientUnits="userSpaceOnUse"
       xlink:href="#linearGradient3600"
       id="linearGradient3806"
       y2="47.013336"
       x2="25.132275"
       y1="0.98520643"
       x1="25.132275" />
    <linearGradient
       id="linearGradient3104-9">
      <stop
         offset="0"
         style="stop-color:#000000;stop-opacity:0.33950618"
         id="stop3106-5" />
      <stop
         offset="1"
         style="stop-color:#000000;stop-opacity:0.24691358"
         id="stop3108-5" />
    </linearGradient>
    <linearGradient
       gradientTransform="matrix(0.25378586,0,0,0.30501865,19.128979,-0.68547704)"
       gradientUnits="userSpaceOnUse"
       xlink:href="#linearGradient3104-9"
       id="linearGradient3019"
       y2="2.9062471"
       x2="-51.786404"
       y1="50.786446"
       x1="-51.786404" />
    <linearGradient
       xlink:href="#linearGradient947"
       id="linearGradient1054"
       gradientUnits="userSpaceOnUse"
       gradientTransform="matrix(0,-1,-1,0,-2.7715087,19.51972)"
       x1="13.445079"
       y1="-8.8364296"
       x2="9.542304"
       y2="-8.8364296" />
    <linearGradient
       id="linearGradient947">
      <stop
         offset="0"
         style="stop-color:#ed5353;stop-opacity:1"
         id="stop943" />
      <stop
         offset="1"
         style="stop-color:#c6262e;stop-opacity:1"
         id="stop945" />
    </linearGradient>
    <linearGradient
       gradientTransform="matrix(0.31772733,0,0,0.13938333,-0.61723745,4.7764592)"
       gradientUnits="userSpaceOnUse"
       xlink:href="#linearGradient4333"
       id="linearGradient3030-1"
       y2="23.137005"
       x2="24.138529"
       y1="22.844936"
       x1="24.138529" />
    <linearGradient
       id="linearGradient4333">
      <stop
         id="stop4335"
         style="stop-color:#ffffff;stop-opacity:1"
         offset="0" />
      <stop
         id="stop4337"
         style="stop-color:#ffffff;stop-opacity:0.23529412"
         offset="0.99999797" />
      <stop
         id="stop4339"
         style="stop-color:#ffffff;stop-opacity:0.15686275"
         offset="1" />
      <stop
         id="stop4341"
         style="stop-color:#ffffff;stop-opacity:0.39215687"
         offset="1" />
    </linearGradient>
  </defs>
  <metadata
     id="metadata3815">
    <rdf:RDF>
      <cc:Work
         rdf:about="">
        <dc:format>image/svg+xml</dc:format>
        <dc:type
           rdf:resource="http://purl.org/dc/dcmitype/StillImage" />
      </cc:Work>
    </rdf:RDF>
  </metadata>
  <path
     id="rect1095"
     style="opacity:0.8;fill:#ff362f;fill-opacity:1;stroke:#ff241d;stroke-width:0.795237;stroke-miterlimit:4;stroke-dasharray:none;stroke-opacity:1"
     d="m 6.9847759,8.5620942 c 0,0 0.4917003,2.4256708 1.4021392,2.2887748 1.4950255,-0.224795 1.3239673,-1.7794168 1.7566259,-2.780859 0.694714,-1.607995 1.299627,-5.0715334 1.299627,-5.0715334 0,0 2.151177,2.9860735 3.207801,4.4915035 0.62816,0.8949803 0.746249,2.5701179 1.861806,2.6995019 0.776137,0.09002 1.723441,-1.5280227 1.723441,-1.5280227 0,0 2.576064,8.7229217 -0.325314,11.2180427 C 14.798381,22.556193 8.021217,22.027167 5.420937,18.886307 3.1675586,16.164466 6.9847759,8.5620942 6.9847759,8.5620942 Z"
     sodipodi:nodetypes="csacaacaac" />
  <path
     id="path6235"
     style="opacity:0.8;fill:#ff6b66;fill-opacity:1;stroke:none;stroke-width:0.795237;stroke-miterlimit:4;stroke-dasharray:none;stroke-opacity:1"
     d="m 6.9847759,8.5620942 c 0,0 0.4917003,2.4256708 1.4021392,2.2887748 1.4950255,-0.224795 1.3239673,-1.7794168 1.7566259,-2.780859 0.694714,-1.607995 1.299627,-5.0715334 1.299627,-5.0715334 0,0 2.151177,2.9860735 3.207801,4.4915035 0.62816,0.8949803 0.746249,2.5701179 1.861806,2.6995019 0.776137,0.09002 1.723441,-1.5280227 1.723441,-1.5280227 0,0 2.576064,8.7229217 -0.325314,11.2180427 C 14.798381,22.556193 8.021217,22.027167 5.420937,18.886307 3.1675586,16.164466 6.9847759,8.5620942 6.9847759,8.5620942 Z"
     sodipodi:nodetypes="csacaacaac" />
  <path
     id="path3852"
     style="opacity:1;fill:#ffcb6b;fill-opacity:1;stroke-width:0.787942"
     d="m 9.016899,11.414857 c 0,0 0.997406,2.358765 1.987248,2.183736 1.450527,-0.256487 1.535036,-3.9864235 1.535036,-3.9864235 0,0 0.980008,1.1613435 1.483671,2.5304835 0.328425,0.892782 -0.143245,2.181055 0.673512,2.284038 0.926341,0.116772 1.433974,-2.313415 1.433974,-2.313415 0,0 1.422587,6.103514 -0.643686,7.790695 C 13.687449,21.373082 9.9630707,21.065161 8.4267104,19.34257 6.6323233,17.330675 9.016899,11.414857 9.016899,11.414857 Z"
     sodipodi:nodetypes="cacsacaac" />
</svg>
