<?xml version="1.0" encoding="UTF-8" standalone="no"?>
<svg
   width="16px"
   height="16px"
   id="svg9991"
   version="1.1"
   sodipodi:docname="emblem-music.svg"
   inkscape:version="1.2.2 (b0a8486541, 2022-12-01)"
   xmlns:inkscape="http://www.inkscape.org/namespaces/inkscape"
   xmlns:sodipodi="http://sodipodi.sourceforge.net/DTD/sodipodi-0.dtd"
   xmlns:xlink="http://www.w3.org/1999/xlink"
   xmlns="http://www.w3.org/2000/svg"
   xmlns:svg="http://www.w3.org/2000/svg"
   xmlns:rdf="http://www.w3.org/1999/02/22-rdf-syntax-ns#"
   xmlns:cc="http://creativecommons.org/ns#"
   xmlns:dc="http://purl.org/dc/elements/1.1/">
  <sodipodi:namedview
     id="namedview15"
     pagecolor="#ffffff"
     bordercolor="#666666"
     borderopacity="1.0"
     inkscape:pageshadow="2"
     inkscape:pageopacity="0.0"
     inkscape:pagecheckerboard="0"
     showgrid="false"
     inkscape:zoom="45.254834"
     inkscape:cx="8.2201163"
     inkscape:cy="8.9493202"
     inkscape:window-width="1326"
     inkscape:window-height="414"
     inkscape:window-x="271"
     inkscape:window-y="592"
     inkscape:window-maximized="0"
     inkscape:current-layer="svg9991"
     inkscape:showpageshadow="2"
     inkscape:deskcolor="#d1d1d1" />
  <defs
     id="defs9993">
    <linearGradient
       x1="2035.1652"
       y1="3208.0737"
       x2="2035.1652"
       y2="3241.9966"
       id="linearGradient11527-6-5"
       xlink:href="#linearGradient27416-1-5"
       gradientUnits="userSpaceOnUse"
       gradientTransform="matrix(0.57484957,0,0,0.4297553,-1164.0142,-1377.7718)" />
    <linearGradient
       id="linearGradient27416-1-5">
      <stop
         id="stop27420-2-2"
         style="stop-color:#8cd5ff;stop-opacity:1"
         offset="0" />
      <stop
         id="stop27422-3-2"
         style="stop-color:#64baff;stop-opacity:1"
         offset="1" />
    </linearGradient>
    <linearGradient
       x1="71.204407"
       y1="6.2375584"
       x2="71.204407"
       y2="44.340794"
       id="linearGradient12398-3"
       xlink:href="#linearGradient4011"
       gradientUnits="userSpaceOnUse"
       gradientTransform="matrix(0.35135153,0,0,0.35135153,-17.203685,-0.90930167)" />
    <linearGradient
       id="linearGradient4011">
      <stop
         offset="0"
         style="stop-color:#ffffff;stop-opacity:1"
         id="stop4013" />
      <stop
         offset="0.507761"
         style="stop-color:#ffffff;stop-opacity:0.23529412"
         id="stop4015" />
      <stop
         offset="0.83456558"
         style="stop-color:#ffffff;stop-opacity:0.15686275"
         id="stop4017" />
      <stop
         offset="1"
         style="stop-color:#ffffff;stop-opacity:0.39215687"
         id="stop4019" />
    </linearGradient>
  </defs>
  <metadata
     id="metadata9996">
    <rdf:RDF>
      <cc:Work
         rdf:about="">
        <dc:format>image/svg+xml</dc:format>
        <dc:type
           rdf:resource="http://purl.org/dc/dcmitype/StillImage" />
      </cc:Work>
    </rdf:RDF>
  </metadata>
  <path
     d="M 8,0.5 C 3.861757,0.5 0.5,3.8617571 0.5,8 c 0,4.138243 3.361757,7.5 7.5,7.5 4.138243,0 7.500007,-3.361757 7.5,-7.5 C 15.5,3.8617571 12.138243,0.5 8,0.5 Z"
     id="path2555-7-8-5-0-9"
     style="color:#000000;display:inline;overflow:visible;visibility:visible;opacity:0.99;fill:url(#linearGradient11527-6-5);fill-opacity:1;fill-rule:nonzero;stroke:none;stroke-width:1;marker:none;enable-background:accumulate" />
  <path
     d="M 8,0.5 C 3.861757,0.5 0.49999999,3.8617571 0.49999999,8 0.49999999,12.138243 3.861757,15.5 8,15.5 12.138243,15.5 15.500007,12.138243 15.5,8 15.5,3.8617571 12.138243,0.5 8,0.5 Z"
     id="path2555-7-8-5-1"
     style="color:#000000;display:inline;overflow:visible;visibility:visible;opacity:0.5;fill:none;stroke:#002e99;stroke-width:1;stroke-linecap:round;stroke-linejoin:round;stroke-miterlimit:4;stroke-dasharray:none;stroke-dashoffset:0;stroke-opacity:1;marker:none;enable-background:accumulate" />
  <path
     d="M 14.5,7.9997673 C 14.5,11.58974 11.589634,14.500004 8.000079,14.500004 4.410195,14.500004 1.5,11.589706 1.5,7.9997673 1.5,4.4099659 4.410195,1.4999965 8.000079,1.4999965 11.589634,1.4999965 14.5,4.4099659 14.5,7.9997673 Z"
     id="path8655-6-0-9-5-0"
     style="color:#000000;display:inline;overflow:visible;visibility:visible;opacity:0.5;fill:none;stroke:url(#linearGradient12398-3);stroke-width:1;stroke-linecap:round;stroke-linejoin:round;stroke-miterlimit:4;stroke-dasharray:none;stroke-dashoffset:0;stroke-opacity:1;marker:none;enable-background:accumulate" />
  <path
     style="color:#000000;fill:#002e99;fill-opacity:0.07;stroke-linejoin:round;-inkscape-stroke:none"
     d="m 11.492188,2.5783792 c -0.370483,-0.078228 -0.689724,0.1130843 -0.6543,0.064453 -0.28533,0.043179 -0.596621,0.2114057 -0.540714,0.1743462 C 8.96948,3.297659 7.6548966,3.1175664 6.3359375,3.6191406 5.4434255,4.0851445 4.9371653,5.1200279 5.0019531,6.109375 4.997502,6.0580159 5.0012235,6.4971522 5,6.6395061 v 3.3085076 c -1.1321697,0.0056 -2.5013898,0.5004503 -2.9507532,1.6104553 0,0 0.669934,1.190383 1.9408558,2.181421 1.1450879,0.683671 1.9429719,1.07185 3.7569435,-0.454323 0.3271708,-0.272704 0.040684,-0.78426 0.498589,-0.08182 0.4250134,0.425916 1.0929178,0.467809 1.6647909,0.489647 1.455801,0.01793 2.934409,-1.067861 3.085919,-2.565491 C 13.030167,10.21803 12.984021,9.3059703 13,8.3946068 12.991122,6.8936684 13.017865,5.5907081 12.986434,4.0907964 12.889675,3.3212 12.252589,2.6993973 11.492188,2.5783792 Z M 10,7.1425781 V 8.6483087 C 9.3309222,8.5403521 8,9.4777629 8,9.097 V 7.921875 Z M 7.1777344,9.5749663 c 0.00289,0.00638 -0.013006,0.019424 0,0 z"
     id="path16514"
     sodipodi:nodetypes="ccscccccccccccccccscccc" />
  <path
     id="path16208"
     style="color:#000000;fill:#002e99;fill-opacity:0.5;stroke-linejoin:round;-inkscape-stroke:none"
     d="m 11.285156,3.5570253 c -0.111544,0.061184 -0.345443,0.05628 -0.574218,0.1738281 C 9.0562977,4.3222377 8.4560698,3.9027889 6.8046875,4.5015312 6.2482835,4.7974708 5.9614083,5.3870313 6,6.0503593 v 4.3613357 c -1.0547052,-0.4219218 -3.0670872,-0.05048 -3.3262592,1.31586 -0.00931,1.111095 0.7287657,1.518958 1.3973136,1.98976 0.650622,0.415632 2.4321729,0.121756 2.8742581,-1.095895 C 7.0667747,12.18222 7,11.267904 7,11.267904 V 7.25 L 11,5.9 V 9.6010118 C 9.9452947,9.1790888 8.5525601,9.6238098 8.0898438,10.684871 7.7705285,11.394375 8.1996763,12.260717 8.9140625,12.51898 10.011215,12.97247 11.523274,12.48415 11.945312,11.321715 12.066774,10.882515 12,9.9681993 12,9.9681993 V 4.2601503 C 11.963967,3.8051528 11.605876,3.6245992 11.285156,3.5570253 Z"
     sodipodi:nodetypes="cccccccccccccccccc" />
  <path
     id="path15318"
     style="color:#000000;fill:#ffffff;fill-opacity:1;stroke-linejoin:round;-inkscape-stroke:none"
     d="m 6.0004995,10.2 1,0.3 V 6.238 L 11.0005,4.8797381 V 8.9 l 0.999999,0.3 -2.78e-4,-5.9401625 C 11.868808,2.4917601 11.453892,2.5997961 10.710778,2.7313677 L 6.8043309,3.5014685 C 6.2479263,3.7974084 5.9620763,4.3872029 6.000668,5.0505316"
     sodipodi:nodetypes="cccscccccc" />
  <path
     id="path16108"
     style="color:#000000;fill:#ffffff;fill-opacity:1;stroke-width:1;stroke-linejoin:round;-inkscape-stroke:none"
     d="M 6.1969993,9.9922827 C 5.1264763,9.4254776 3.5822792,9.8581587 3.0902191,10.986509 c -0.3193156,0.709505 0.109562,1.674302 0.8239489,1.932567 1.0971537,0.45349 2.6097877,-0.03456 3.0318265,-1.196999 0.1214623,-0.4392 0.054505,-1.453685 0.054505,-1.453685"
     sodipodi:nodetypes="ccssc" />
  <path
     id="path16110"
     style="color:#000000;fill:#ffffff;fill-opacity:1;stroke-width:1;stroke-linejoin:round;-inkscape-stroke:none"
     d="M 11.196999,8.6921076 C 10.126476,8.1253025 8.6820857,8.5579836 8.1900256,9.6863336 7.87071,10.395839 8.2995876,11.460235 9.0139745,11.718499 c 1.0971535,0.45349 2.5099805,-0.03456 2.9320195,-1.196998 0.121462,-0.4392 0.05451,-1.5532844 0.05451,-1.5532844"
     sodipodi:nodetypes="ccssc" />
</svg>
