<?xml version="1.0" encoding="UTF-8" standalone="no"?>
<svg
   width="22"
   height="22"
   version="1.1"
   id="svg19197"
   sodipodi:docname="nm-stage01-connecting03-symbolic.svg"
   inkscape:version="1.2.2 (b0a8486541, 2022-12-01)"
   xmlns:inkscape="http://www.inkscape.org/namespaces/inkscape"
   xmlns:sodipodi="http://sodipodi.sourceforge.net/DTD/sodipodi-0.dtd"
   xmlns="http://www.w3.org/2000/svg"
   xmlns:svg="http://www.w3.org/2000/svg">
  <sodipodi:namedview
     id="namedview19199"
     pagecolor="#ffffff"
     bordercolor="#000000"
     borderopacity="0.25"
     inkscape:showpageshadow="2"
     inkscape:pageopacity="0.0"
     inkscape:pagecheckerboard="0"
     inkscape:deskcolor="#d1d1d1"
     showgrid="false"
     inkscape:zoom="50.25"
     inkscape:cx="5.7014925"
     inkscape:cy="7.960199"
     inkscape:window-width="1920"
     inkscape:window-height="1019"
     inkscape:window-x="0"
     inkscape:window-y="0"
     inkscape:window-maximized="1"
     inkscape:current-layer="svg19197" />
  <defs
     id="defs19191">
    <linearGradient
       id="linearGradient3605"
       x1="7"
       x2="19"
       y1="12"
       y2="5"
       gradientTransform="matrix(0.91821,-0.39609,-0.39609,-0.91821,4.7341053,26.771605)"
       gradientUnits="userSpaceOnUse">
      <stop
         offset="0"
         stop-color="#555761"
         stop-opacity=".5"
         id="stop19181" />
      <stop
         offset="1"
         stop-color="#555761"
         stop-opacity="0"
         id="stop19183" />
    </linearGradient>
    <linearGradient
       id="linearGradient3611"
       x1="7"
       x2="17"
       y1="12"
       y2="12"
       gradientTransform="matrix(-0.91821,0.39609,0.39609,0.91821,17.264805,-4.7717947)"
       gradientUnits="userSpaceOnUse">
      <stop
         offset="0"
         stop-color="#555761"
         id="stop19186" />
      <stop
         offset="1"
         stop-color="#555761"
         stop-opacity=".5"
         id="stop19188" />
    </linearGradient>
  </defs>
  <path
     fill="url(#linearGradient3611)"
     d="m 17.426805,8.2272053 c -1.531,-3.5498 -5.65,-5.1862 -9.1995997,-3.6549 -3.5498,1.5313 -5.1862,5.6504997 -3.6549,9.2004997 l 1.8364,-0.79218 c -1.0938,-2.5355 0.075423,-5.4778997 2.6106,-6.5714997 2.5354997,-1.0938 5.4776997,0.075056 6.5714997,2.6106 0.51492,1.1936997 2.3513,0.40149 1.8364,-0.79218 z"
     id="path19193"
     style="fill:url(#linearGradient3611)" />
  <path
     fill="url(#linearGradient3605)"
     d="m 17.426805,8.2272053 -1.8364,0.79218 c 1.0938,2.5354997 -0.07506,5.4776997 -2.6106,6.5714997 -2.5356,1.0938 -5.4776997,-0.07506 -6.5714997,-2.6106 l -1.8364,0.79218 c 1.5313,3.5498 5.6502997,5.1861 9.2000997,3.6548 3.5498,-1.5313 5.1861,-5.6503 3.6548,-9.2000997 z"
     id="path19195"
     style="opacity:0.5;fill:url(#linearGradient3605)" />
</svg>
