<?xml version="1.0" encoding="UTF-8" standalone="no"?>
<svg
   width="22"
   height="22"
   version="1.1"
   id="svg20085"
   sodipodi:docname="nm-stage01-connecting09-symbolic.svg"
   inkscape:version="1.2.2 (b0a8486541, 2022-12-01)"
   xmlns:inkscape="http://www.inkscape.org/namespaces/inkscape"
   xmlns:sodipodi="http://sodipodi.sourceforge.net/DTD/sodipodi-0.dtd"
   xmlns="http://www.w3.org/2000/svg"
   xmlns:svg="http://www.w3.org/2000/svg">
  <sodipodi:namedview
     id="namedview20087"
     pagecolor="#ffffff"
     bordercolor="#000000"
     borderopacity="0.25"
     inkscape:showpageshadow="2"
     inkscape:pageopacity="0.0"
     inkscape:pagecheckerboard="0"
     inkscape:deskcolor="#d1d1d1"
     showgrid="false"
     inkscape:zoom="50.25"
     inkscape:cx="6.0995025"
     inkscape:cy="7.960199"
     inkscape:window-width="1920"
     inkscape:window-height="1019"
     inkscape:window-x="0"
     inkscape:window-y="0"
     inkscape:window-maximized="1"
     inkscape:current-layer="svg20085" />
  <defs
     id="defs20079">
    <linearGradient
       id="linearGradient3605"
       x1="7"
       x2="19"
       y1="12"
       y2="5"
       gradientTransform="matrix(-0.99831,0.058191,0.058191,0.99831,22.280975,-1.6773446)"
       gradientUnits="userSpaceOnUse">
      <stop
         offset="0"
         stop-color="#555761"
         stop-opacity=".5"
         id="stop20069" />
      <stop
         offset="1"
         stop-color="#555761"
         stop-opacity="0"
         id="stop20071" />
    </linearGradient>
    <linearGradient
       id="linearGradient3611"
       x1="7"
       x2="17"
       y1="12"
       y2="12"
       gradientTransform="matrix(0.99831,-0.058191,-0.058191,-0.99831,-0.28131463,23.678455)"
       gradientUnits="userSpaceOnUse">
      <stop
         offset="0"
         stop-color="#555761"
         id="stop20074" />
      <stop
         offset="1"
         stop-color="#555761"
         stop-opacity=".5"
         id="stop20076" />
    </linearGradient>
  </defs>
  <path
     fill="url(#linearGradient3611)"
     d="m 4.0119754,11.407455 c 0.22497,3.8594 3.536,6.8058 7.3954996,6.5808 3.8594,-0.22497 6.8058,-3.536 6.5808,-7.3955 l -1.9966,0.11638 c 0.16069,2.7567 -1.9439,5.1218 -4.7006,5.2825 -2.7557996,0.162 -5.1207996,-1.942 -5.2814996,-4.699 -0.0757,-1.2979996 -2.0723001,-1.181 -1.9966,0.116 z"
     id="path20081"
     style="fill:url(#linearGradient3611)" />
  <path
     fill="url(#linearGradient3605)"
     d="m 4.0119754,11.407455 1.9966,-0.116 c -0.1607,-2.7567996 1.9438,-5.1217996 4.7004996,-5.2824996 2.7567,-0.16069 5.1218,1.9439 5.2825,4.7005996 l 1.9966,-0.11638 c -0.226,-3.8597996 -3.537,-6.8060997 -7.396,-6.5810996 -3.8597996,0.2249 -6.8060997,3.536 -6.5810996,7.3950996 z"
     id="path20083"
     style="opacity:0.5;fill:url(#linearGradient3605)" />
</svg>
