<?xml version="1.0" encoding="UTF-8" standalone="no"?>
<svg
   width="22"
   height="22"
   version="1.1"
   id="svg20381"
   sodipodi:docname="nm-stage01-connecting11-symbolic.svg"
   inkscape:version="1.2.2 (b0a8486541, 2022-12-01)"
   xmlns:inkscape="http://www.inkscape.org/namespaces/inkscape"
   xmlns:sodipodi="http://sodipodi.sourceforge.net/DTD/sodipodi-0.dtd"
   xmlns="http://www.w3.org/2000/svg"
   xmlns:svg="http://www.w3.org/2000/svg">
  <sodipodi:namedview
     id="namedview20383"
     pagecolor="#ffffff"
     bordercolor="#000000"
     borderopacity="0.25"
     inkscape:showpageshadow="2"
     inkscape:pageopacity="0.0"
     inkscape:pagecheckerboard="0"
     inkscape:deskcolor="#d1d1d1"
     showgrid="false"
     inkscape:zoom="50.25"
     inkscape:cx="5.7014925"
     inkscape:cy="7.960199"
     inkscape:window-width="1920"
     inkscape:window-height="1019"
     inkscape:window-x="0"
     inkscape:window-y="0"
     inkscape:window-maximized="1"
     inkscape:current-layer="svg20381" />
  <defs
     id="defs20375">
    <linearGradient
       id="linearGradient3605"
       x1="7"
       x2="19"
       y1="12"
       y2="5"
       gradientTransform="matrix(-0.44885,-0.89361,-0.89361,0.44885,27.108955,16.336901)"
       gradientUnits="userSpaceOnUse">
      <stop
         offset="0"
         stop-color="#555761"
         stop-opacity=".5"
         id="stop20365" />
      <stop
         offset="1"
         stop-color="#555761"
         stop-opacity="0"
         id="stop20367" />
    </linearGradient>
    <linearGradient
       id="linearGradient3611"
       x1="7"
       x2="17"
       y1="12"
       y2="12"
       gradientTransform="matrix(0.44885,0.89361,0.89361,-0.44885,-5.1099451,5.6632013)"
       gradientUnits="userSpaceOnUse">
      <stop
         offset="0"
         stop-color="#555761"
         id="stop20370" />
      <stop
         offset="1"
         stop-color="#555761"
         stop-opacity=".5"
         id="stop20372" />
    </linearGradient>
  </defs>
  <path
     fill="url(#linearGradient3611)"
     d="m 7.8575549,4.7451013 c -3.4547,1.7353 -4.8485,5.9424997 -3.1133,9.3971997 1.7353,3.4547 5.9425001,4.8485 9.3972001,3.1133 l -0.898,-1.787 c -2.467,1.239 -5.4726001,0.244 -6.7120001,-2.224 -1.2395,-2.467 -0.2439,-5.4725997 2.2237,-6.7119997 1.1613,-0.5835 0.2643,-2.3708 -0.8977,-1.7872 z"
     id="path20377"
     style="fill:url(#linearGradient3611)" />
  <path
     fill="url(#linearGradient3605)"
     d="m 7.8575549,4.7451013 0.8977,1.7872 c 2.4673001,-1.2395 5.4733001,-0.2439 6.7123001,2.2237 1.239,2.4672997 0.244,5.4732997 -2.224,6.7122997 l 0.8977,1.7872 c 3.455,-1.735 4.849,-5.942 3.113,-9.3969997 -1.735,-3.4546 -5.942,-4.8485 -9.3970001,-3.1132 z"
     id="path20379"
     style="opacity:0.5;fill:url(#linearGradient3605)" />
</svg>
