<?xml version="1.0" encoding="UTF-8" standalone="no"?>
<svg
   width="22"
   height="22"
   version="1.1"
   id="svg58586"
   sodipodi:docname="nm-vpn-connecting09-symbolic.svg"
   inkscape:version="1.2.2 (b0a8486541, 2022-12-01)"
   xmlns:inkscape="http://www.inkscape.org/namespaces/inkscape"
   xmlns:sodipodi="http://sodipodi.sourceforge.net/DTD/sodipodi-0.dtd"
   xmlns="http://www.w3.org/2000/svg"
   xmlns:svg="http://www.w3.org/2000/svg">
  <sodipodi:namedview
     id="namedview58588"
     pagecolor="#ffffff"
     bordercolor="#000000"
     borderopacity="0.25"
     inkscape:showpageshadow="2"
     inkscape:pageopacity="0.0"
     inkscape:pagecheckerboard="0"
     inkscape:deskcolor="#d1d1d1"
     showgrid="false"
     inkscape:zoom="36.545455"
     inkscape:cx="4.8980099"
     inkscape:cy="11.054726"
     inkscape:window-width="1920"
     inkscape:window-height="1019"
     inkscape:window-x="0"
     inkscape:window-y="0"
     inkscape:window-maximized="1"
     inkscape:current-layer="svg58586" />
  <defs
     id="defs58578">
    <linearGradient
       id="linearGradient3605"
       x1="7"
       x2="19"
       y1="12"
       y2="5"
       gradientTransform="matrix(-0.43209,0.90183,0.90183,0.43209,5.3638123,-5.0073142)"
       gradientUnits="userSpaceOnUse">
      <stop
         offset="0"
         stop-color="#555761"
         stop-opacity=".5"
         id="stop58568" />
      <stop
         offset="1"
         stop-color="#555761"
         stop-opacity="0"
         id="stop58570" />
    </linearGradient>
    <linearGradient
       id="linearGradient3611"
       x1="7"
       x2="17"
       y1="12"
       y2="12"
       gradientTransform="matrix(0.43209,-0.90183,-0.90183,-0.43209,16.637112,27.006686)"
       gradientUnits="userSpaceOnUse">
      <stop
         offset="0"
         stop-color="#555761"
         id="stop58573" />
      <stop
         offset="1"
         stop-color="#555761"
         stop-opacity=".5"
         id="stop58575" />
    </linearGradient>
  </defs>
  <path
     style="fill:url(#linearGradient3611)"
     d="m 14.025112,4.6871858 -0.865,1.8027 c 1.794,0.8592 2.813,2.6498 2.811,4.5138002 0.01,0 0.019,-0.004 0.029,-0.004 0.743,0 1.411,0.288 1.932,0.744 0.307,-2.8653002 -1.158,-5.7402002 -3.907,-7.0565002 z M 8.4181123,15.401186 c -0.9348,-0.023 -1.4673,1.418 -0.4414,1.909 1.3023,0.624 2.6943997,0.783 4.0233997,0.587 v -2.031 c -1.033,0.216 -2.1349997,0.133 -3.1601997,-0.357 -0.1465,-0.07 -0.2883,-0.104 -0.4218,-0.108 z"
     id="path58580" />
  <path
     style="opacity:0.5;fill:url(#linearGradient3605)"
     d="m 11.330112,4.0055858 c -2.7248997,-0.1273 -5.3895997,1.3539 -6.6424997,3.9687 -1.6703999,3.4864002 -0.1974,7.6674002 3.2891,9.3374002 l 0.8632,-1.802 c -2.4903,-1.193 -3.5408,-4.18 -2.3476,-6.6702002 1.1931,-2.4903 4.1787997,-3.5428 6.6697997,-2.3496 l 0.863,-1.8027 c -0.871,-0.4176 -1.787,-0.6392 -2.695,-0.6816 z"
     id="path58582" />
  <path
     fill="#555761"
     d="m 16.000112,11.999686 c -1.108,0 -2,0.91085 -2,2.0312 v 0.96875 h -1 v 4 h 6 v -4 h -1 v -0.96875 c 0,-1.12 -0.892,-2.031 -2,-2.031 z m 0,1 c 0.554,0 1,0.4424 1,1 v 1 h -2 v -1 c 0,-0.5576 0.446,-1 1,-1 z"
     id="path58584" />
</svg>
