<?xml version="1.0" encoding="UTF-8" standalone="no"?>
<svg
   width="22"
   height="22"
   version="1.1"
   id="svg56591"
   sodipodi:docname="nm-vpn-connecting03.svg"
   inkscape:version="1.2.2 (b0a8486541, 2022-12-01)"
   xmlns:inkscape="http://www.inkscape.org/namespaces/inkscape"
   xmlns:sodipodi="http://sodipodi.sourceforge.net/DTD/sodipodi-0.dtd"
   xmlns="http://www.w3.org/2000/svg"
   xmlns:svg="http://www.w3.org/2000/svg">
  <sodipodi:namedview
     id="namedview56593"
     pagecolor="#ffffff"
     bordercolor="#000000"
     borderopacity="0.25"
     inkscape:showpageshadow="2"
     inkscape:pageopacity="0.0"
     inkscape:pagecheckerboard="0"
     inkscape:deskcolor="#d1d1d1"
     showgrid="false"
     inkscape:zoom="36.545455"
     inkscape:cx="6.1293532"
     inkscape:cy="11.054726"
     inkscape:window-width="1920"
     inkscape:window-height="1019"
     inkscape:window-x="0"
     inkscape:window-y="0"
     inkscape:window-maximized="1"
     inkscape:current-layer="svg56591" />
  <defs
     id="defs56583">
    <linearGradient
       id="linearGradient3605"
       x1="7"
       x2="19"
       y1="12"
       y2="5"
       gradientTransform="matrix(0.78152,-0.62388,-0.62388,-0.78152,9.1092224,27.864928)"
       gradientUnits="userSpaceOnUse">
      <stop
         offset="0"
         stop-color="#444444"
         stop-opacity=".5"
         id="stop56573"
         style="stop-color:#64baff;stop-opacity:0.5;" />
      <stop
         offset="1"
         stop-color="#444444"
         stop-opacity="0"
         id="stop56575"
         style="stop-color:#64baff;stop-opacity:0;" />
    </linearGradient>
    <linearGradient
       id="linearGradient3611"
       x1="7"
       x2="17"
       y1="12"
       y2="12"
       gradientTransform="matrix(-0.78152,0.62388,0.62388,0.78152,12.892322,-5.8648715)"
       gradientUnits="userSpaceOnUse">
      <stop
         offset="0"
         stop-color="#444444"
         id="stop56578"
         style="stop-color:#64baff;stop-opacity:1" />
      <stop
         offset="1"
         stop-color="#444444"
         stop-opacity=".5"
         id="stop56580"
         style="stop-color:#64baff;stop-opacity:0.5;" />
    </linearGradient>
  </defs>
  <path
     style="fill:url(#linearGradient3611)"
     d="m 11.111322,3.9999285 c -1.5679996,-0.0255 -3.1561996,0.474 -4.4781996,1.5293 -3.0213999,2.4119 -3.5153999,6.8166995 -1.1035,9.8376995 l 1.5625,-1.248 c -1.7228,-2.158 -1.3687,-5.3046995 0.7891,-7.0271995 2.1580996,-1.7228 5.3040996,-1.369 7.0270996,0.7891 0.811,1.016 2.374,-0.2321 1.563,-1.2481 -1.357,-1.6995 -3.343,-2.6 -5.36,-2.6328 z"
     id="path56585" />
  <path
     style="fill:url(#linearGradient3605)"
     d="m 16.471322,6.6327285 -1.563,1.2481 c 0.737,0.9229 1.067,2.0253 1.065,3.1210995 0.009,0 0.018,-0.002 0.027,-0.002 0.751,0 1.426,0.294 1.949,0.76 0.195,-1.7742995 -0.277,-3.6217995 -1.478,-5.1271995 z m -9.3771996,7.4861995 -1.5645,1.248 c 1.6064,2.013 4.094,2.88 6.4706996,2.537 v -2.029 c -1.781,0.365 -3.6939996,-0.237 -4.9061996,-1.756 z"
     id="path56587" />
  <path
     fill="#444444"
     d="m 16.000322,11.999928 c -1.108,0 -2,0.91085 -2,2.0312 v 0.96875 h -1 v 4 h 6 v -4 h -1 v -0.96875 c 0,-1.12 -0.892,-2.031 -2,-2.031 z m 0,1 c 0.554,0 1,0.4424 1,1 v 1 h -2 v -1 c 0,-0.5576 0.446,-1 1,-1 z"
     id="path56589"
     style="fill:#f9c440" />
</svg>
