<?xml version="1.0" encoding="UTF-8" standalone="no"?>
<svg
   width="22"
   height="22"
   version="1.1"
   id="svg57921"
   sodipodi:docname="nm-vpn-connecting07-symbolic.svg"
   inkscape:version="1.2.2 (b0a8486541, 2022-12-01)"
   xmlns:inkscape="http://www.inkscape.org/namespaces/inkscape"
   xmlns:sodipodi="http://sodipodi.sourceforge.net/DTD/sodipodi-0.dtd"
   xmlns="http://www.w3.org/2000/svg"
   xmlns:svg="http://www.w3.org/2000/svg">
  <sodipodi:namedview
     id="namedview57923"
     pagecolor="#ffffff"
     bordercolor="#000000"
     borderopacity="0.25"
     inkscape:showpageshadow="2"
     inkscape:pageopacity="0.0"
     inkscape:pagecheckerboard="0"
     inkscape:deskcolor="#d1d1d1"
     showgrid="false"
     inkscape:zoom="36.545455"
     inkscape:cx="5.5820895"
     inkscape:cy="11.027363"
     inkscape:window-width="1920"
     inkscape:window-height="1019"
     inkscape:window-x="0"
     inkscape:window-y="0"
     inkscape:window-maximized="1"
     inkscape:current-layer="svg57921" />
  <defs
     id="defs57913">
    <linearGradient
       id="linearGradient3605"
       x1="7"
       x2="19"
       y1="12"
       y2="5"
       gradientTransform="matrix(0.43523,0.90032,0.90032,-0.43523,-5.0259688,5.4187429)"
       gradientUnits="userSpaceOnUse">
      <stop
         offset="0"
         stop-color="#555761"
         stop-opacity=".5"
         id="stop57903" />
      <stop
         offset="1"
         stop-color="#555761"
         stop-opacity="0"
         id="stop57905" />
    </linearGradient>
    <linearGradient
       id="linearGradient3611"
       x1="7"
       x2="17"
       y1="12"
       y2="12"
       gradientTransform="matrix(-0.43523,-0.90032,-0.90032,0.43523,27.027031,16.580943)"
       gradientUnits="userSpaceOnUse">
      <stop
         offset="0"
         stop-color="#555761"
         id="stop57908" />
      <stop
         offset="1"
         stop-color="#555761"
         stop-opacity=".5"
         id="stop57910" />
    </linearGradient>
  </defs>
  <path
     style="fill:url(#linearGradient3611)"
     d="m 11.326031,4.0058429 c -1.127,-0.0535 -2.2852998,0.1656 -3.3728998,0.6914 l 0.8711,1.8007 c 2.4867998,-1.202 5.4767998,-0.1596 6.6777998,2.3262 0.34,0.704 0.482,1.4458001 0.477,2.1778001 0.007,0 0.014,-0.002 0.021,-0.002 0.743,0 1.411,0.288 1.932,0.744 0.138,-1.259 -0.038,-2.5664001 -0.629,-3.7909001 -1.157,-2.3929 -3.496,-3.8297 -5.977,-3.9472 z"
     id="path57915" />
  <path
     style="opacity:0.5;fill:url(#linearGradient3605)"
     d="m 7.9531312,4.6972429 c -3.4806,1.6826 -4.9384001,5.8687001 -3.2558,9.3497001 1.3617,2.817 4.3626,4.298 7.3026998,3.871 v -2.045 c -2.1894998,0.45 -4.4846998,-0.593 -5.5019998,-2.697 -1.2018,-2.486 -0.1599,-5.4761001 2.3262,-6.6780001 z"
     id="path57917" />
  <path
     fill="#555761"
     d="m 16.000031,11.999943 c -1.108,0 -2,0.91085 -2,2.0312 v 0.96875 h -1 v 4 h 6 v -4 h -1 v -0.96875 c 0,-1.12 -0.892,-2.031 -2,-2.031 z m 0,1 c 0.554,0 1,0.4424 1,1 v 1 h -2 v -1 c 0,-0.5576 0.446,-1 1,-1 z"
     id="path57919" />
</svg>
