<?xml version="1.0" encoding="UTF-8" standalone="no"?>
<svg
   width="22"
   height="22"
   version="1.1"
   id="svg58888"
   sodipodi:docname="nm-vpn-connecting11-symbolic.svg"
   inkscape:version="1.2.2 (b0a8486541, 2022-12-01)"
   xmlns:inkscape="http://www.inkscape.org/namespaces/inkscape"
   xmlns:sodipodi="http://sodipodi.sourceforge.net/DTD/sodipodi-0.dtd"
   xmlns="http://www.w3.org/2000/svg"
   xmlns:svg="http://www.w3.org/2000/svg">
  <sodipodi:namedview
     id="namedview58890"
     pagecolor="#ffffff"
     bordercolor="#000000"
     borderopacity="0.25"
     inkscape:showpageshadow="2"
     inkscape:pageopacity="0.0"
     inkscape:pagecheckerboard="0"
     inkscape:deskcolor="#d1d1d1"
     showgrid="false"
     inkscape:zoom="36.545455"
     inkscape:cx="4.8980099"
     inkscape:cy="11.054726"
     inkscape:window-width="1920"
     inkscape:window-height="1019"
     inkscape:window-x="0"
     inkscape:window-y="0"
     inkscape:window-maximized="1"
     inkscape:current-layer="svg58888" />
  <defs
     id="defs58880">
    <linearGradient
       id="linearGradient3605"
       x1="7"
       x2="19"
       y1="12"
       y2="5"
       gradientTransform="matrix(-0.97437,0.22495,0.22495,0.97437,19.99328,-3.3914148)"
       gradientUnits="userSpaceOnUse">
      <stop
         offset="0"
         stop-color="#555761"
         stop-opacity=".5"
         id="stop58870" />
      <stop
         offset="1"
         stop-color="#555761"
         stop-opacity="0"
         id="stop58872" />
    </linearGradient>
    <linearGradient
       id="linearGradient3611"
       x1="7"
       x2="17"
       y1="12"
       y2="12"
       gradientTransform="matrix(0.97437,-0.22495,-0.22495,-0.97437,2.0078801,25.392185)"
       gradientUnits="userSpaceOnUse">
      <stop
         offset="0"
         stop-color="#555761"
         id="stop58875" />
      <stop
         offset="1"
         stop-color="#555761"
         stop-opacity=".5"
         id="stop58877" />
    </linearGradient>
  </defs>
  <path
     style="fill:url(#linearGradient3611)"
     d="m 17.82028,9.4259852 -1.947,0.4492 c 0.088,0.3799998 0.105,0.7559998 0.098,1.1289998 0.01,0 0.019,-0.004 0.029,-0.004 0.752,0 1.428,0.295 1.951,0.762 0.085,-0.761 0.052,-1.547 -0.131,-2.3361998 z M 5.3072801,11.377185 c -0.6166,-0.066 -1.3097,0.406 -1.1269,1.197 0.8252,3.575 4.2538,5.862 7.8202999,5.344 v -2.023 c -2.6482999,0.541 -5.2594999,-1.121 -5.8710999,-3.77 -0.1097,-0.475 -0.4523,-0.708 -0.8223,-0.748 z"
     id="path58882" />
  <path
     style="opacity:0.5;fill:url(#linearGradient3605)"
     d="m 10.83228,4.0001852 c -0.465,0.0117 -0.9352999,0.071 -1.4061999,0.1797 -3.7672,0.8696 -6.1158,4.6276 -5.2461,8.3942998 l 1.9492,-0.449 c -0.6212,-2.6905998 1.0555,-5.3748998 3.7461,-5.9960998 2.6909999,-0.6212 5.3769999,1.0555 5.9979999,3.7461 l 1.947,-0.4492 c -0.761,-3.2965 -3.733,-5.5074 -6.988,-5.4258 z"
     id="path58884" />
  <path
     fill="#555761"
     d="m 16.00028,12.000185 c -1.108,0 -2,0.91085 -2,2.0312 v 0.96875 h -1 v 4 h 6 v -4 h -1 v -0.96875 c 0,-1.12 -0.892,-2.031 -2,-2.031 z m 0,1 c 0.554,0 1,0.4424 1,1 v 1 h -2 v -1 c 0,-0.5576 0.446,-1 1,-1 z"
     id="path58886" />
</svg>
