<?xml version="1.0" encoding="UTF-8" standalone="no"?>
<svg
   width="22"
   height="22"
   version="1.1"
   id="svg4688"
   sodipodi:docname="nm-vpn-connecting01-symbolic.svg"
   inkscape:version="1.2.2 (b0a8486541, 2022-12-01)"
   xmlns:inkscape="http://www.inkscape.org/namespaces/inkscape"
   xmlns:sodipodi="http://sodipodi.sourceforge.net/DTD/sodipodi-0.dtd"
   xmlns="http://www.w3.org/2000/svg"
   xmlns:svg="http://www.w3.org/2000/svg">
  <sodipodi:namedview
     id="namedview4690"
     pagecolor="#ffffff"
     bordercolor="#000000"
     borderopacity="0.25"
     inkscape:showpageshadow="2"
     inkscape:pageopacity="0.0"
     inkscape:pagecheckerboard="0"
     inkscape:deskcolor="#d1d1d1"
     showgrid="false"
     inkscape:zoom="12.92077"
     inkscape:cx="6.9655294"
     inkscape:cy="18.884324"
     inkscape:window-width="1278"
     inkscape:window-height="1005"
     inkscape:window-x="521"
     inkscape:window-y="12"
     inkscape:window-maximized="0"
     inkscape:current-layer="svg4688" />
  <defs
     id="defs4680">
    <linearGradient
       id="linearGradient3605"
       x1="7"
       x2="19"
       y1="12"
       y2="5"
       gradientTransform="matrix(0,-1,-1,0,23,23)"
       gradientUnits="userSpaceOnUse">
      <stop
         offset="0"
         stop-color="#555761"
         stop-opacity=".5"
         id="stop4670" />
      <stop
         offset="1"
         stop-color="#555761"
         stop-opacity="0"
         id="stop4672" />
    </linearGradient>
    <linearGradient
       id="linearGradient3611"
       x1="7"
       x2="17"
       y1="12"
       y2="12"
       gradientTransform="matrix(0,1,1,0,-1,-0.99995)"
       gradientUnits="userSpaceOnUse">
      <stop
         offset="0"
         stop-color="#555761"
         id="stop4675" />
      <stop
         offset="1"
         stop-color="#555761"
         stop-opacity=".5"
         id="stop4677" />
    </linearGradient>
  </defs>
  <path
     style="fill:url(#linearGradient3611)"
     d="m 11,4 c -3.866,0 -7,3.134 -7,7 0,3.866 3.134,7 7,7 V 16 C 8.2386,16 6,13.761 6,11 6,8.2386 8.2386,6 11,6 12.3,6 12.3,4 11,4 Z"
     id="path4682" />
  <path
     style="opacity:0.5;fill:url(#linearGradient3605)"
     d="m 11,4 v 2 c 2.761,0 5,2.2386 5,5 0.75,0 1.424,0.294 1.947,0.758 C 17.979,11.509 18,11.257 18,11 18,7.134 14.866,4 11,4 Z m 1,11.885 C 11.676,15.952 11.345,16 11,16 v 2 c 0.342,0 0.673,-0.041 1,-0.094 z"
     id="path4684" />
  <path
     fill="#555761"
     d="m 16,12 c -1.108,0 -2,0.91085 -2,2.0312 v 0.969 h -1 v 4 h 6 v -4 h -1 v -0.96875 c 0,-1.12 -0.892,-2.031 -2,-2.031 z m 0,1 c 0.554,0 1,0.4424 1,1 v 1 h -2 v -1 c 0,-0.5576 0.446,-1 1,-1 z"
     id="path4686" />
</svg>
