<?xml version="1.0" encoding="UTF-8" standalone="no"?>
<svg
   width="22"
   height="22"
   version="1.1"
   id="svg56030"
   sodipodi:docname="nm-vpn-connecting02-symbolic.svg"
   inkscape:version="1.2.2 (b0a8486541, 2022-12-01)"
   xmlns:inkscape="http://www.inkscape.org/namespaces/inkscape"
   xmlns:sodipodi="http://sodipodi.sourceforge.net/DTD/sodipodi-0.dtd"
   xmlns="http://www.w3.org/2000/svg"
   xmlns:svg="http://www.w3.org/2000/svg">
  <sodipodi:namedview
     id="namedview56032"
     pagecolor="#ffffff"
     bordercolor="#000000"
     borderopacity="0.25"
     inkscape:showpageshadow="2"
     inkscape:pageopacity="0.0"
     inkscape:pagecheckerboard="0"
     inkscape:deskcolor="#d1d1d1"
     showgrid="false"
     inkscape:zoom="36.545455"
     inkscape:cx="6.1567163"
     inkscape:cy="10.945273"
     inkscape:window-width="1920"
     inkscape:window-height="1019"
     inkscape:window-x="0"
     inkscape:window-y="0"
     inkscape:window-maximized="1"
     inkscape:current-layer="svg56030" />
  <defs
     id="defs56022">
    <linearGradient
       id="linearGradient3605"
       x1="7"
       x2="19"
       y1="12"
       y2="5"
       gradientTransform="matrix(0.43366,-0.90108,-0.90108,-0.43366,16.608771,27.018249)"
       gradientUnits="userSpaceOnUse">
      <stop
         offset="0"
         stop-color="#555761"
         stop-opacity=".5"
         id="stop56012" />
      <stop
         offset="1"
         stop-color="#555761"
         stop-opacity="0"
         id="stop56014" />
    </linearGradient>
    <linearGradient
       id="linearGradient3611"
       x1="7"
       x2="17"
       y1="12"
       y2="12"
       gradientTransform="matrix(-0.43366,0.90108,0.90108,0.43366,5.3903713,-5.0155512)"
       gradientUnits="userSpaceOnUse">
      <stop
         offset="0"
         stop-color="#555761"
         id="stop56017" />
      <stop
         offset="1"
         stop-color="#555761"
         stop-opacity=".5"
         id="stop56019" />
    </linearGradient>
  </defs>
  <path
     style="fill:url(#linearGradient3611)"
     d="m 11.341771,4.0071488 c -2.7252997,-0.132 -5.3912997,1.3462 -6.6485997,3.9589 -1.6765001,3.4832002 -0.2122,7.6672002 3.2714,9.3442002 l 0.8672,-1.803 c -2.4882,-1.198 -3.5352,-4.186 -2.3379,-6.6740002 1.1975,-2.4882 4.1858997,-3.5354 6.6738997,-2.3379 1.171,0.5638 2.039,-1.2369 0.867,-1.8007 -0.871,-0.4192 -1.785,-0.6435 -2.693,-0.6875 z"
     id="path56024" />
  <path
     style="opacity:0.5;fill:url(#linearGradient3605)"
     d="m 14.034771,4.6946488 -0.867,1.8007 c 1.789,0.8613 2.805,2.6485 2.803,4.5099002 0.01,0 0.019,-0.004 0.029,-0.004 0.742,0 1.409,0.287 1.93,0.742 0.306,-2.8601002 -1.154,-5.7297002 -3.895,-7.0486002 z m -5.2029997,10.8130002 -0.8672,1.803 c 1.305,0.627 2.7021997,0.787 4.0351997,0.591 v -2.035 c -1.036,0.217 -2.1408997,0.135 -3.1679997,-0.359 z"
     id="path56026" />
  <path
     fill="#555761"
     d="m 15.999771,12 c -1.108,0 -2,0.91085 -2,2.0312 v 0.96875 h -1 v 4 h 6 v -4 h -1 V 14.0312 c 0,-1.12 -0.892,-2.031 -2,-2.031 z m 0,1 c 0.554,0 1,0.4424 1,1 v 1 h -2 v -1 c 0,-0.5576 0.446,-1 1,-1 z"
     id="path56028" />
</svg>
