<?xml version="1.0" encoding="UTF-8" standalone="no"?>
<svg
   width="22"
   height="22"
   version="1.1"
   id="svg59039"
   sodipodi:docname="nm-vpn-connecting12.svg"
   inkscape:version="1.2.2 (b0a8486541, 2022-12-01)"
   xmlns:inkscape="http://www.inkscape.org/namespaces/inkscape"
   xmlns:sodipodi="http://sodipodi.sourceforge.net/DTD/sodipodi-0.dtd"
   xmlns="http://www.w3.org/2000/svg"
   xmlns:svg="http://www.w3.org/2000/svg">
  <sodipodi:namedview
     id="namedview59041"
     pagecolor="#ffffff"
     bordercolor="#000000"
     borderopacity="0.25"
     inkscape:showpageshadow="2"
     inkscape:pageopacity="0.0"
     inkscape:pagecheckerboard="0"
     inkscape:deskcolor="#d1d1d1"
     showgrid="false"
     inkscape:zoom="36.545455"
     inkscape:cx="6.1567163"
     inkscape:cy="10.945273"
     inkscape:window-width="1920"
     inkscape:window-height="1019"
     inkscape:window-x="0"
     inkscape:window-y="0"
     inkscape:window-maximized="1"
     inkscape:current-layer="svg59039" />
  <defs
     id="defs59031">
    <linearGradient
       id="linearGradient3605"
       x1="7"
       x2="19"
       y1="12"
       y2="5"
       gradientTransform="matrix(-0.97553,-0.21985,-0.21985,0.97553,25.344942,1.9321619)"
       gradientUnits="userSpaceOnUse">
      <stop
         offset="0"
         stop-color="#444444"
         stop-opacity=".5"
         id="stop59021"
         style="stop-color:#64baff;stop-opacity:0.5;" />
      <stop
         offset="1"
         stop-color="#444444"
         stop-opacity="0"
         id="stop59023"
         style="stop-color:#64baff;stop-opacity:0;" />
    </linearGradient>
    <linearGradient
       id="linearGradient3611"
       x1="7"
       x2="17"
       y1="12"
       y2="12"
       gradientTransform="matrix(0.97553,0.21985,0.21985,-0.97553,-3.344058,20.068362)"
       gradientUnits="userSpaceOnUse">
      <stop
         offset="0"
         stop-color="#444444"
         id="stop59026"
         style="stop-color:#64baff;stop-opacity:1" />
      <stop
         offset="1"
         stop-color="#444444"
         stop-opacity=".5"
         id="stop59028"
         style="stop-color:#64baff;stop-opacity:0.5;" />
    </linearGradient>
  </defs>
  <path
     style="fill:url(#linearGradient3611)"
     d="m 4.988242,8.7093619 c -0.3698,0.0416 -0.7092,0.2763 -0.8164,0.7519 -0.85,3.7711001 1.5176,7.5171001 5.289,8.3671001 0.8601,0.194 1.7161,0.207 2.5391,0.086 v -2.039 c -0.674,0.145 -1.383,0.164 -2.0996,0.002 -2.6947,-0.607 -4.3864,-3.282 -3.7793,-5.9747001 0.1786,-0.7928 -0.5166,-1.2626 -1.1328,-1.1933 z"
     id="path59033" />
  <path
     style="fill:url(#linearGradient3605)"
     d="m 11.132942,3.9983619 c -3.2554,-0.0644 -6.2174,2.1609 -6.9611,5.461 v 0.0019 l 1.9511,0.4395 c 0.6071,-2.6938 3.2824,-4.3845 5.977,-3.7774 2.324,0.524 3.878,2.5918 3.877,4.8790001 0.008,0 0.015,-0.002 0.023,-0.002 0.751,0 1.426,0.293 1.949,0.758 0.387,-3.4956001 -1.899,-6.7968001 -5.41,-7.5881001 -0.471,-0.1062 -0.941,-0.1626 -1.406,-0.1719 z"
     id="path59035" />
  <path
     fill="#444444"
     d="m 15.999942,12.000362 c -1.108,0 -2,0.91085 -2,2.0312 v 0.96875 h -1 v 4 h 6 v -4 h -1 v -0.96875 c 0,-1.12 -0.892,-2.031 -2,-2.031 z m 0,1 c 0.554,0 1,0.4424 1,1 v 1 h -2 v -1 c 0,-0.5576 0.446,-1 1,-1 z"
     id="path59037"
     style="fill:#f9c440" />
</svg>
