<?xml version="1.0" encoding="UTF-8" standalone="no"?>
<svg
   id="svg3810"
   height="32"
   width="32"
   version="1.1"
   sodipodi:docname="edit-delete.svg"
   inkscape:version="1.2.2 (b0a8486541, 2022-12-01)"
   xmlns:inkscape="http://www.inkscape.org/namespaces/inkscape"
   xmlns:sodipodi="http://sodipodi.sourceforge.net/DTD/sodipodi-0.dtd"
   xmlns:xlink="http://www.w3.org/1999/xlink"
   xmlns="http://www.w3.org/2000/svg"
   xmlns:svg="http://www.w3.org/2000/svg"
   xmlns:rdf="http://www.w3.org/1999/02/22-rdf-syntax-ns#"
   xmlns:cc="http://creativecommons.org/ns#"
   xmlns:dc="http://purl.org/dc/elements/1.1/">
  <sodipodi:namedview
     id="namedview24"
     pagecolor="#ffffff"
     bordercolor="#666666"
     borderopacity="1.0"
     inkscape:pageshadow="2"
     inkscape:pageopacity="0.0"
     inkscape:pagecheckerboard="0"
     showgrid="false"
     inkscape:zoom="22.125"
     inkscape:cx="7.7740113"
     inkscape:cy="10.870056"
     inkscape:window-width="1396"
     inkscape:window-height="896"
     inkscape:window-x="434"
     inkscape:window-y="119"
     inkscape:window-maximized="0"
     inkscape:current-layer="svg3810"
     inkscape:showpageshadow="2"
     inkscape:deskcolor="#d1d1d1" />
  <defs
     id="defs3812">
    <linearGradient
       gradientTransform="matrix(0.24324324,0,0,0.35135133,2.1621636,-0.43242804)"
       gradientUnits="userSpaceOnUse"
       xlink:href="#linearGradient3977"
       id="linearGradient3988"
       y2="41.076912"
       x2="23.99999"
       y1="6.9230647"
       x1="23.99999" />
    <linearGradient
       id="linearGradient3977">
      <stop
         offset="0"
         style="stop-color:#ffffff;stop-opacity:1"
         id="stop3979" />
      <stop
         offset="0"
         style="stop-color:#ffffff;stop-opacity:0.23529412"
         id="stop3981" />
      <stop
         offset="1"
         style="stop-color:#ffffff;stop-opacity:0.15686275"
         id="stop3983" />
      <stop
         offset="1"
         style="stop-color:#ffffff;stop-opacity:0.39215687"
         id="stop3985" />
    </linearGradient>
    <linearGradient
       id="linearGradient3600">
      <stop
         offset="0"
         style="stop-color:#f4f4f4;stop-opacity:1"
         id="stop3602" />
      <stop
         offset="1"
         style="stop-color:#dbdbdb;stop-opacity:1"
         id="stop3604" />
    </linearGradient>
    <linearGradient
       gradientTransform="matrix(0.28571361,0,0,0.30419701,1.1428727,0.2326048)"
       gradientUnits="userSpaceOnUse"
       xlink:href="#linearGradient3600"
       id="linearGradient3806"
       y2="47.013336"
       x2="25.132275"
       y1="0.98520643"
       x1="25.132275" />
    <linearGradient
       id="linearGradient3104-9">
      <stop
         offset="0"
         style="stop-color:#000000;stop-opacity:0.33950618"
         id="stop3106-5" />
      <stop
         offset="1"
         style="stop-color:#000000;stop-opacity:0.24691358"
         id="stop3108-5" />
    </linearGradient>
    <linearGradient
       gradientTransform="matrix(0.25378586,0,0,0.30501865,19.128979,-0.68547704)"
       gradientUnits="userSpaceOnUse"
       xlink:href="#linearGradient3104-9"
       id="linearGradient3019"
       y2="2.9062471"
       x2="-51.786404"
       y1="50.786446"
       x1="-51.786404" />
    <linearGradient
       xlink:href="#linearGradient947"
       id="linearGradient1054"
       gradientUnits="userSpaceOnUse"
       gradientTransform="matrix(0,-1,-1,0,-2.7715087,19.51972)"
       x1="13.445079"
       y1="-8.8364296"
       x2="9.542304"
       y2="-8.8364296" />
    <linearGradient
       id="linearGradient947">
      <stop
         offset="0"
         style="stop-color:#ed5353;stop-opacity:1"
         id="stop943" />
      <stop
         offset="1"
         style="stop-color:#c6262e;stop-opacity:1"
         id="stop945" />
    </linearGradient>
    <linearGradient
       gradientTransform="matrix(0.31772733,0,0,0.13938333,-0.61723745,4.7764592)"
       gradientUnits="userSpaceOnUse"
       xlink:href="#linearGradient4333"
       id="linearGradient3030-1"
       y2="23.137005"
       x2="24.138529"
       y1="22.844936"
       x1="24.138529" />
    <linearGradient
       id="linearGradient4333">
      <stop
         id="stop4335"
         style="stop-color:#ffffff;stop-opacity:1"
         offset="0" />
      <stop
         id="stop4337"
         style="stop-color:#ffffff;stop-opacity:0.23529412"
         offset="0.99999797" />
      <stop
         id="stop4339"
         style="stop-color:#ffffff;stop-opacity:0.15686275"
         offset="1" />
      <stop
         id="stop4341"
         style="stop-color:#ffffff;stop-opacity:0.39215687"
         offset="1" />
    </linearGradient>
  </defs>
  <metadata
     id="metadata3815">
    <rdf:RDF>
      <cc:Work
         rdf:about="">
        <dc:format>image/svg+xml</dc:format>
        <dc:type
           rdf:resource="http://purl.org/dc/dcmitype/StillImage" />
      </cc:Work>
    </rdf:RDF>
  </metadata>
  <path
     id="rect1095"
     style="opacity:0.8;fill:#ff362f;fill-opacity:1;stroke:#ff241d;stroke-width:0.795236;stroke-miterlimit:4;stroke-dasharray:none;stroke-opacity:1"
     d="m 8.8702757,10.957851 c 0,0 0.6990166,3.468197 1.9933253,3.272465 2.125375,-0.32141 1.882193,-2.544191 2.497275,-3.976041 0.987626,-2.2990932 1.84759,-7.2512207 1.84759,-7.2512207 0,0 3.058181,4.2694537 4.560311,6.4219003 0.893012,1.2796324 1.060891,3.6747254 2.646802,3.8597164 1.103381,0.12871 2.450098,-2.184749 2.450098,-2.184749 0,0 3.662214,12.471934 -0.462477,16.039429 C 19.978342,30.966454 10.343713,30.210058 6.647073,25.719292 3.4435994,21.827636 8.8702757,10.957851 8.8702757,10.957851 Z"
     sodipodi:nodetypes="csacaacaac" />
  <path
     id="path6235"
     style="opacity:0.8;fill:#ff6b66;fill-opacity:1;stroke:none;stroke-width:0.795236;stroke-miterlimit:4;stroke-dasharray:none;stroke-opacity:1"
     d="m 8.8702757,10.957851 c 0,0 0.6990166,3.468197 1.9933253,3.272465 2.125375,-0.32141 1.882193,-2.544191 2.497275,-3.976041 0.987626,-2.2990932 1.84759,-7.2512207 1.84759,-7.2512207 0,0 3.058181,4.2694537 4.560311,6.4219003 0.893012,1.2796324 1.060891,3.6747254 2.646802,3.8597164 1.103381,0.12871 2.450098,-2.184749 2.450098,-2.184749 0,0 3.662214,12.471934 -0.462477,16.039429 C 19.978342,30.966454 10.343713,30.210058 6.647073,25.719292 3.4435994,21.827636 8.8702757,10.957851 8.8702757,10.957851 Z"
     sodipodi:nodetypes="csacaacaac" />
  <path
     id="path3852"
     style="opacity:1;fill:#ffcb6b;fill-opacity:1;stroke-width:0.787942"
     d="m 11.759206,15.0367 c 0,0 1.417944,3.372533 2.825134,3.12228 2.062114,-0.366722 2.182256,-5.699742 2.182256,-5.699742 0,0 1.39321,1.660474 2.109233,3.618056 0.4669,1.276489 -0.203642,3.118447 0.957486,3.265691 1.316916,0.166959 2.038582,-3.307695 2.038582,-3.307695 0,0 2.022395,8.726735 -0.915085,11.139047 -2.557805,2.100518 -7.852499,1.660256 -10.036637,-0.802684 C 8.3692179,23.495068 11.759206,15.0367 11.759206,15.0367 Z"
     sodipodi:nodetypes="cacsacaac" />
</svg>
