<?xml version="1.0" encoding="UTF-8" standalone="no"?>
<svg
   version="1.1"
   width="64"
   height="64"
   id="svg3844"
   sodipodi:docname="text-x-nim.svg"
   inkscape:version="1.2.2 (b0a8486541, 2022-12-01)"
   xmlns:inkscape="http://www.inkscape.org/namespaces/inkscape"
   xmlns:sodipodi="http://sodipodi.sourceforge.net/DTD/sodipodi-0.dtd"
   xmlns:xlink="http://www.w3.org/1999/xlink"
   xmlns="http://www.w3.org/2000/svg"
   xmlns:svg="http://www.w3.org/2000/svg"
   xmlns:rdf="http://www.w3.org/1999/02/22-rdf-syntax-ns#"
   xmlns:cc="http://creativecommons.org/ns#">
  <sodipodi:namedview
     id="namedview40"
     pagecolor="#ffffff"
     bordercolor="#666666"
     borderopacity="1.0"
     inkscape:pageshadow="2"
     inkscape:pageopacity="0.0"
     inkscape:pagecheckerboard="0"
     showgrid="false"
     inkscape:zoom="8.0000004"
     inkscape:cx="36.624998"
     inkscape:cy="30.749999"
     inkscape:window-width="1317"
     inkscape:window-height="893"
     inkscape:window-x="893"
     inkscape:window-y="72"
     inkscape:window-maximized="0"
     inkscape:current-layer="svg3844"
     inkscape:showpageshadow="2"
     inkscape:deskcolor="#d1d1d1" />
  <defs
     id="defs3846">
    <linearGradient
       x1="-51.786404"
       y1="50.786446"
       x2="-51.786404"
       y2="2.9062471"
       id="linearGradient3033"
       xlink:href="#linearGradient3104-6"
       gradientUnits="userSpaceOnUse"
       gradientTransform="matrix(1.0843523,0,0,1.1997367,79.550862,-4.1628601)" />
    <linearGradient
       id="linearGradient3104-6">
      <stop
         id="stop3106-3"
         style="stop-color:#000000;stop-opacity:0.31782946"
         offset="0" />
      <stop
         id="stop3108-9"
         style="stop-color:#000000;stop-opacity:0.24031007"
         offset="1" />
    </linearGradient>
    <linearGradient
       x1="23.99999"
       y1="5.8641062"
       x2="23.99999"
       y2="42.175503"
       id="linearGradient3093"
       xlink:href="#linearGradient3977-4"
       gradientUnits="userSpaceOnUse"
       gradientTransform="matrix(1.2162162,0,0,1.5405376,2.8108184,-6.9729501)" />
    <linearGradient
       id="linearGradient3977-4">
      <stop
         id="stop3979-7"
         style="stop-color:#ffffff;stop-opacity:1"
         offset="0" />
      <stop
         id="stop3981-6"
         style="stop-color:#ffffff;stop-opacity:0.23529412"
         offset="0" />
      <stop
         id="stop3983-5"
         style="stop-color:#ffffff;stop-opacity:0.15686275"
         offset="1" />
      <stop
         id="stop3985-6"
         style="stop-color:#ffffff;stop-opacity:0.39215687"
         offset="1" />
    </linearGradient>
    <linearGradient
       x1="25.132275"
       y1="0.98520643"
       x2="25.132275"
       y2="47.013336"
       id="linearGradient3096"
       xlink:href="#linearGradient3600-9"
       gradientUnits="userSpaceOnUse"
       gradientTransform="matrix(1.3142827,0,0,1.2602393,0.4572141,-2.1793201)" />
    <linearGradient
       id="linearGradient3600-9">
      <stop
         id="stop3602-3"
         style="stop-color:#f4f4f4;stop-opacity:1"
         offset="0" />
      <stop
         id="stop3604-7"
         style="stop-color:#dbdbdb;stop-opacity:1"
         offset="1" />
    </linearGradient>
    <radialGradient
       cx="605.71429"
       cy="486.64789"
       r="117.14286"
       fx="605.71429"
       fy="486.64789"
       id="radialGradient3153"
       xlink:href="#linearGradient5060"
       gradientUnits="userSpaceOnUse"
       gradientTransform="matrix(0.03132633,0,0,0.02058823,35.220859,49.45142)" />
    <linearGradient
       id="linearGradient5060">
      <stop
         id="stop5062"
         style="stop-color:#000000;stop-opacity:1"
         offset="0" />
      <stop
         id="stop5064"
         style="stop-color:#000000;stop-opacity:0"
         offset="1" />
    </linearGradient>
    <radialGradient
       cx="605.71429"
       cy="486.64789"
       r="117.14286"
       fx="605.71429"
       fy="486.64789"
       id="radialGradient3156"
       xlink:href="#linearGradient5060"
       gradientUnits="userSpaceOnUse"
       gradientTransform="matrix(-0.03132632,0,0,0.02058823,28.779136,49.45142)" />
    <linearGradient
       id="linearGradient5048">
      <stop
         id="stop5050"
         style="stop-color:#000000;stop-opacity:0"
         offset="0" />
      <stop
         id="stop5056"
         style="stop-color:#000000;stop-opacity:1"
         offset="0.5" />
      <stop
         id="stop5052"
         style="stop-color:#000000;stop-opacity:0"
         offset="1" />
    </linearGradient>
    <linearGradient
       x1="302.85715"
       y1="366.64789"
       x2="302.85715"
       y2="609.50507"
       id="linearGradient3842"
       xlink:href="#linearGradient5048"
       gradientUnits="userSpaceOnUse"
       gradientTransform="matrix(0.09153846,0,0,0.02058823,-1.084616,49.45142)" />
    <mask
       id="holes">
      <rect
         x="-60"
         y="-60"
         width="120"
         height="120"
         fill="#ffffff"
         id="rect80" />
      <circle
         id="hole"
         cy="-40"
         r="3"
         cx="0" />
      <use
         xlink:href="#hole"
         transform="rotate(72)"
         id="use83"
         x="0"
         y="0"
         width="100%"
         height="100%" />
      <use
         xlink:href="#hole"
         transform="rotate(144)"
         id="use85"
         x="0"
         y="0"
         width="100%"
         height="100%" />
      <use
         xlink:href="#hole"
         transform="rotate(-144)"
         id="use87"
         x="0"
         y="0"
         width="100%"
         height="100%" />
      <use
         xlink:href="#hole"
         transform="rotate(-72)"
         id="use89"
         x="0"
         y="0"
         width="100%"
         height="100%" />
    </mask>
    <mask
       id="holes-6">
      <rect
         x="-60"
         y="-60"
         width="120"
         height="120"
         fill="#ffffff"
         id="rect23997" />
      <circle
         id="hole-7"
         cy="-40"
         r="3"
         cx="0" />
      <use
         xlink:href="#hole-7"
         transform="rotate(72)"
         id="use24000"
         x="0"
         y="0"
         width="100%"
         height="100%" />
      <use
         xlink:href="#hole-7"
         transform="rotate(144)"
         id="use24002"
         x="0"
         y="0"
         width="100%"
         height="100%" />
      <use
         xlink:href="#hole-7"
         transform="rotate(-144)"
         id="use24004"
         x="0"
         y="0"
         width="100%"
         height="100%" />
      <use
         xlink:href="#hole-7"
         transform="rotate(-72)"
         id="use24006"
         x="0"
         y="0"
         width="100%"
         height="100%" />
    </mask>
    <mask
       id="holes-5">
      <rect
         x="-60"
         y="-60"
         width="120"
         height="120"
         fill="#ffffff"
         id="rect23997-3" />
      <circle
         id="hole-5"
         cy="-40"
         r="3"
         cx="0" />
      <use
         xlink:href="#hole-5"
         transform="rotate(72)"
         id="use24000-6"
         x="0"
         y="0"
         width="100%"
         height="100%" />
      <use
         xlink:href="#hole-5"
         transform="rotate(144)"
         id="use24002-2"
         x="0"
         y="0"
         width="100%"
         height="100%" />
      <use
         xlink:href="#hole-5"
         transform="rotate(-144)"
         id="use24004-9"
         x="0"
         y="0"
         width="100%"
         height="100%" />
      <use
         xlink:href="#hole-5"
         transform="rotate(-72)"
         id="use24006-1"
         x="0"
         y="0"
         width="100%"
         height="100%" />
    </mask>
    <mask
       id="holes-2">
      <rect
         x="-60"
         y="-60"
         width="120"
         height="120"
         fill="#ffffff"
         id="rect23997-7" />
      <circle
         id="hole-0"
         cy="-40"
         r="3"
         cx="0" />
      <use
         xlink:href="#hole-0"
         transform="rotate(72)"
         id="use24000-9"
         x="0"
         y="0"
         width="100%"
         height="100%" />
      <use
         xlink:href="#hole-0"
         transform="rotate(144)"
         id="use24002-3"
         x="0"
         y="0"
         width="100%"
         height="100%" />
      <use
         xlink:href="#hole-0"
         transform="rotate(-144)"
         id="use24004-6"
         x="0"
         y="0"
         width="100%"
         height="100%" />
      <use
         xlink:href="#hole-0"
         transform="rotate(-72)"
         id="use24006-0"
         x="0"
         y="0"
         width="100%"
         height="100%" />
    </mask>
  </defs>
  <metadata
     id="metadata3849">
    <rdf:RDF>
      <cc:Work
         rdf:about="" />
    </rdf:RDF>
  </metadata>
  <rect
     style="display:inline;overflow:visible;visibility:visible;opacity:0.15;fill:url(#linearGradient3842);fill-opacity:1;fill-rule:nonzero;stroke:none;stroke-width:1;marker:none"
     id="rect2879"
     y="57.000004"
     x="9.8999996"
     height="5"
     width="44.199997" />
  <path
     style="display:inline;overflow:visible;visibility:visible;opacity:0.15;fill:url(#radialGradient3156);fill-opacity:1;fill-rule:nonzero;stroke:none;stroke-width:1;marker:none"
     id="path2881"
     d="m 9.9,57.00022 c 0,0 0,4.9997 0,4.9997 -1.6132281,0.01 -3.9,-1.1202 -3.9,-2.5002 0,-1.38 1.8002408,-2.4995 3.9,-2.4995 z" />
  <path
     style="display:inline;overflow:visible;visibility:visible;opacity:0.15;fill:url(#radialGradient3153);fill-opacity:1;fill-rule:nonzero;stroke:none;stroke-width:1;marker:none"
     id="path2883"
     d="m 54.099999,57.00022 c 0,0 0,4.9997 0,4.9997 C 55.713227,62.00992 58,60.87972 58,59.49972 c 0,-1.38 -1.800241,-2.4995 -3.900001,-2.4995 z" />
  <path
     style="display:inline;fill:url(#linearGradient3096);fill-opacity:1;stroke:none"
     id="path4160-6"
     d="m 9,0.9998799 c 10.540935,0 45.999945,0.004 45.999945,0.004 L 55,59.00002 c 0,0 -30.666666,0 -46,0 0,-19.3334 0,-38.6665 0,-57.9998201 z" />
  <path
     style="fill:none;stroke:url(#linearGradient3093);stroke-width:1;stroke-linecap:round;stroke-linejoin:miter;stroke-miterlimit:4;stroke-dasharray:none;stroke-dashoffset:0;stroke-opacity:1"
     id="rect6741-1-8"
     d="m 54.499999,58.50002 -44.9999992,0 0,-57.0000401 44.9999992,0 z" />
  <path
     style="display:inline;fill:none;stroke:url(#linearGradient3033);stroke-width:0.9999218;stroke-linecap:butt;stroke-linejoin:round;stroke-miterlimit:4;stroke-dasharray:none;stroke-dashoffset:0;stroke-opacity:1"
     id="path4160-6-1"
     d="m 8.4999684,0.4998999 c 10.7700936,0 47.0000286,0.004 47.0000286,0.004 l 4.9e-5,58.9962201 c 0,0 -31.333384,0 -47.0000776,0 0,-19.6668 0,-39.3334 0,-58.9999701 z" />
  <path
     id="i"
     class="m"
     d="m 41.514476,33.861916 c -1.389755,0.605791 -3.314031,0.855234 -3.314031,0.855234 L 31.92873,31.616928 25.657016,34.71715 c 0,0 -1.959911,-0.249443 -3.314033,-0.855234 -2.102449,-0.962138 -4.383072,-3.349666 -5.060132,-4.311804 0,0 1.746101,4.133631 2.922049,7.020045 2.5657,3.385301 7.126948,5.167038 11.72383,5.167038 4.596882,0 9.15813,-1.781737 11.723832,-5.131403 1.175946,-2.886415 2.922049,-7.020045 2.922049,-7.020045 -0.641425,0.926503 -2.957684,3.314031 -5.060135,4.276169 z"
     style="fill:#f9c440;stroke-width:1" />
  <path
     id="j"
     class="n"
     d="m 45.933185,25.238308 c -0.570155,-0.534522 -1.389755,-0.997772 -2.387529,-1.425389 -0.641424,-1.033408 -1.674833,-2.815145 -1.674833,-2.815145 0,0 -1.033406,0.819598 -2.280624,1.603562 -1.567928,-0.320711 -3.349664,-0.53452 -5.202671,-0.641424 -1.211582,-0.962138 -2.423164,-1.959911 -2.423164,-1.959911 0,0 -1.211581,0.997773 -2.423162,1.959911 -1.888642,0.106904 -3.634744,0.320713 -5.202673,0.641424 -1.211581,-0.783964 -2.280624,-1.603562 -2.280624,-1.603562 0,0 -1.033407,1.817371 -1.674832,2.815145 -0.997773,0.427617 -1.817372,0.890867 -2.387529,1.425389 -0.890868,-0.356348 -1.995545,-0.783964 -1.995545,-0.783964 1.21158,2.423163 2.066815,4.88196 4.276168,6.342984 1.746104,-2.779511 6.734968,-4.06236 11.723832,-3.991091 4.988864,-0.07126 9.942094,1.21158 11.723832,3.991091 2.209354,-1.461024 3.064588,-3.884187 4.276169,-6.342984 -0.07127,-0.03563 -1.175946,0.391982 -2.066815,0.783964 z"
     style="fill:#f9b00b;stroke-width:1;fill-opacity:1" />
</svg>
