<?xml version="1.0" encoding="UTF-8" standalone="no"?>
<svg
   version="1.1"
   width="64"
   height="64"
   id="svg2925"
   sodipodi:docname="input-mouse1 (copy 1).svg"
   inkscape:version="1.2.2 (b0a8486541, 2022-12-01)"
   xmlns:inkscape="http://www.inkscape.org/namespaces/inkscape"
   xmlns:sodipodi="http://sodipodi.sourceforge.net/DTD/sodipodi-0.dtd"
   xmlns:xlink="http://www.w3.org/1999/xlink"
   xmlns="http://www.w3.org/2000/svg"
   xmlns:svg="http://www.w3.org/2000/svg"
   xmlns:rdf="http://www.w3.org/1999/02/22-rdf-syntax-ns#"
   xmlns:cc="http://creativecommons.org/ns#"
   xmlns:dc="http://purl.org/dc/elements/1.1/">
  <sodipodi:namedview
     id="namedview307"
     pagecolor="#ffffff"
     bordercolor="#000000"
     borderopacity="0.25"
     inkscape:showpageshadow="2"
     inkscape:pageopacity="0.0"
     inkscape:pagecheckerboard="0"
     inkscape:deskcolor="#d1d1d1"
     showgrid="false"
     inkscape:zoom="18.782524"
     inkscape:cx="33.967746"
     inkscape:cy="40.489766"
     inkscape:window-width="1233"
     inkscape:window-height="922"
     inkscape:window-x="695"
     inkscape:window-y="54"
     inkscape:window-maximized="0"
     inkscape:current-layer="svg2925" />
  <defs
     id="defs2927">
    <linearGradient
       inkscape:collect="always"
       id="linearGradient4293">
      <stop
         style="stop-color:#000000;stop-opacity:0.25999999;"
         offset="0"
         id="stop4289" />
      <stop
         style="stop-color:#000000;stop-opacity:0.30000001;"
         offset="1"
         id="stop4291" />
    </linearGradient>
    <linearGradient
       id="linearGradient10">
      <stop
         style="stop-color:#ffffff;stop-opacity:1;"
         offset="0"
         id="stop1" />
      <stop
         style="stop-color:#ffffff;stop-opacity:0.27948859;"
         offset="0.2398524"
         id="stop6" />
      <stop
         style="stop-color:#ffffff;stop-opacity:0.14874816;"
         offset="0.69280446"
         id="stop9" />
      <stop
         style="stop-color:#ffffff;stop-opacity:0.5;"
         offset="1"
         id="stop10" />
    </linearGradient>
    <linearGradient
       id="linearGradient3208">
      <stop
         id="stop3210"
         style="stop-color:#ffffff;stop-opacity:1"
         offset="0" />
      <stop
         id="stop3212"
         style="stop-color:#ffffff;stop-opacity:0"
         offset="1" />
    </linearGradient>
    <linearGradient
       id="linearGradient23419-5">
      <stop
         id="stop23421-7"
         style="stop-color:#000000;stop-opacity:1"
         offset="0" />
      <stop
         id="stop23423-0"
         style="stop-color:#000000;stop-opacity:0"
         offset="1" />
    </linearGradient>
    <radialGradient
       cx="23.334524"
       cy="41.63604"
       r="22.627417"
       fx="23.334524"
       fy="41.63604"
       id="radialGradient2923"
       xlink:href="#linearGradient23419-5"
       gradientUnits="userSpaceOnUse"
       gradientTransform="matrix(0.83968921,0,0,0.24304524,12.40625,47.380549)" />
    <linearGradient
       xlink:href="#linearGradient7"
       id="linearGradient8"
       x1="64.5"
       y1="10"
       x2="64.5"
       y2="110"
       gradientUnits="userSpaceOnUse"
       gradientTransform="matrix(0.51666666,0,0,0.5,-1.5833328,2.5)" />
    <linearGradient
       id="linearGradient7">
      <stop
         style="stop-color:#fafafa;stop-opacity:1;"
         offset="0"
         id="stop7" />
      <stop
         style="stop-color:#d4d4d4;stop-opacity:1;"
         offset="1"
         id="stop8" />
    </linearGradient>
    <linearGradient
       xlink:href="#linearGradient7"
       id="linearGradient14"
       x1="65"
       y1="25"
       x2="65"
       y2="50"
       gradientUnits="userSpaceOnUse"
       gradientTransform="matrix(0.5,0,0,0.5,-0.4999985,0.5)" />
    <radialGradient
       xlink:href="#linearGradient3208"
       id="radialGradient18"
       cx="65"
       cy="33"
       fx="65"
       fy="33"
       r="5.0000043"
       gradientTransform="matrix(0.70771315,0,0,1.3612646,-14.001355,-25.921735)"
       gradientUnits="userSpaceOnUse" />
    <linearGradient
       xlink:href="#linearGradient10"
       id="linearGradient9"
       x1="32"
       y1="13"
       x2="32"
       y2="25"
       gradientUnits="userSpaceOnUse" />
    <linearGradient
       xlink:href="#linearGradient10"
       id="linearGradient11"
       x1="32"
       y1="7.5"
       x2="31.999998"
       y2="57.5"
       gradientUnits="userSpaceOnUse" />
    <linearGradient
       inkscape:collect="always"
       xlink:href="#linearGradient4293"
       id="linearGradient4295"
       x1="24.157772"
       y1="7.9104886"
       x2="24.157772"
       y2="55.172287"
       gradientUnits="userSpaceOnUse" />
  </defs>
  <metadata
     id="metadata2930">
    <rdf:RDF>
      <cc:Work
         rdf:about="">
        <dc:format>image/svg+xml</dc:format>
        <dc:type
           rdf:resource="http://purl.org/dc/dcmitype/StillImage" />
      </cc:Work>
    </rdf:RDF>
  </metadata>
  <path
     d="M 51,57.5 C 51.000855,60.537485 42.494107,63 32,63 21.505892,63 12.999023,60.537485 13,57.5 12.999145,54.462529 21.505892,52 32,52 c 10.494107,0 19.000964,2.462529 19,5.5 z"
     id="path23417-6"
     style="display:inline;overflow:visible;visibility:visible;opacity:0.3;fill:url(#radialGradient2923);fill-opacity:1;fill-rule:evenodd;stroke:none;stroke-width:2;marker:none" />
  <path
     id="rect2"
     style="fill:url(#linearGradient8);fill-opacity:1;stroke:none;stroke-width:1.01653;stroke-linejoin:round;stroke-dasharray:none;stroke-opacity:0.30196103"
     d="M 29.416016 8.0078125 C 22.52419 8.0078125 17.007812 13.356901 17.007812 20 L 17.007812 30 C 17.007812 36.249975 17.024925 43.083785 18.914062 48.263672 C 19.858632 50.853615 21.257616 53.020826 23.339844 54.550781 C 25.422072 56.080737 28.206994 56.992188 32 56.992188 C 35.793006 56.992188 38.577928 56.080737 40.660156 54.550781 C 42.742384 53.020826 44.141369 50.853615 45.085938 48.263672 C 46.975076 43.083785 46.992188 36.249975 46.992188 30 L 46.992188 20 C 46.992188 13.356901 41.47581 8.0078125 34.583984 8.0078125 L 29.416016 8.0078125 z " />
  <rect
     style="fill:none;fill-opacity:1;stroke:#ffffff;stroke-width:0.999999;stroke-linecap:round;stroke-linejoin:round;stroke-dasharray:none;stroke-opacity:0.6;paint-order:markers fill stroke"
     id="rect11618"
     width="3"
     height="4.0000029"
     x="30.5"
     y="26"
     ry="0.36363655"
     rx="1" />
  <path
     style="opacity:1;fill:none;fill-opacity:1;stroke:#d4d4d4;stroke-width:0.999996;stroke-linejoin:round;stroke-dasharray:none;stroke-opacity:1"
     d="M 18,29.499998 H 30.999999"
     id="path4" />
  <path
     style="opacity:0.300483;fill:none;fill-opacity:1;stroke:#ffffff;stroke-width:1.0345;stroke-linejoin:round;stroke-dasharray:none;stroke-opacity:1"
     d="M 17,30.517252 H 47"
     id="path6" />
  <path
     id="path9"
     style="display:inline;opacity:0.70004032;fill:none;fill-opacity:1;stroke:url(#linearGradient11);stroke-width:1.01653;stroke-linejoin:round;stroke-dasharray:none;stroke-opacity:0.301961"
     d="m 29.416016,8.5 h 5.167968 C 41.204169,8.5 46.5,13.646888 46.5,20 V 30 C 46.5,42.499934 46.519578,56.5 32,56.5 17.480424,56.5 17.5,42.499934 17.5,30 V 20 c 0,-6.353112 5.295831,-11.5 11.916016,-11.5 z" />
  <rect
     style="fill:none;fill-opacity:1;stroke:#ffffff;stroke-width:0.999999;stroke-linecap:round;stroke-linejoin:round;stroke-dasharray:none;stroke-opacity:0.6;paint-order:markers fill stroke"
     id="rect11618-3"
     width="3"
     height="4.0000029"
     x="30.5"
     y="8.5"
     ry="0.36363655"
     rx="1" />
  <rect
     style="fill:#d4d4d4;fill-opacity:1;stroke:none;stroke-width:0.0999996;stroke-linecap:round;stroke-linejoin:round;paint-order:markers fill stroke"
     id="rect316-6"
     width="2"
     height="4"
     x="31"
     y="8"
     ry="0.18181819"
     rx="0.5" />
  <path
     id="path1378"
     style="fill:none;fill-opacity:1;stroke:url(#linearGradient4295);stroke-width:1.01653;stroke-linejoin:round;stroke-dasharray:none;stroke-opacity:1"
     d="M 29.416667,7.5 C 22.260839,7.5 16.5,13.075007 16.5,20 v 10 c 0,12.499975 3e-5,27.5 15.499999,27.5 C 47.49997,57.5 47.5,42.499975 47.5,30 V 20 C 47.5,13.075007 41.739161,7.5 34.583333,7.5 Z" />
  <rect
     style="fill:none;fill-opacity:1;stroke:#ffffff;stroke-width:0.999991;stroke-linecap:round;stroke-linejoin:round;stroke-dasharray:none;stroke-opacity:0.905813;paint-order:markers fill stroke"
     id="rect11066"
     width="7.0000038"
     height="14.50001"
     x="28.499998"
     y="11.499995"
     ry="3"
     rx="3" />
  <rect
     style="fill:#d4d4d4;fill-opacity:1;stroke:none;stroke-width:0.0999996;stroke-linecap:round;stroke-linejoin:round;paint-order:markers fill stroke"
     id="rect316"
     width="2"
     height="6"
     x="31"
     y="25"
     ry="0.27272728"
     rx="0.5" />
  <path
     style="display:inline;overflow:visible;visibility:visible;opacity:0.2;fill:#000000;fill-opacity:1;fill-rule:nonzero;stroke:none;stroke-width:1.7;marker:none;enable-background:accumulate"
     id="path3576"
     d="m 31.583333,40 c -0.230833,0 -0.416666,0.185834 -0.416666,0.416667 v 0.9375 c -0.418917,0.09534 -0.806183,0.259 -1.15885,0.481766 L 29.34375,41.171867 c -0.163167,-0.163167 -0.422717,-0.163167 -0.585933,0 l -0.585933,0.58595 c -0.163167,0.163167 -0.163167,0.4227 0,0.585933 l 0.664049,0.664067 c -0.22275,0.35265 -0.386366,0.739933 -0.481766,1.15885 h -0.9375 C 27.185833,44.166667 27,44.3525 27,44.583333 v 0.833334 c 0,0.230833 0.185833,0.416666 0.416667,0.416666 h 0.9375 c 0.09534,0.418917 0.259016,0.8062 0.481766,1.15885 l -0.664049,0.664067 c -0.163167,0.163166 -0.163167,0.422717 0,0.585933 l 0.585933,0.585933 c 0.163166,0.163167 0.422717,0.163167 0.585933,0 l 0.664067,-0.664049 c 0.352667,0.22275 0.739933,0.386367 1.15885,0.481766 v 0.9375 C 31.166667,49.814166 31.3525,50 31.583333,50 h 0.833334 c 0.230833,0 0.416667,-0.185834 0.416667,-0.416667 v -0.9375 c 0.418916,-0.09534 0.8062,-0.259 1.158849,-0.481766 l 0.664067,0.664049 c 0.163166,0.163167 0.422716,0.163167 0.585933,0 l 0.585951,-0.585933 c 0.163166,-0.163167 0.163166,-0.4227 0,-0.585933 l -0.664067,-0.664067 c 0.222767,-0.35265 0.386367,-0.739933 0.481767,-1.15885 h 0.9375 C 36.814166,45.833333 37,45.6475 37,45.416667 V 44.583333 C 37,44.3525 36.814166,44.166667 36.583333,44.166667 h -0.9375 c -0.09534,-0.418917 -0.259,-0.8062 -0.481766,-1.15885 l 0.664066,-0.664067 c 0.163167,-0.163166 0.163167,-0.422717 0,-0.585933 l -0.58595,-0.58595 c -0.163167,-0.163167 -0.4227,-0.163167 -0.585933,0 l -0.664067,0.664066 c -0.35265,-0.222766 -0.739933,-0.386366 -1.15885,-0.481766 v -0.9375 C 32.833333,40.185834 32.6475,40 32.416667,40 Z M 32,43.333333 C 32.92,43.333333 33.666667,44.08 33.666667,45 33.666667,45.92 32.92,46.666667 32,46.666667 31.08,46.666667 30.333333,45.92 30.333333,45 30.333333,44.08 31.08,43.333333 32,43.333333 Z" />
  <path
     style="display:inline;overflow:visible;visibility:visible;opacity:0.3;fill:#ffffff;fill-opacity:1;fill-rule:nonzero;stroke:none;stroke-width:1.7;marker:none;enable-background:accumulate"
     id="path3576-2"
     d="m 31.583333,40.999996 c -0.230833,0 -0.416666,0.185832 -0.416666,0.416667 v 0.9375 c -0.418917,0.09534 -0.806183,0.259 -1.15885,0.481765 L 29.34375,42.171863 c -0.163167,-0.163167 -0.422717,-0.163167 -0.585933,0 l -0.585933,0.58595 c -0.163167,0.163165 -0.163167,0.4227 0,0.585932 l 0.664049,0.664068 c -0.22275,0.35265 -0.386366,0.739932 -0.481766,1.15885 h -0.9375 C 27.185833,45.166663 27,45.352495 27,45.583328 v 0.833335 c 0,0.230832 0.185833,0.416665 0.416667,0.416665 h 0.9375 c 0.09534,0.418917 0.259016,0.8062 0.481766,1.15885 l -0.664049,0.664067 c -0.163167,0.163168 -0.163167,0.422718 0,0.585933 l 0.585933,0.585935 c 0.163166,0.163165 0.422717,0.163165 0.585933,0 l 0.664067,-0.66405 c 0.352667,0.22275 0.739933,0.386365 1.15885,0.481765 v 0.9375 c 0,0.230835 0.185833,0.416667 0.416666,0.416667 h 0.833334 c 0.230833,0 0.416667,-0.185832 0.416667,-0.416667 v -0.9375 c 0.418916,-0.09534 0.8062,-0.259 1.158849,-0.481765 l 0.664067,0.66405 c 0.163166,0.163165 0.422716,0.163165 0.585933,0 l 0.585951,-0.585935 c 0.163166,-0.163165 0.163166,-0.4227 0,-0.585933 l -0.664067,-0.664067 c 0.222767,-0.35265 0.386367,-0.739933 0.481767,-1.15885 h 0.9375 C 36.814166,46.833328 37,46.647495 37,46.416663 v -0.833335 c 0,-0.230833 -0.185834,-0.416665 -0.416667,-0.416665 h -0.9375 c -0.09534,-0.418918 -0.259,-0.8062 -0.481766,-1.15885 l 0.664066,-0.664068 c 0.163167,-0.163166 0.163167,-0.422716 0,-0.585932 l -0.58595,-0.58595 c -0.163167,-0.163167 -0.4227,-0.163167 -0.585933,0 l -0.664067,0.664065 c -0.352649,-0.222765 -0.739933,-0.386365 -1.15885,-0.481765 v -0.9375 c 0,-0.230835 -0.185833,-0.416667 -0.416666,-0.416667 z M 32,44.333328 c 0.92,0 1.666667,0.746667 1.666667,1.666667 0,0.92 -0.746667,1.666668 -1.666667,1.666668 -0.92,0 -1.666667,-0.746668 -1.666667,-1.666668 0,-0.92 0.746667,-1.666667 1.666667,-1.666667 z" />
  <rect
     style="fill:#cccccc;fill-opacity:1;stroke:none;stroke-width:0.0999998;stroke-linecap:round;stroke-linejoin:round;paint-order:markers fill stroke"
     id="rect870"
     width="6"
     height="15.5"
     x="28.999998"
     y="10"
     ry="2.5"
     rx="2.5" />
  <rect
     style="fill:#ebebec;fill-opacity:1;stroke:none;stroke-width:0.099999;stroke-linecap:round;stroke-linejoin:round;paint-order:markers fill stroke"
     id="rect974"
     width="4"
     height="13.5"
     x="29.999998"
     y="11"
     ry="2"
     rx="2" />
  <rect
     style="fill:#d6d6d6;fill-opacity:1;stroke:none;stroke-width:0.999997;stroke-linejoin:round;stroke-miterlimit:3.42857;paint-order:stroke markers fill"
     id="rect32349"
     width="4"
     height="1"
     x="29.999998"
     y="17.5" />
  <rect
     style="fill:#d6d6d6;fill-opacity:1;stroke:none;stroke-width:0.999997;stroke-linejoin:round;stroke-miterlimit:3.42857;paint-order:stroke markers fill"
     id="rect2136"
     width="4"
     height="1"
     x="29.999998"
     y="11.499999" />
  <rect
     style="fill:#d6d6d6;fill-opacity:1;stroke:none;stroke-width:0.999997;stroke-linejoin:round;stroke-miterlimit:3.42857;paint-order:stroke markers fill"
     id="rect2140"
     width="4"
     height="1"
     x="29.999998"
     y="15.5" />
  <rect
     style="fill:#d6d6d6;fill-opacity:1;stroke:none;stroke-width:0.999997;stroke-linejoin:round;stroke-miterlimit:3.42857;paint-order:stroke markers fill"
     id="rect2144"
     width="4"
     height="1"
     x="29.999998"
     y="13.5" />
  <rect
     style="fill:#f2f2f2;fill-opacity:1;stroke:none;stroke-width:0.999997;stroke-linejoin:round;stroke-miterlimit:3.42857;paint-order:stroke markers fill"
     id="rect2136-3"
     width="4"
     height="1"
     x="29.999998"
     y="12.499999" />
  <rect
     style="fill:#f2f2f2;fill-opacity:1;stroke:none;stroke-width:0.999997;stroke-linejoin:round;stroke-miterlimit:3.42857;paint-order:stroke markers fill"
     id="rect2140-6"
     width="4"
     height="1"
     x="29.999998"
     y="16.5" />
  <rect
     style="fill:#f2f2f2;fill-opacity:1;stroke:none;stroke-width:0.999997;stroke-linejoin:round;stroke-miterlimit:3.42857;paint-order:stroke markers fill"
     id="rect2144-7"
     width="4"
     height="1"
     x="29.999998"
     y="14.5" />
  <rect
     style="fill:#d6d6d6;fill-opacity:1;stroke:none;stroke-width:0.999997;stroke-linejoin:round;stroke-miterlimit:3.42857;paint-order:stroke markers fill"
     id="rect13189"
     width="4"
     height="1"
     x="29.999998"
     y="19.5" />
  <rect
     style="fill:#f2f2f2;fill-opacity:1;stroke:none;stroke-width:0.999997;stroke-linejoin:round;stroke-miterlimit:3.42857;paint-order:stroke markers fill"
     id="rect13191"
     width="4"
     height="1"
     x="29.999998"
     y="20.5" />
  <rect
     style="fill:#f2f2f2;fill-opacity:1;stroke:none;stroke-width:0.999997;stroke-linejoin:round;stroke-miterlimit:3.42857;paint-order:stroke markers fill"
     id="rect13193"
     width="4"
     height="1"
     x="29.999998"
     y="18.5" />
  <rect
     style="fill:#d6d6d6;fill-opacity:1;stroke:none;stroke-width:0.999997;stroke-linejoin:round;stroke-miterlimit:3.42857;paint-order:stroke markers fill"
     id="rect13195"
     width="4"
     height="1"
     x="29.999998"
     y="21.5" />
  <rect
     style="fill:none;fill-opacity:1;stroke:#ffffff;stroke-width:0.999994;stroke-linecap:round;stroke-linejoin:round;stroke-dasharray:none;stroke-opacity:0.5;paint-order:markers fill stroke"
     id="rect6879"
     width="3.0000081"
     height="12.500006"
     x="30.499998"
     y="11.499997"
     ry="1.5"
     rx="1.5" />
  <path
     style="opacity:1;fill:none;fill-opacity:1;stroke:#d4d4d4;stroke-width:0.999996;stroke-linejoin:round;stroke-dasharray:none;stroke-opacity:1"
     d="m 32.999998,29.499999 h 13"
     id="path2189" />
</svg>
