<?xml version="1.0" encoding="UTF-8" standalone="no"?>
<svg
   version="1.1"
   width="16"
   height="16"
   id="svg3810"
   sodipodi:docname="text-x-nim.svg"
   inkscape:version="1.2.2 (b0a8486541, 2022-12-01)"
   xmlns:inkscape="http://www.inkscape.org/namespaces/inkscape"
   xmlns:sodipodi="http://sodipodi.sourceforge.net/DTD/sodipodi-0.dtd"
   xmlns:xlink="http://www.w3.org/1999/xlink"
   xmlns="http://www.w3.org/2000/svg"
   xmlns:svg="http://www.w3.org/2000/svg"
   xmlns:rdf="http://www.w3.org/1999/02/22-rdf-syntax-ns#"
   xmlns:cc="http://creativecommons.org/ns#"
   xmlns:dc="http://purl.org/dc/elements/1.1/">
  <sodipodi:namedview
     id="namedview40"
     pagecolor="#ffffff"
     bordercolor="#666666"
     borderopacity="1.0"
     inkscape:pageshadow="2"
     inkscape:pageopacity="0.0"
     inkscape:pagecheckerboard="0"
     showgrid="false"
     inkscape:zoom="30.140427"
     inkscape:cx="8.9746573"
     inkscape:cy="6.8346743"
     inkscape:window-width="1360"
     inkscape:window-height="893"
     inkscape:window-x="260"
     inkscape:window-y="87"
     inkscape:window-maximized="0"
     inkscape:current-layer="svg3810"
     inkscape:showpageshadow="2"
     inkscape:deskcolor="#d1d1d1" />
  <defs
     id="defs3812">
    <linearGradient
       x1="23.99999"
       y1="6.9230647"
       x2="23.99999"
       y2="41.076912"
       id="linearGradient3988"
       xlink:href="#linearGradient3977"
       gradientUnits="userSpaceOnUse"
       gradientTransform="matrix(0.24324324,0,0,0.35135133,2.1621636,-0.43242804)" />
    <linearGradient
       id="linearGradient3977">
      <stop
         id="stop3979"
         style="stop-color:#ffffff;stop-opacity:1"
         offset="0" />
      <stop
         id="stop3981"
         style="stop-color:#ffffff;stop-opacity:0.23529412"
         offset="0" />
      <stop
         id="stop3983"
         style="stop-color:#ffffff;stop-opacity:0.15686275"
         offset="1" />
      <stop
         id="stop3985"
         style="stop-color:#ffffff;stop-opacity:0.39215687"
         offset="1" />
    </linearGradient>
    <linearGradient
       id="linearGradient3600">
      <stop
         id="stop3602"
         style="stop-color:#f4f4f4;stop-opacity:1"
         offset="0" />
      <stop
         id="stop3604"
         style="stop-color:#dbdbdb;stop-opacity:1"
         offset="1" />
    </linearGradient>
    <linearGradient
       x1="25.132275"
       y1="0.98520643"
       x2="25.132275"
       y2="47.013336"
       id="linearGradient3806"
       xlink:href="#linearGradient3600"
       gradientUnits="userSpaceOnUse"
       gradientTransform="matrix(0.28571361,0,0,0.30419701,1.1428727,0.2326048)" />
    <linearGradient
       id="linearGradient3104-9">
      <stop
         id="stop3106-5"
         style="stop-color:#000000;stop-opacity:0.33950618"
         offset="0" />
      <stop
         id="stop3108-5"
         style="stop-color:#000000;stop-opacity:0.24691358"
         offset="1" />
    </linearGradient>
    <linearGradient
       x1="-51.786404"
       y1="50.786446"
       x2="-51.786404"
       y2="2.9062471"
       id="linearGradient3019"
       xlink:href="#linearGradient3104-9"
       gradientUnits="userSpaceOnUse"
       gradientTransform="matrix(0.25378586,0,0,0.30501865,19.128979,-0.68547704)" />
  </defs>
  <metadata
     id="metadata3815">
    <rdf:RDF>
      <cc:Work
         rdf:about="">
        <dc:format>image/svg+xml</dc:format>
        <dc:type
           rdf:resource="http://purl.org/dc/dcmitype/StillImage" />
      </cc:Work>
    </rdf:RDF>
  </metadata>
  <g
     id="layer1">
    <path
       d="m 3,1 c 2.2915074,0 9.999988,8.904e-4 9.999988,8.904e-4 L 13,15 C 13,15 6.3333332,15 3,15 3,10.333334 3,5.6666664 3,1 z"
       id="path4160"
       style="fill:url(#linearGradient3806);fill-opacity:1;stroke:none;display:inline" />
    <path
       d="m 12.5,14.5 -9.0000001,0 0,-13 L 12.5,1.5 z"
       id="rect6741-1"
       style="fill:none;stroke:url(#linearGradient3988);stroke-width:1;stroke-linecap:round;stroke-linejoin:miter;stroke-miterlimit:4;stroke-opacity:1;stroke-dasharray:none;stroke-dashoffset:0" />
    <path
       d="m 2.4999621,0.49997396 c 2.5206756,0 11.0000629,9.54e-4 11.0000629,9.54e-4 l 1.3e-5,14.99909804 c 0,0 -7.3333841,0 -11.000076,0 0,-5.000017 0,-10.000035 0,-15.00005204 z"
       id="path4160-8"
       style="fill:none;stroke:url(#linearGradient3019);stroke-width:0.99992192;stroke-linecap:butt;stroke-linejoin:round;stroke-miterlimit:4;stroke-opacity:1;stroke-dasharray:none;stroke-dashoffset:0;display:inline" />
  </g>
  <path
     id="i"
     class="m"
     d="M 10.973273,8.5318483 C 10.538976,8.721158 9.9376391,8.7991089 9.9376391,8.7991089 L 7.9777282,7.8302896 6.0178176,8.7991089 c 0,0 -0.6124721,-0.077951 -1.0356352,-0.2672606 C 4.3251671,8.2311801 3.6124725,7.4850776 3.4008912,7.1844096 c 0,0 0.5456565,1.2917596 0.9131403,2.1937643 0.8017812,1.0579061 2.2271711,1.6146991 3.6636967,1.6146991 1.4365256,0 2.8619148,-0.556793 3.6636978,-1.6035633 0.367482,-0.9020048 0.91314,-2.1937642 0.91314,-2.1937642 -0.200445,0.2895321 -0.924276,1.0356346 -1.581293,1.3363028 z"
     style="fill:#f9ba25;stroke-width:0.999992;fill-opacity:1" />
  <path
     id="j"
     class="n"
     d="M 12.354121,5.8369709 C 12.175947,5.6699327 11.919822,5.5251671 11.608017,5.3915368 11.407572,5.0685968 11.084632,4.511804 11.084632,4.511804 c 0,0 -0.32294,0.2561244 -0.712694,0.5011132 C 9.88196,4.9126949 9.3251672,4.8458797 8.7461026,4.8124722 8.3674832,4.511804 7.9888639,4.2 7.9888639,4.2 c 0,0 -0.3786191,0.311804 -0.7572382,0.6124722 C 6.6414251,4.8458797 6.0957682,4.9126949 5.6057905,5.0129172 5.2271714,4.7679284 4.8930956,4.511804 4.8930956,4.511804 c 0,0 -0.3229397,0.5679284 -0.523385,0.8797328 C 4.0579065,5.5251671 3.8017818,5.6699327 3.6236077,5.8369709 3.3452116,5.7256121 3,5.5919821 3,5.5919821 3.3786187,6.3492205 3.6458797,7.1175946 4.3363024,7.5741646 4.8819599,6.7055673 6.4409799,6.3046771 7.9999998,6.3269486 9.5590199,6.3046798 11.106904,6.7055673 11.663697,7.5741646 12.354121,7.1175946 12.621381,6.3603561 13,5.5919821 12.977727,5.5808477 12.632517,5.7144764 12.354121,5.8369709 Z"
     style="fill:#f9b00b;fill-opacity:1;stroke-width:0.999992" />
</svg>
