<?xml version="1.0" encoding="UTF-8" standalone="no"?>
<svg
   id="svg4113"
   height="128"
   width="128"
   version="1.1"
   sodipodi:docname="htop.svg"
   inkscape:version="1.2.2 (b0a8486541, 2022-12-01)"
   xmlns:inkscape="http://www.inkscape.org/namespaces/inkscape"
   xmlns:sodipodi="http://sodipodi.sourceforge.net/DTD/sodipodi-0.dtd"
   xmlns:xlink="http://www.w3.org/1999/xlink"
   xmlns="http://www.w3.org/2000/svg"
   xmlns:svg="http://www.w3.org/2000/svg"
   xmlns:rdf="http://www.w3.org/1999/02/22-rdf-syntax-ns#"
   xmlns:cc="http://creativecommons.org/ns#"
   xmlns:dc="http://purl.org/dc/elements/1.1/">
  <sodipodi:namedview
     id="namedview12245"
     pagecolor="#ffffff"
     bordercolor="#000000"
     borderopacity="0.25"
     inkscape:showpageshadow="2"
     inkscape:pageopacity="0.0"
     inkscape:pagecheckerboard="0"
     inkscape:deskcolor="#d1d1d1"
     showgrid="false"
     inkscape:zoom="6.8671876"
     inkscape:cx="56.136518"
     inkscape:cy="72.51877"
     inkscape:window-width="1407"
     inkscape:window-height="939"
     inkscape:window-x="463"
     inkscape:window-y="74"
     inkscape:window-maximized="0"
     inkscape:current-layer="svg4113" />
  <defs
     id="defs4115">
    <linearGradient
       gradientTransform="matrix(2.7297298,0,0,2.7297298,-1.5135184,1.488321)"
       gradientUnits="userSpaceOnUse"
       xlink:href="#linearGradient3924"
       id="linearGradient4136"
       y2="42.311825"
       x2="23.99999"
       y1="5.6827893"
       x1="23.99999" />
    <linearGradient
       id="linearGradient3924">
      <stop
         offset="0"
         style="stop-color:#ffffff;stop-opacity:1"
         id="stop3926" />
      <stop
         offset="0.08524508"
         style="stop-color:#ffffff;stop-opacity:0.23529412"
         id="stop3928" />
      <stop
         offset="0.91000003"
         style="stop-color:#ffffff;stop-opacity:0.15686275"
         id="stop3930" />
      <stop
         offset="1"
         style="stop-color:#ffffff;stop-opacity:0.39215687"
         id="stop3932" />
    </linearGradient>
    <radialGradient
       gradientTransform="matrix(0,24.139622,-29.635745,0,361.28116,-204.72681)"
       gradientUnits="userSpaceOnUse"
       xlink:href="#linearGradient2867-449-88-871-390-598-476-591-434-148-57-177-8-3-3-6-4-8-8-8-5-7-8"
       id="radialGradient3936-3"
       fy="9.9571075"
       fx="7.1183534"
       r="8.9330635"
       cy="9.9571075"
       cx="7.1183534" />
    <linearGradient
       id="linearGradient2867-449-88-871-390-598-476-591-434-148-57-177-8-3-3-6-4-8-8-8-5-7-8">
      <stop
         offset="0"
         style="stop-color:#404648;stop-opacity:1"
         id="stop3750-1-0-7-6-6-1-3-9-3-9-2" />
      <stop
         offset="1"
         style="stop-color:#0c1011;stop-opacity:1"
         id="stop3754-1-8-5-2-7-6-7-1-9-1-0" />
    </linearGradient>
    <radialGradient
       gradientTransform="matrix(2.003784,0,0,1.4,27.98813,-17.4)"
       gradientUnits="userSpaceOnUse"
       xlink:href="#linearGradient3688-166-749-5"
       id="radialGradient4093"
       fy="43.5"
       fx="4.9929786"
       r="2.5"
       cy="43.5"
       cx="4.9929786" />
    <linearGradient
       id="linearGradient3688-166-749-5">
      <stop
         offset="0"
         style="stop-color:#181818;stop-opacity:1"
         id="stop2883-0" />
      <stop
         offset="1"
         style="stop-color:#181818;stop-opacity:0"
         id="stop2885-5" />
    </linearGradient>
    <radialGradient
       gradientTransform="matrix(2.003784,0,0,1.4,-20.01187,-104.4)"
       gradientUnits="userSpaceOnUse"
       xlink:href="#linearGradient3688-464-309-8"
       id="radialGradient4095"
       fy="43.5"
       fx="4.9929786"
       r="2.5"
       cy="43.5"
       cx="4.9929786" />
    <linearGradient
       id="linearGradient3688-464-309-8">
      <stop
         offset="0"
         style="stop-color:#181818;stop-opacity:1"
         id="stop2889-9" />
      <stop
         offset="1"
         style="stop-color:#181818;stop-opacity:0"
         id="stop2891-4" />
    </linearGradient>
    <linearGradient
       gradientUnits="userSpaceOnUse"
       xlink:href="#linearGradient3702-501-757-0"
       id="linearGradient4097"
       y2="39.999443"
       x2="25.058096"
       y1="47.027729"
       x1="25.058096" />
    <linearGradient
       id="linearGradient3702-501-757-0">
      <stop
         offset="0"
         style="stop-color:#181818;stop-opacity:0"
         id="stop2895-0" />
      <stop
         offset="0.5"
         style="stop-color:#181818;stop-opacity:1"
         id="stop2897-2" />
      <stop
         offset="1"
         style="stop-color:#181818;stop-opacity:0"
         id="stop2899-6" />
    </linearGradient>
    <linearGradient
       id="linearGradient3811">
      <stop
         offset="0"
         style="stop-color:#000000;stop-opacity:1"
         id="stop3813" />
      <stop
         offset="1"
         style="stop-color:#000000;stop-opacity:0"
         id="stop3815" />
    </linearGradient>
    <radialGradient
       gradientTransform="matrix(1.5563924,0,0,0.16978827,70.270355,102.1321)"
       gradientUnits="userSpaceOnUse"
       xlink:href="#linearGradient3811"
       id="radialGradient4111"
       fy="93.467628"
       fx="-4.0287771"
       r="35.338131"
       cy="93.467628"
       cx="-4.0287771" />
  </defs>
  <metadata
     id="metadata4118">
    <rdf:RDF>
      <cc:Work
         rdf:about="">
        <dc:format>image/svg+xml</dc:format>
        <dc:type
           rdf:resource="http://purl.org/dc/dcmitype/StillImage" />
      </cc:Work>
    </rdf:RDF>
  </metadata>
  <path
     d="m 119,118.00181 a 55,6 0 0 1 -109.9999982,0 55,6 0 1 1 109.9999982,0 z"
     id="path3041"
     style="color:#000000;display:inline;overflow:visible;visibility:visible;opacity:0.2;fill:url(#radialGradient4111);fill-opacity:1;fill-rule:nonzero;stroke:none;stroke-width:1;marker:none;enable-background:accumulate" />
  <g
     transform="matrix(2.6999989,0,0,0.55555607,-0.80000812,94.890691)"
     id="g2036"
     style="display:inline">
    <g
       transform="matrix(1.052632,0,0,1.285713,-1.263158,-13.42854)"
       id="g3712"
       style="opacity:0.4">
      <rect
         width="5"
         height="7"
         x="38"
         y="40"
         id="rect2801"
         style="fill:url(#radialGradient4093);fill-opacity:1;stroke:none" />
      <rect
         width="5"
         height="7"
         x="-10"
         y="-47"
         transform="scale(-1,-1)"
         id="rect3696"
         style="fill:url(#radialGradient4095);fill-opacity:1;stroke:none" />
      <rect
         width="28"
         height="7.0000005"
         x="10"
         y="40"
         id="rect3700"
         style="fill:url(#linearGradient4097);fill-opacity:1;stroke:none" />
    </g>
  </g>
  <rect
     width="103"
     height="103"
     rx="10"
     ry="10"
     x="12.499988"
     y="15.501808"
     id="rect5505-21-3"
     style="color:#000000;display:inline;overflow:visible;visibility:visible;opacity:0.9;fill:url(#radialGradient3936-3);fill-opacity:1;fill-rule:nonzero;stroke:none;stroke-width:1;marker:none;enable-background:accumulate" />
  <path
     style="color:#000000;fill:#000000;fill-opacity:0.15;fill-rule:evenodd;-inkscape-stroke:none;paint-order:markers fill stroke"
     d="m 31,35 v 66 H 54 V 75 h 20 v 26 H 97 V 35 H 74 V 61 H 54 V 35 Z"
     id="path13997"
     sodipodi:nodetypes="ccccccccccccc" />
  <path
     id="rect8669"
     style="fill:#000000;fill-opacity:0.30000001;fill-rule:evenodd;stroke:none;stroke-width:0.999999;stroke-dasharray:none;paint-order:markers fill stroke;stop-color:#000000"
     d="m 33,36 v 12 h 6 V 36 Z m 7,0 v 12 h 6 V 36 Z m 7,0 v 12 h 6 V 36 Z m 28,0 v 12 h 6 V 36 Z m 7,0 v 12 h 6 V 36 Z m 7,0 v 12 h 6 V 36 Z M 33,49 v 12 h 6 V 49 Z m 7,0 v 12 h 6 V 49 Z m 7,0 v 12 h 6 V 49 Z m 28,0 v 12 h 6 V 49 Z m 7,0 v 12 h 6 V 49 Z m 7,0 v 12 h 6 V 49 Z M 33,62 v 12 h 6 V 62 Z m 7,0 v 12 h 6 V 62 Z m 7,0 v 12 h 6 V 62 Z m 7,0 v 12 h 6 V 62 Z m 7,0 v 12 h 6 V 62 Z m 7,0 v 12 h 6 V 62 Z m 7,0 v 12 h 6 V 62 Z m 7,0 v 12 h 6 V 62 Z m 7,0 v 12 h 6 V 62 Z M 33,75 v 12 h 6 V 75 Z m 7,0 v 12 h 6 V 75 Z m 7,0 v 12 h 6 V 75 Z m 28,0 v 12 h 6 V 75 Z m 7,0 v 12 h 6 V 75 Z m 7,0 v 12 h 6 V 75 Z M 33,88 v 12 h 6 V 88 Z m 7,0 v 12 h 6 V 88 Z m 7,0 v 12 h 6 V 88 Z m 28,0 v 12 h 6 V 88 Z m 7,0 v 12 h 6 V 88 Z m 7,0 v 12 h 6 V 88 Z" />
  <rect
     width="101"
     height="101"
     rx="9"
     ry="9"
     x="13.499988"
     y="16.501808"
     id="rect6741-7"
     style="opacity:0.3;fill:none;stroke:url(#linearGradient4136);stroke-width:1;stroke-linecap:round;stroke-linejoin:round;stroke-miterlimit:4;stroke-dasharray:none;stroke-dashoffset:0;stroke-opacity:1" />
  <rect
     width="103"
     height="103"
     rx="10"
     ry="10"
     x="12.499988"
     y="15.501808"
     id="rect5505-21-3-1"
     style="color:#000000;display:inline;overflow:visible;visibility:visible;opacity:0.7;fill:none;stroke:#000000;stroke-width:1;stroke-linecap:round;stroke-linejoin:round;stroke-miterlimit:4;stroke-dasharray:none;stroke-dashoffset:0;stroke-opacity:1;marker:none;enable-background:accumulate" />
  <path
     id="rect4479"
     style="font-variation-settings:normal;opacity:1;vector-effect:none;fill:#000000;fill-opacity:0.30000001;fill-rule:evenodd;stroke:none;stroke-width:0.999999;stroke-linecap:butt;stroke-linejoin:miter;stroke-miterlimit:4;stroke-dasharray:none;stroke-dashoffset:0;stroke-opacity:1;-inkscape-stroke:none;paint-order:markers fill stroke;stop-color:#000000;stop-opacity:1"
     d="M 32 35 L 32 47 L 38 47 L 38 35 L 32 35 z M 39 35 L 39 47 L 45 47 L 45 35 L 39 35 z M 46 35 L 46 47 L 52 47 L 52 35 L 46 35 z M 76 35 L 76 47 L 82 47 L 82 35 L 76 35 z M 83 35 L 83 47 L 89 47 L 89 35 L 83 35 z M 90 35 L 90 47 L 96 47 L 96 35 L 90 35 z M 32 48 L 32 60 L 38 60 L 38 48 L 32 48 z M 39 48 L 39 60 L 45 60 L 45 48 L 39 48 z M 46 48 L 46 60 L 52 60 L 52 48 L 46 48 z M 76 48 L 76 60 L 82 60 L 82 48 L 76 48 z M 83 48 L 83 60 L 89 60 L 89 48 L 83 48 z M 90 48 L 90 60 L 96 60 L 96 48 L 90 48 z M 32 61 L 32 73 L 38 73 L 38 61 L 32 61 z M 39 61 L 39 73 L 45 73 L 45 61 L 39 61 z M 46 61 L 46 73 L 52 73 L 52 61 L 46 61 z M 53 61 L 53 73 L 59 73 L 59 61 L 53 61 z M 60 61 L 60 73 L 62 73 L 66 73 L 68 73 L 68 61 L 66 61 L 62 61 L 60 61 z M 69 61 L 69 73 L 75 73 L 75 61 L 69 61 z M 76 61 L 76 73 L 82 73 L 82 61 L 76 61 z M 83 61 L 83 73 L 89 73 L 89 61 L 83 61 z M 90 61 L 90 73 L 96 73 L 96 61 L 90 61 z M 32 74 L 32 86 L 38 86 L 38 74 L 32 74 z M 39 74 L 39 86 L 45 86 L 45 74 L 39 74 z M 46 74 L 46 86 L 52 86 L 52 74 L 46 74 z M 76 74 L 76 86 L 82 86 L 82 74 L 76 74 z M 83 74 L 83 86 L 89 86 L 89 74 L 83 74 z M 90 74 L 90 86 L 96 86 L 96 74 L 90 74 z M 32 87 L 32 99 L 38 99 L 38 87 L 32 87 z M 39 87 L 39 99 L 45 99 L 45 87 L 39 87 z M 46 87 L 46 99 L 52 99 L 52 87 L 46 87 z M 76 87 L 76 99 L 82 99 L 82 87 L 76 87 z M 83 87 L 83 99 L 89 99 L 89 87 L 83 87 z M 90 87 L 90 99 L 96 99 L 96 87 L 90 87 z " />
  <rect
     style="fill:#9bdb4d;fill-opacity:1;fill-rule:evenodd;stroke:none;stroke-width:0.999999;stroke-dasharray:none;paint-order:markers fill stroke;stop-color:#000000"
     id="rect27345"
     width="6"
     height="12"
     x="33"
     y="35" />
  <rect
     style="fill:#9bdb4d;fill-opacity:1;fill-rule:evenodd;stroke:none;stroke-width:0.999999;stroke-dasharray:none;paint-order:markers fill stroke;stop-color:#000000"
     id="rect27399"
     width="6"
     height="12"
     x="40"
     y="35" />
  <rect
     style="fill:#9bdb4d;fill-opacity:1;fill-rule:evenodd;stroke:none;stroke-width:0.999999;stroke-dasharray:none;paint-order:markers fill stroke;stop-color:#000000"
     id="rect27401"
     width="6"
     height="12"
     x="47"
     y="35" />
  <rect
     style="fill:#9bdb4d;fill-opacity:1;fill-rule:evenodd;stroke:none;stroke-width:0.999999;stroke-dasharray:none;paint-order:markers fill stroke;stop-color:#000000"
     id="rect27403"
     width="6"
     height="12"
     x="33"
     y="48" />
  <rect
     style="fill:#9bdb4d;fill-opacity:1;fill-rule:evenodd;stroke:none;stroke-width:0.999999;stroke-dasharray:none;paint-order:markers fill stroke;stop-color:#000000"
     id="rect27405"
     width="6"
     height="12"
     x="40"
     y="48" />
  <rect
     style="fill:#9bdb4d;fill-opacity:1;fill-rule:evenodd;stroke:none;stroke-width:0.999999;stroke-dasharray:none;paint-order:markers fill stroke;stop-color:#000000"
     id="rect27407"
     width="6"
     height="12"
     x="47"
     y="48" />
  <rect
     style="fill:#9bdb4d;fill-opacity:1;fill-rule:evenodd;stroke:none;stroke-width:0.999999;stroke-dasharray:none;paint-order:markers fill stroke;stop-color:#000000"
     id="rect27409"
     width="6"
     height="12"
     x="33"
     y="61" />
  <rect
     style="fill:#9bdb4d;fill-opacity:1;fill-rule:evenodd;stroke:none;stroke-width:0.999999;stroke-dasharray:none;paint-order:markers fill stroke;stop-color:#000000"
     id="rect27411"
     width="6"
     height="12"
     x="40"
     y="61" />
  <rect
     style="fill:#9bdb4d;fill-opacity:1;fill-rule:evenodd;stroke:none;stroke-width:0.999999;stroke-dasharray:none;paint-order:markers fill stroke;stop-color:#000000"
     id="rect27413"
     width="6"
     height="12"
     x="47"
     y="61" />
  <rect
     style="fill:#9bdb4d;fill-opacity:1;fill-rule:evenodd;stroke:none;stroke-width:0.999999;stroke-dasharray:none;paint-order:markers fill stroke;stop-color:#000000"
     id="rect27415"
     width="6"
     height="12"
     x="33"
     y="74" />
  <rect
     style="fill:#9bdb4d;fill-opacity:1;fill-rule:evenodd;stroke:none;stroke-width:0.999999;stroke-dasharray:none;paint-order:markers fill stroke;stop-color:#000000"
     id="rect27417"
     width="6"
     height="12"
     x="40"
     y="74" />
  <rect
     style="fill:#9bdb4d;fill-opacity:1;fill-rule:evenodd;stroke:none;stroke-width:0.999999;stroke-dasharray:none;paint-order:markers fill stroke;stop-color:#000000"
     id="rect27419"
     width="6"
     height="12"
     x="47"
     y="74" />
  <rect
     style="fill:#9bdb4d;fill-opacity:1;fill-rule:evenodd;stroke:none;stroke-width:0.999999;stroke-dasharray:none;paint-order:markers fill stroke;stop-color:#000000"
     id="rect27421"
     width="6"
     height="12"
     x="33"
     y="87" />
  <rect
     style="fill:#9bdb4d;fill-opacity:1;fill-rule:evenodd;stroke:none;stroke-width:0.999999;stroke-dasharray:none;paint-order:markers fill stroke;stop-color:#000000"
     id="rect27423"
     width="6"
     height="12"
     x="40"
     y="87" />
  <rect
     style="fill:#9bdb4d;fill-opacity:1;fill-rule:evenodd;stroke:none;stroke-width:0.999999;stroke-dasharray:none;paint-order:markers fill stroke;stop-color:#000000"
     id="rect27425"
     width="6"
     height="12"
     x="47"
     y="87" />
  <rect
     style="fill:#9bdb4d;fill-opacity:1;fill-rule:evenodd;stroke:none;stroke-width:0.999999;stroke-dasharray:none;paint-order:markers fill stroke;stop-color:#000000"
     id="rect27427"
     width="6"
     height="12"
     x="61"
     y="61" />
  <rect
     style="fill:#9bdb4d;fill-opacity:1;fill-rule:evenodd;stroke:none;stroke-width:0.999999;stroke-dasharray:none;paint-order:markers fill stroke;stop-color:#000000"
     id="rect27431"
     width="6"
     height="12"
     x="68"
     y="61" />
  <rect
     style="fill:#9bdb4d;fill-opacity:1;fill-rule:evenodd;stroke:none;stroke-width:0.999999;stroke-dasharray:none;paint-order:markers fill stroke;stop-color:#000000"
     id="rect12551"
     width="6"
     height="12"
     x="75"
     y="35" />
  <rect
     style="fill:#9bdb4d;fill-opacity:1;fill-rule:evenodd;stroke:none;stroke-width:0.999999;stroke-dasharray:none;paint-order:markers fill stroke;stop-color:#000000"
     id="rect12553"
     width="6"
     height="12"
     x="82"
     y="35" />
  <rect
     style="fill:#ff8c82;fill-opacity:1;fill-rule:evenodd;stroke:none;stroke-width:0.999999;stroke-dasharray:none;paint-order:markers fill stroke;stop-color:#000000"
     id="rect12555"
     width="6"
     height="12"
     x="89"
     y="35" />
  <rect
     style="fill:#9bdb4d;fill-opacity:1;fill-rule:evenodd;stroke:none;stroke-width:0.999999;stroke-dasharray:none;paint-order:markers fill stroke;stop-color:#000000"
     id="rect12557"
     width="6"
     height="12"
     x="75"
     y="48" />
  <rect
     style="fill:#ff8c82;fill-opacity:1;fill-rule:evenodd;stroke:none;stroke-width:0.999999;stroke-dasharray:none;paint-order:markers fill stroke;stop-color:#000000"
     id="rect12559"
     width="6"
     height="12"
     x="82"
     y="48" />
  <rect
     style="fill:#ff8c82;fill-opacity:1;fill-rule:evenodd;stroke:none;stroke-width:0.999999;stroke-dasharray:none;paint-order:markers fill stroke;stop-color:#000000"
     id="rect12561"
     width="6"
     height="12"
     x="89"
     y="48" />
  <rect
     style="fill:#ff8c82;fill-opacity:1;fill-rule:evenodd;stroke:none;stroke-width:0.999999;stroke-dasharray:none;paint-order:markers fill stroke;stop-color:#000000"
     id="rect12563"
     width="6"
     height="12"
     x="75"
     y="61" />
  <rect
     style="fill:#ff8c82;fill-opacity:1;fill-rule:evenodd;stroke:none;stroke-width:0.999999;stroke-dasharray:none;paint-order:markers fill stroke;stop-color:#000000"
     id="rect12565"
     width="6"
     height="12"
     x="82"
     y="61" />
  <rect
     style="fill:#ff8c82;fill-opacity:1;fill-rule:evenodd;stroke:none;stroke-width:0.999999;stroke-dasharray:none;paint-order:markers fill stroke;stop-color:#000000"
     id="rect12567"
     width="6"
     height="12"
     x="89"
     y="61" />
  <rect
     style="fill:#ff8c82;fill-opacity:1;fill-rule:evenodd;stroke:none;stroke-width:0.999999;stroke-dasharray:none;paint-order:markers fill stroke;stop-color:#000000"
     id="rect12569"
     width="6"
     height="12"
     x="75"
     y="74" />
  <rect
     style="fill:#ff8c82;fill-opacity:1;fill-rule:evenodd;stroke:none;stroke-width:0.999999;stroke-dasharray:none;paint-order:markers fill stroke;stop-color:#000000"
     id="rect12571"
     width="6"
     height="12"
     x="82"
     y="74" />
  <rect
     style="fill:#ff8c82;fill-opacity:1;fill-rule:evenodd;stroke:none;stroke-width:0.999999;stroke-dasharray:none;paint-order:markers fill stroke;stop-color:#000000"
     id="rect12573"
     width="6"
     height="12"
     x="89"
     y="74" />
  <rect
     style="fill:#ff8c82;fill-opacity:1;fill-rule:evenodd;stroke:none;stroke-width:0.999999;stroke-dasharray:none;paint-order:markers fill stroke;stop-color:#000000"
     id="rect12575"
     width="6"
     height="12"
     x="75"
     y="87" />
  <rect
     style="fill:#ff8c82;fill-opacity:1;fill-rule:evenodd;stroke:none;stroke-width:0.999999;stroke-dasharray:none;paint-order:markers fill stroke;stop-color:#000000"
     id="rect12577"
     width="6"
     height="12"
     x="82"
     y="87" />
  <rect
     style="fill:#ff8c82;fill-opacity:1;fill-rule:evenodd;stroke:none;stroke-width:0.999999;stroke-dasharray:none;paint-order:markers fill stroke;stop-color:#000000"
     id="rect12579"
     width="6"
     height="12"
     x="89"
     y="87" />
  <rect
     style="fill:#9bdb4d;fill-opacity:1;fill-rule:evenodd;stroke:none;stroke-width:0.999999;stroke-dasharray:none;paint-order:markers fill stroke;stop-color:#000000"
     id="rect12779"
     width="6"
     height="12"
     x="54"
     y="61" />
</svg>
