<?xml version="1.0" encoding="UTF-8" standalone="no"?>
<svg
   id="svg3658"
   height="32"
   width="32"
   version="1.1"
   sodipodi:docname="emblem-music.svg"
   inkscape:version="1.2.2 (b0a8486541, 2022-12-01)"
   xmlns:inkscape="http://www.inkscape.org/namespaces/inkscape"
   xmlns:sodipodi="http://sodipodi.sourceforge.net/DTD/sodipodi-0.dtd"
   xmlns:xlink="http://www.w3.org/1999/xlink"
   xmlns="http://www.w3.org/2000/svg"
   xmlns:svg="http://www.w3.org/2000/svg"
   xmlns:rdf="http://www.w3.org/1999/02/22-rdf-syntax-ns#"
   xmlns:cc="http://creativecommons.org/ns#"
   xmlns:dc="http://purl.org/dc/elements/1.1/">
  <sodipodi:namedview
     id="namedview10289"
     pagecolor="#ffffff"
     bordercolor="#666666"
     borderopacity="1.0"
     inkscape:showpageshadow="2"
     inkscape:pageopacity="0.0"
     inkscape:pagecheckerboard="0"
     inkscape:deskcolor="#d1d1d1"
     showgrid="false"
     inkscape:zoom="15.999999"
     inkscape:cx="4.5000002"
     inkscape:cy="1.9687501"
     inkscape:window-width="1326"
     inkscape:window-height="807"
     inkscape:window-x="737"
     inkscape:window-y="128"
     inkscape:window-maximized="0"
     inkscape:current-layer="svg3658" />
  <defs
     id="defs3660">
    <linearGradient
       id="linearGradient10435">
      <stop
         id="stop10431"
         offset="0"
         style="stop-color:#8cd5ff;stop-opacity:1" />
      <stop
         id="stop10433"
         offset="1"
         style="stop-color:#3689e6;stop-opacity:1" />
    </linearGradient>
    <linearGradient
       id="linearGradient4011">
      <stop
         offset="0"
         style="stop-color:#ffffff;stop-opacity:1"
         id="stop4013" />
      <stop
         offset="0.507761"
         style="stop-color:#ffffff;stop-opacity:0.23529412"
         id="stop4015" />
      <stop
         offset="0.83456558"
         style="stop-color:#ffffff;stop-opacity:0.15686275"
         id="stop4017" />
      <stop
         offset="1"
         style="stop-color:#ffffff;stop-opacity:0.39215687"
         id="stop4019" />
    </linearGradient>
    <linearGradient
       id="linearGradient3820-7-2-2">
      <stop
         offset="0"
         style="stop-color:#3d3d3d;stop-opacity:1"
         id="stop3822-2-6-36" />
      <stop
         offset="0.5"
         style="stop-color:#686868;stop-opacity:0.49803922"
         id="stop3864-8-7-6" />
      <stop
         offset="1"
         style="stop-color:#686868;stop-opacity:0"
         id="stop3824-1-2-4" />
    </linearGradient>
    <radialGradient
       r="62.769119"
       fy="186.17059"
       fx="99.157013"
       cy="186.17059"
       cx="99.157013"
       gradientTransform="matrix(0.17524541,0,0,0.05575992,-1.3768101,18.11895)"
       gradientUnits="userSpaceOnUse"
       id="radialGradient4048"
       xlink:href="#linearGradient3820-7-2-2" />
    <linearGradient
       x1="71.204407"
       y1="6.2375584"
       x2="71.204407"
       y2="44.340794"
       id="linearGradient12398-3"
       xlink:href="#linearGradient4011"
       gradientUnits="userSpaceOnUse"
       gradientTransform="matrix(0.72973007,0,0,0.72973007,-36.346113,-2.5039328)" />
    <linearGradient
       x1="2035.1652"
       y1="3202.9546"
       x2="2035.1652"
       y2="3259.6836"
       id="linearGradient11527-6-5"
       xlink:href="#linearGradient10435"
       gradientUnits="userSpaceOnUse"
       gradientTransform="matrix(1.1113759,0,0,0.83086027,-2249.8942,-2663.1587)" />
  </defs>
  <metadata
     id="metadata3663">
    <rdf:RDF>
      <cc:Work
         rdf:about="">
        <dc:format>image/svg+xml</dc:format>
        <dc:type
           rdf:resource="http://purl.org/dc/dcmitype/StillImage" />
      </cc:Work>
    </rdf:RDF>
  </metadata>
  <path
     style="fill:url(#radialGradient4048);fill-opacity:1;stroke:none"
     id="path3818-0-2"
     d="m 27.000001,28.499804 a 11,3.4999999 0 1 1 -21.9999997,0 11,3.4999999 0 1 1 21.9999997,0 z" />
  <path
     d="m 15.999999,1.4999997 c -8.000603,0 -14.5,6.4993973 -14.5,14.5000003 0,8.000603 6.499397,14.5 14.5,14.5 C 24.000603,30.5 30.500014,24.000603 30.5,16 30.5,7.999397 24.000603,1.4999997 15.999999,1.4999997 Z"
     id="path2555-7-8-5-0-9"
     style="color:#000000;display:inline;overflow:visible;visibility:visible;opacity:0.98999999;fill:url(#linearGradient11527-6-5);fill-opacity:1;fill-rule:nonzero;stroke:#0d52bf;stroke-width:0.99999982;marker:none;enable-background:accumulate;stroke-opacity:0.5" />
  <path
     d="m 29.5,15.999517 c 0,7.456096 -6.044607,13.500489 -13.499837,13.500489 -7.455912,0 -13.5001626,-6.044464 -13.5001626,-13.500489 0,-7.4557408 6.0442506,-13.4995231 13.5001626,-13.4995231 7.45523,0 13.499837,6.0437824 13.499837,13.4995231 z"
     id="path8655-6-0-9-5-0"
     style="color:#000000;display:inline;overflow:visible;visibility:visible;opacity:0.5;fill:none;stroke:url(#linearGradient12398-3);stroke-width:0.99999988;stroke-linecap:round;stroke-linejoin:round;stroke-miterlimit:4;stroke-dasharray:none;stroke-dashoffset:0;stroke-opacity:1;marker:none;enable-background:accumulate" />
  <path
     style="color:#000000;fill:#0d52bf;fill-opacity:0.1;-inkscape-stroke:none"
     d="m 21.689453,4.936 -0.228516,0.042969 -8.589843,1.5800781 -0.08594,0.025391 C 11.089763,7.0568753 10,8.653038 10,10.314906 v 1.583985 5.883499 c -0.3959872,0.02656 -0.7942316,0.02839 -1.1816406,0.146484 -2.3394341,0.71311 -4.1418754,3.032547 -3.53125,5.625 0.3152897,1.338624 1.2673245,2.354643 2.3769531,2.861328 1.0845972,0.495247 2.3269761,0.549893 3.4902345,0.195313 1.841414,-0.561292 3.587171,-1.877038 3.833984,-4.177735 L 15,22.327311 v -7.36592 l 4.970703,-0.994141 0.01367,2.15625 c -0.403665,0.02531 -0.810198,0.03002 -1.205078,0.150391 -2.341452,0.713732 -4.144119,3.035156 -3.533203,5.628906 0.315696,1.340303 1.268482,2.356231 2.378906,2.863281 1.086723,0.496223 2.329428,0.550343 3.494141,0.195312 1.801971,-0.54928 3.568411,-1.780067 3.865234,-4.08789 L 25,20.744594 24.990234,9.8324844 25,8.2485 V 8.24264 C 25.000009,7.2701704 24.598587,6.2669791 23.724609,5.6000625 23.179766,5.1843033 22.540998,4.9781563 21.919922,4.9477187 Z"
     id="path15868"
     sodipodi:nodetypes="ccccscccccscccccccssccccsscc" />
  <path
     id="path15835"
     style="color:#000000;fill:#002e99;fill-opacity:0.3;-inkscape-stroke:none"
     d="M 21.822648,7.9454531 13.322266,9.5099058 C 12.517828,9.7340703 12,10.479719 12,11.314593 v 1.583986 8.401076 c -0.155777,-0.127092 -0.336216,-0.273716 -0.519531,-0.357422 -0.607699,-0.277491 -1.343141,-0.323645 -2.0781252,-0.09961 -1.4699714,0.448079 -2.4967067,1.856272 -2.1679688,3.251953 0.1643639,0.697838 0.6520664,1.224461 1.2597656,1.501953 0.6076999,0.277487 1.3411882,0.323644 2.0761714,0.09961 C 11.764958,25.331993 12.880906,24.329726 13,23.219577 V 14.320453 L 21.957031,12.529438 22,19.672015 c -0.164934,-0.14008 -0.359366,-0.294685 -0.556641,-0.384766 -0.608328,-0.277775 -1.344329,-0.323881 -2.080078,-0.09961 -1.471485,0.448545 -2.49899,1.858743 -2.169922,3.255859 0.16454,0.698563 0.65339,1.226127 1.261719,1.503907 0.608328,0.277777 1.344335,0.323881 2.080078,0.09961 C 21.713187,23.687926 22.859645,22.708601 23,21.617328 L 22.991,10.826312 23.0004,9.2423281 C 23.000386,8.8248627 22.826618,8.4295959 22.512101,8.1895937 22.315529,8.0395935 22.074404,7.9577911 21.822648,7.9454531 Z"
     sodipodi:nodetypes="ccsccscsssccccssssscccsc" />
  <path
     id="path15075"
     style="color:#000000;fill:#ffffff;fill-opacity:1;-inkscape-stroke:none"
     d="m 21.365241,6.9988018 -7.50586,1.375 -0.49414,0.136719 c -0.804438,0.224165 -1.365235,0.9698108 -1.365235,1.8046872 v 1.583867 L 12,20.300152 C 11.833941,20.17306 11.683703,20.026436 11.488288,19.94273 10.840479,19.665239 10.056942,19.619084 9.273444,19.84312 7.706448,20.2912 6.612461,21.699392 6.962897,23.095073 c 0.175213,0.69784 0.69594,1.224462 1.34375,1.501953 0.647811,0.277488 1.429395,0.323646 2.212891,0.09961 C 11.793037,24.332489 12.873046,23.330224 13,22.220074 v -8.899125 l 9,-1.820496 v 7.172059 c -0.17582,-0.14008 -0.340474,-0.294685 -0.55077,-0.384766 -0.648482,-0.277778 -1.432486,-0.323882 -2.216797,-0.09961 -1.568613,0.448545 -2.663289,1.858739 -2.3125,3.255859 0.175401,0.698563 0.695267,1.226127 1.34375,1.503907 0.64848,0.277779 1.434443,0.323882 2.21875,0.09961 C 21.73822,22.688422 22.850381,21.709102 23,20.617825 l 10e-6,-10.7910114 V 8.2429468 c 9e-6,-0.417466 -0.173763,-0.812732 -0.48828,-1.052734 -0.196572,-0.150001 -0.437697,-0.231803 -0.639104,-0.241672 -0.201408,-0.00987 -0.35918,0.023922 -0.507385,0.050261 z"
     sodipodi:nodetypes="cccsccsccssccccsscsscccscc" />
</svg>
