<?xml version="1.0" encoding="UTF-8" standalone="no"?>
<svg
   version="1.1"
   width="32"
   height="32"
   id="svg9767"
   sodipodi:docname="emblem-videos.svg"
   inkscape:version="1.2.2 (b0a8486541, 2022-12-01)"
   xmlns:inkscape="http://www.inkscape.org/namespaces/inkscape"
   xmlns:sodipodi="http://sodipodi.sourceforge.net/DTD/sodipodi-0.dtd"
   xmlns:xlink="http://www.w3.org/1999/xlink"
   xmlns="http://www.w3.org/2000/svg"
   xmlns:svg="http://www.w3.org/2000/svg"
   xmlns:rdf="http://www.w3.org/1999/02/22-rdf-syntax-ns#"
   xmlns:cc="http://creativecommons.org/ns#"
   xmlns:dc="http://purl.org/dc/elements/1.1/">
  <sodipodi:namedview
     id="namedview21"
     pagecolor="#ffffff"
     bordercolor="#666666"
     borderopacity="1.0"
     inkscape:showpageshadow="2"
     inkscape:pageopacity="0.0"
     inkscape:pagecheckerboard="0"
     inkscape:deskcolor="#d1d1d1"
     showgrid="false"
     inkscape:zoom="7.375"
     inkscape:cx="30.644068"
     inkscape:cy="28.135593"
     inkscape:window-width="1326"
     inkscape:window-height="631"
     inkscape:window-x="454"
     inkscape:window-y="760"
     inkscape:window-maximized="0"
     inkscape:current-layer="svg9767" />
  <defs
     id="defs9769">
    <linearGradient
       inkscape:collect="always"
       id="linearGradient28477">
      <stop
         style="stop-color:#273445;stop-opacity:0.40000001;"
         offset="0"
         id="stop28473" />
      <stop
         style="stop-color:#273445;stop-opacity:0.40000001;"
         offset="1"
         id="stop28475" />
    </linearGradient>
    <linearGradient
       x1="23.99999"
       y1="7.0416851"
       x2="23.99999"
       y2="40.958347"
       id="linearGradient7191"
       xlink:href="#linearGradient3924-4-8"
       gradientUnits="userSpaceOnUse"
       gradientTransform="matrix(0.29729742,0,0,0.56756765,8.8648584,2.3783674)" />
    <linearGradient
       id="linearGradient3924-4-8">
      <stop
         id="stop3926-0-4"
         style="stop-color:#ffffff;stop-opacity:1"
         offset="0" />
      <stop
         id="stop3928-6-8"
         style="stop-color:#ffffff;stop-opacity:0.23529412"
         offset="0" />
      <stop
         id="stop3930-2-1"
         style="stop-color:#ffffff;stop-opacity:0.15686275"
         offset="1" />
      <stop
         id="stop3932-9-0"
         style="stop-color:#ffffff;stop-opacity:0.39215687"
         offset="1" />
    </linearGradient>
    <linearGradient
       id="linearGradient895">
      <stop
         offset="0"
         style="stop-color:#8cd5ff;stop-opacity:1"
         id="stop891" />
      <stop
         offset="1"
         style="stop-color:#64baff;stop-opacity:1"
         id="stop893" />
    </linearGradient>
    <linearGradient
       gradientUnits="userSpaceOnUse"
       y2="32.392605"
       x2="12"
       y1="8.9457788"
       x1="12"
       id="linearGradient889"
       xlink:href="#linearGradient895"
       gradientTransform="matrix(1.076923,0,0,1.2,3.0769032,-7.3999621)" />
    <linearGradient
       inkscape:collect="always"
       xlink:href="#linearGradient28477"
       id="linearGradient28479"
       x1="16.829401"
       y1="4.1729145"
       x2="16.829401"
       y2="27.995064"
       gradientUnits="userSpaceOnUse" />
  </defs>
  <metadata
     id="metadata9772">
    <rdf:RDF>
      <cc:Work
         rdf:about="">
        <dc:format>image/svg+xml</dc:format>
        <dc:type
           rdf:resource="http://purl.org/dc/dcmitype/StillImage" />
      </cc:Work>
    </rdf:RDF>
  </metadata>
  <path
     id="path28450"
     style="color:#000000;font-style:normal;font-variant:normal;font-weight:normal;font-stretch:normal;font-size:medium;line-height:normal;font-family:sans-serif;text-indent:0;text-align:start;text-decoration:none;text-decoration-line:none;text-decoration-style:solid;text-decoration-color:#000000;letter-spacing:normal;word-spacing:normal;text-transform:none;writing-mode:lr-tb;direction:ltr;baseline-shift:baseline;text-anchor:start;white-space:normal;clip-rule:nonzero;display:inline;overflow:visible;visibility:visible;opacity:1;isolation:auto;mix-blend-mode:normal;color-interpolation:sRGB;color-interpolation-filters:linearRGB;solid-color:#000000;solid-opacity:1;fill:#000000;fill-opacity:0.5;fill-rule:nonzero;stroke:none;stroke-width:1;stroke-linecap:round;stroke-linejoin:round;stroke-miterlimit:4;stroke-dasharray:none;stroke-dashoffset:0;stroke-opacity:1;marker:none;color-rendering:auto;image-rendering:auto;shape-rendering:auto;text-rendering:auto;enable-background:accumulate"
     d="M 6 3 C 4.8920044 3 4 3.8920044 4 5 L 4 27 C 4 28.107996 4.8920044 29 6 29 L 8 29 L 26 29 C 27.107996 29 28 28.107996 28 27 L 28 5 C 28 3.8920044 27.107996 3 26 3 L 8 3 L 6 3 z M 6 5 L 8 5 L 8 7 L 6 7 L 6 5 z M 11 5 L 21 5 C 21.553998 5 22 5.4460012 22 6 L 22 15 C 22 15.553998 21.553998 16 21 16 L 11 16 C 10.446002 16 10 15.553998 10 15 L 10 6 C 10 5.4460012 10.446002 5 11 5 z M 24 5 L 26 5 L 26 7 L 24 7 L 24 5 z M 6 9 L 8 9 L 8 11 L 6 11 L 6 9 z M 24 9 L 26 9 L 26 11 L 24 11 L 24 9 z M 6 13 L 8 13 L 8 15 L 6 15 L 6 13 z M 24 13 L 26 13 L 26 15 L 24 15 L 24 13 z M 11 16.791016 L 21 16.791016 C 21.553999 16.791016 22 17.237016 22 17.791016 L 22 26 C 22 26.553999 21.553999 27 21 27 L 11 27 C 10.446001 27 10 26.553999 10 26 L 10 17.791016 C 10 17.237016 10.446001 16.791016 11 16.791016 z M 6 17 L 8 17 L 8 19 L 6 19 L 6 17 z M 24 17 L 26 17 L 26 19 L 24 19 L 24 17 z M 6 21 L 8 21 L 8 23 L 6 23 L 6 21 z M 24 21 L 26 21 L 26 23 L 24 23 L 24 21 z M 6 25 L 8 25 L 8 27 L 6 27 L 6 25 z M 24 25 L 26 25 L 26 27 L 24 27 L 24 25 z " />
  <rect
     style="display:inline;opacity:1;fill:url(#linearGradient889);fill-opacity:1;stroke:none;stroke-width:0.999995;stroke-linecap:butt;stroke-linejoin:miter;stroke-miterlimit:4;stroke-dasharray:none;stroke-dashoffset:0;stroke-opacity:0.831373"
     id="rect3457-8"
     y="4"
     x="9"
     ry="2"
     rx="2"
     height="24"
     width="14" />
  <path
     id="rect5505-21"
     style="color:#000000;font-style:normal;font-variant:normal;font-weight:normal;font-stretch:normal;font-size:medium;line-height:normal;font-family:sans-serif;text-indent:0;text-align:start;text-decoration:none;text-decoration-line:none;text-decoration-style:solid;text-decoration-color:#000000;letter-spacing:normal;word-spacing:normal;text-transform:none;writing-mode:lr-tb;direction:ltr;baseline-shift:baseline;text-anchor:start;white-space:normal;clip-rule:nonzero;display:inline;overflow:visible;visibility:visible;opacity:1;isolation:auto;mix-blend-mode:normal;color-interpolation:sRGB;color-interpolation-filters:linearRGB;solid-color:#000000;solid-opacity:1;fill:url(#linearGradient28479);fill-opacity:1;fill-rule:nonzero;stroke:none;stroke-width:1;stroke-linecap:round;stroke-linejoin:round;stroke-miterlimit:4;stroke-dasharray:none;stroke-dashoffset:0;stroke-opacity:1;marker:none;color-rendering:auto;image-rendering:auto;shape-rendering:auto;text-rendering:auto;enable-background:accumulate"
     d="M 6.25,3.5 C 5.1420044,3.5 4.5,4.1420044 4.5,5.25 v 21.5 c 0,1.107996 0.6420044,1.75 1.75,1.75 H 8 25.75 c 1.107996,0 1.75,-0.642004 1.75,-1.75 V 5.25 C 27.5,4.1420044 26.857996,3.5 25.75,3.5 H 8 Z M 6,5 H 8 V 7 H 6 Z m 5,0 h 10 c 0.553998,0 1,0.4460012 1,1 v 9 c 0,0.553998 -0.446002,1 -1,1 H 11 c -0.553998,0 -1,-0.446002 -1,-1 V 6 c 0,-0.5539988 0.446002,-1 1,-1 z m 13,0 h 2 V 7 H 24 Z M 6,9 h 2 v 2 H 6 Z m 18,0 h 2 v 2 H 24 Z M 6,13 h 2 v 2 H 6 Z m 18,0 h 2 v 2 h -2 z m -13,3.791016 h 10 c 0.553999,0 1,0.446 1,1 V 26 c 0,0.553999 -0.446001,1 -1,1 H 11 c -0.553999,0 -1,-0.446001 -1,-1 v -8.208984 c 0,-0.554 0.446001,-1 1,-1 z M 6,17 h 2 v 2 H 6 Z m 18,0 h 2 v 2 H 24 Z M 6,21 h 2 v 2 H 6 Z m 18,0 h 2 v 2 H 24 Z M 6,25 h 2 v 2 H 6 Z m 18,0 h 2 v 2 h -2 z"
     sodipodi:nodetypes="sssscsssscscccccssssssssscccccccccccccccccccccccccssssssssscccccccccccccccccccccccccccccc" />
  <rect
     style="opacity:0.3;fill:none;stroke:url(#linearGradient7191);stroke-width:0.999995;stroke-linecap:round;stroke-linejoin:miter;stroke-miterlimit:4;stroke-dasharray:none;stroke-dashoffset:0;stroke-opacity:1"
     id="rect6741-0-3"
     y="5.5"
     x="10.499997"
     height="21"
     width="11.000005" />
  <path
     id="path4249"
     d="M 6,5 H 8 V 7 H 6 Z m 18,0 h 2 V 7 H 24 Z M 6,9 h 2 v 2 H 6 Z m 18,0 h 2 v 2 H 24 Z M 6,13 h 2 v 2 H 6 Z m 18,0 h 2 v 2 H 24 Z M 6,17 h 2 v 2 H 6 Z m 18,0 h 2 v 2 H 24 Z M 6,21 h 2 v 2 H 6 Z m 18,0 h 2 v 2 H 24 Z M 6,25 h 2 v 2 H 6 Z m 18,0 h 2 v 2 h -2 z"
     style="color:#000000;font-style:normal;font-variant:normal;font-weight:normal;font-stretch:normal;font-size:medium;line-height:normal;font-family:sans-serif;text-indent:0;text-align:start;text-decoration:none;text-decoration-line:none;text-decoration-style:solid;text-decoration-color:#000000;letter-spacing:normal;word-spacing:normal;text-transform:none;writing-mode:lr-tb;direction:ltr;baseline-shift:baseline;text-anchor:start;white-space:normal;clip-rule:nonzero;display:inline;overflow:visible;visibility:visible;opacity:0.1;isolation:auto;mix-blend-mode:normal;color-interpolation:sRGB;color-interpolation-filters:linearRGB;solid-color:#000000;solid-opacity:1;fill:#ffffff;fill-opacity:1;fill-rule:nonzero;stroke:none;stroke-width:1;stroke-linecap:round;stroke-linejoin:round;stroke-miterlimit:4;stroke-dasharray:none;stroke-dashoffset:0;stroke-opacity:1;marker:none;color-rendering:auto;image-rendering:auto;shape-rendering:auto;text-rendering:auto;enable-background:accumulate"
     sodipodi:nodetypes="cccccccccccccccccccccccccccccccccccccccccccccccccccccccccccc" />
  <rect
     style="opacity:1;fill:#ffffff;fill-opacity:0.5;fill-rule:evenodd;stroke:none;stroke-width:2;stroke-linejoin:round;stop-color:#000000"
     id="rect30060"
     width="2"
     height="2"
     x="6"
     y="5" />
  <rect
     style="opacity:1;fill:#ffffff;fill-opacity:0.5;fill-rule:evenodd;stroke:none;stroke-width:2;stroke-linejoin:round;stop-color:#000000"
     id="rect30426"
     width="2"
     height="2"
     x="6"
     y="9" />
  <rect
     style="opacity:1;fill:#ffffff;fill-opacity:0.5;fill-rule:evenodd;stroke:none;stroke-width:2;stroke-linejoin:round;stop-color:#000000"
     id="rect30428"
     width="2"
     height="2"
     x="6"
     y="13" />
  <rect
     style="opacity:1;fill:#ffffff;fill-opacity:0.5;fill-rule:evenodd;stroke:none;stroke-width:2;stroke-linejoin:round;stop-color:#000000"
     id="rect30430"
     width="2"
     height="2"
     x="6"
     y="17" />
  <rect
     style="opacity:1;fill:#ffffff;fill-opacity:0.5;fill-rule:evenodd;stroke:none;stroke-width:2;stroke-linejoin:round;stop-color:#000000"
     id="rect30432"
     width="2"
     height="2"
     x="6"
     y="21" />
  <rect
     style="opacity:1;fill:#ffffff;fill-opacity:0.5;fill-rule:evenodd;stroke:none;stroke-width:2;stroke-linejoin:round;stop-color:#000000"
     id="rect30434"
     width="2"
     height="2"
     x="6"
     y="25" />
  <rect
     style="opacity:1;fill:#ffffff;fill-opacity:0.5;fill-rule:evenodd;stroke:none;stroke-width:2;stroke-linejoin:round;stop-color:#000000"
     id="rect30436"
     width="2"
     height="2"
     x="24"
     y="5" />
  <rect
     style="opacity:1;fill:#ffffff;fill-opacity:0.5;fill-rule:evenodd;stroke:none;stroke-width:2;stroke-linejoin:round;stop-color:#000000"
     id="rect30438"
     width="2"
     height="2"
     x="24"
     y="9" />
  <rect
     style="opacity:1;fill:#ffffff;fill-opacity:0.5;fill-rule:evenodd;stroke:none;stroke-width:2;stroke-linejoin:round;stop-color:#000000"
     id="rect30440"
     width="2"
     height="2"
     x="24"
     y="13" />
  <rect
     style="opacity:1;fill:#ffffff;fill-opacity:0.5;fill-rule:evenodd;stroke:none;stroke-width:2;stroke-linejoin:round;stop-color:#000000"
     id="rect30442"
     width="2"
     height="2"
     x="24"
     y="17" />
  <rect
     style="opacity:1;fill:#ffffff;fill-opacity:0.5;fill-rule:evenodd;stroke:none;stroke-width:2;stroke-linejoin:round;stop-color:#000000"
     id="rect30444"
     width="2"
     height="2"
     x="24"
     y="21" />
  <rect
     style="opacity:1;fill:#ffffff;fill-opacity:0.5;fill-rule:evenodd;stroke:none;stroke-width:2;stroke-linejoin:round;stop-color:#000000"
     id="rect30446"
     width="2"
     height="2"
     x="24"
     y="25" />
  <path
     style="display:block;overflow:visible;visibility:visible;fill:none;stroke:#000000;stroke-width:0.999995;stroke-linecap:square;stroke-linejoin:round;stroke-miterlimit:4;stroke-dasharray:none;stroke-dashoffset:0;stroke-opacity:0.588235;marker:none"
     id="path4320"
     d="m 9.4999975,16.5 c 4.3333435,0 8.6666865,0 13.0000465,0" />
  <path
     style="display:block;overflow:visible;visibility:visible;opacity:0.2;fill:none;stroke:#ffffff;stroke-width:0.999995;stroke-linecap:square;stroke-linejoin:round;stroke-miterlimit:4;stroke-dasharray:none;stroke-dashoffset:0;stroke-opacity:1;marker:none"
     id="path4820"
     d="m 9.4999975,17.499999 c 4.3333485,0 8.6667165,0 13.0000465,0" />
</svg>
