<?xml version="1.0" encoding="UTF-8" standalone="no"?>
<svg
   id="svg3810"
   height="48"
   width="48"
   version="1.1"
   sodipodi:docname="edit-delete.svg"
   inkscape:version="1.2.2 (b0a8486541, 2022-12-01)"
   xmlns:inkscape="http://www.inkscape.org/namespaces/inkscape"
   xmlns:sodipodi="http://sodipodi.sourceforge.net/DTD/sodipodi-0.dtd"
   xmlns:xlink="http://www.w3.org/1999/xlink"
   xmlns="http://www.w3.org/2000/svg"
   xmlns:svg="http://www.w3.org/2000/svg"
   xmlns:rdf="http://www.w3.org/1999/02/22-rdf-syntax-ns#"
   xmlns:cc="http://creativecommons.org/ns#"
   xmlns:dc="http://purl.org/dc/elements/1.1/">
  <sodipodi:namedview
     id="namedview24"
     pagecolor="#ffffff"
     bordercolor="#666666"
     borderopacity="1.0"
     inkscape:pageshadow="2"
     inkscape:pageopacity="0.0"
     inkscape:pagecheckerboard="0"
     showgrid="false"
     inkscape:zoom="22.125"
     inkscape:cx="8.9039548"
     inkscape:cy="11.774011"
     inkscape:window-width="1396"
     inkscape:window-height="896"
     inkscape:window-x="434"
     inkscape:window-y="119"
     inkscape:window-maximized="0"
     inkscape:current-layer="svg3810"
     inkscape:showpageshadow="2"
     inkscape:deskcolor="#d1d1d1" />
  <defs
     id="defs3812">
    <linearGradient
       gradientTransform="matrix(0.24324324,0,0,0.35135133,2.1621636,-0.43242804)"
       gradientUnits="userSpaceOnUse"
       xlink:href="#linearGradient3977"
       id="linearGradient3988"
       y2="41.076912"
       x2="23.99999"
       y1="6.9230647"
       x1="23.99999" />
    <linearGradient
       id="linearGradient3977">
      <stop
         offset="0"
         style="stop-color:#ffffff;stop-opacity:1"
         id="stop3979" />
      <stop
         offset="0"
         style="stop-color:#ffffff;stop-opacity:0.23529412"
         id="stop3981" />
      <stop
         offset="1"
         style="stop-color:#ffffff;stop-opacity:0.15686275"
         id="stop3983" />
      <stop
         offset="1"
         style="stop-color:#ffffff;stop-opacity:0.39215687"
         id="stop3985" />
    </linearGradient>
    <linearGradient
       id="linearGradient3600">
      <stop
         offset="0"
         style="stop-color:#f4f4f4;stop-opacity:1"
         id="stop3602" />
      <stop
         offset="1"
         style="stop-color:#dbdbdb;stop-opacity:1"
         id="stop3604" />
    </linearGradient>
    <linearGradient
       gradientTransform="matrix(0.28571361,0,0,0.30419701,1.1428727,0.2326048)"
       gradientUnits="userSpaceOnUse"
       xlink:href="#linearGradient3600"
       id="linearGradient3806"
       y2="47.013336"
       x2="25.132275"
       y1="0.98520643"
       x1="25.132275" />
    <linearGradient
       id="linearGradient3104-9">
      <stop
         offset="0"
         style="stop-color:#000000;stop-opacity:0.33950618"
         id="stop3106-5" />
      <stop
         offset="1"
         style="stop-color:#000000;stop-opacity:0.24691358"
         id="stop3108-5" />
    </linearGradient>
    <linearGradient
       gradientTransform="matrix(0.25378586,0,0,0.30501865,19.128979,-0.68547704)"
       gradientUnits="userSpaceOnUse"
       xlink:href="#linearGradient3104-9"
       id="linearGradient3019"
       y2="2.9062471"
       x2="-51.786404"
       y1="50.786446"
       x1="-51.786404" />
    <linearGradient
       xlink:href="#linearGradient947"
       id="linearGradient1054"
       gradientUnits="userSpaceOnUse"
       gradientTransform="matrix(0,-1,-1,0,-2.7715087,19.51972)"
       x1="13.445079"
       y1="-8.8364296"
       x2="9.542304"
       y2="-8.8364296" />
    <linearGradient
       id="linearGradient947">
      <stop
         offset="0"
         style="stop-color:#ed5353;stop-opacity:1"
         id="stop943" />
      <stop
         offset="1"
         style="stop-color:#c6262e;stop-opacity:1"
         id="stop945" />
    </linearGradient>
    <linearGradient
       gradientTransform="matrix(0.31772733,0,0,0.13938333,-0.61723745,4.7764592)"
       gradientUnits="userSpaceOnUse"
       xlink:href="#linearGradient4333"
       id="linearGradient3030-1"
       y2="23.137005"
       x2="24.138529"
       y1="22.844936"
       x1="24.138529" />
    <linearGradient
       id="linearGradient4333">
      <stop
         id="stop4335"
         style="stop-color:#ffffff;stop-opacity:1"
         offset="0" />
      <stop
         id="stop4337"
         style="stop-color:#ffffff;stop-opacity:0.23529412"
         offset="0.99999797" />
      <stop
         id="stop4339"
         style="stop-color:#ffffff;stop-opacity:0.15686275"
         offset="1" />
      <stop
         id="stop4341"
         style="stop-color:#ffffff;stop-opacity:0.39215687"
         offset="1" />
    </linearGradient>
  </defs>
  <metadata
     id="metadata3815">
    <rdf:RDF>
      <cc:Work
         rdf:about="">
        <dc:format>image/svg+xml</dc:format>
        <dc:type
           rdf:resource="http://purl.org/dc/dcmitype/StillImage" />
      </cc:Work>
    </rdf:RDF>
  </metadata>
  <path
     id="rect1095"
     style="opacity:0.8;fill:#ff362f;fill-opacity:1;stroke:#ff241d;stroke-width:0.999999;stroke-miterlimit:4;stroke-dasharray:none;stroke-opacity:1"
     d="m 13.263514,16.298347 c 0,0 1.052637,5.246008 3.001715,4.949941 3.200567,-0.486164 2.834363,-3.84835 3.760604,-6.014172 1.487251,-3.477617 2.782256,-10.9682249 2.782256,-10.9682249 0,0 4.605264,6.4579929 6.867294,9.7137919 1.344774,1.935576 1.597579,5.558403 3.985775,5.838221 1.661562,0.194686 3.689561,-3.304659 3.689561,-3.304659 0,0 5.514866,18.865096 -0.696435,24.261304 C 29.990966,46.563436 15.482338,45.41931 9.9156307,38.62656 5.0915737,32.740027 13.263514,16.298347 13.263514,16.298347 Z"
     sodipodi:nodetypes="csacaacaac" />
  <path
     id="path6235"
     style="opacity:0.8;fill:#ff6b66;fill-opacity:1;stroke:none;stroke-width:0.795238;stroke-miterlimit:4;stroke-dasharray:none;stroke-opacity:1"
     d="m 13.263514,16.298347 c 0,0 1.052637,5.246008 3.001715,4.949941 3.200567,-0.486164 2.834363,-3.84835 3.760604,-6.014172 1.487251,-3.477617 2.782256,-10.9682249 2.782256,-10.9682249 0,0 4.605264,6.4579929 6.867294,9.7137919 1.344774,1.935576 1.597579,5.558403 3.985775,5.838221 1.661562,0.194686 3.689561,-3.304659 3.689561,-3.304659 0,0 5.514866,18.865096 -0.696435,24.261304 C 29.990966,46.563436 15.482338,45.41931 9.9156307,38.62656 5.0915737,32.740027 13.263514,16.298347 13.263514,16.298347 Z"
     sodipodi:nodetypes="csacaacaac" />
  <path
     id="path3852"
     style="opacity:1;fill:#ffcb6b;fill-opacity:1;stroke-width:0.787941"
     d="m 17.613906,22.468028 c 0,0 2.135258,5.101312 4.254322,4.722774 3.105303,-0.554705 3.286219,-8.621453 3.286219,-8.621453 0,0 2.098012,2.511641 3.176261,5.472687 0.703097,1.930822 -0.30666,4.716977 1.441862,4.939695 1.983123,0.252544 3.069867,-5.003231 3.069867,-5.003231 0,0 3.045488,13.200094 -1.378011,16.848967 -3.851756,3.17725 -11.824945,2.51131 -15.114003,-1.214144 -3.841443,-4.351133 1.263483,-17.145295 1.263483,-17.145295 z"
     sodipodi:nodetypes="cacsacaac" />
</svg>
