<?xml version="1.0" encoding="UTF-8" standalone="no"?>
<svg
   version="1.0"
   width="48"
   height="48"
   id="svg3437"
   sodipodi:docname="folder-move.svg"
   inkscape:version="1.2.2 (b0a8486541, 2022-12-01)"
   xmlns:inkscape="http://www.inkscape.org/namespaces/inkscape"
   xmlns:sodipodi="http://sodipodi.sourceforge.net/DTD/sodipodi-0.dtd"
   xmlns:xlink="http://www.w3.org/1999/xlink"
   xmlns="http://www.w3.org/2000/svg"
   xmlns:svg="http://www.w3.org/2000/svg"
   xmlns:rdf="http://www.w3.org/1999/02/22-rdf-syntax-ns#"
   xmlns:cc="http://creativecommons.org/ns#"
   xmlns:dc="http://purl.org/dc/elements/1.1/">
  <sodipodi:namedview
     id="namedview446"
     pagecolor="#ffffff"
     bordercolor="#000000"
     borderopacity="0.25"
     inkscape:showpageshadow="2"
     inkscape:pageopacity="0.0"
     inkscape:pagecheckerboard="0"
     inkscape:deskcolor="#d1d1d1"
     showgrid="false"
     inkscape:zoom="8"
     inkscape:cx="50.5"
     inkscape:cy="23.75"
     inkscape:window-width="1423"
     inkscape:window-height="929"
     inkscape:window-x="60"
     inkscape:window-y="137"
     inkscape:window-maximized="0"
     inkscape:current-layer="svg3437" />
  <metadata
     id="metadata5656">
    <rdf:RDF>
      <cc:Work
         rdf:about="">
        <dc:format>image/svg+xml</dc:format>
        <dc:type
           rdf:resource="http://purl.org/dc/dcmitype/StillImage" />
      </cc:Work>
    </rdf:RDF>
  </metadata>
  <defs
     id="defs3439">
    <linearGradient
       id="linearGradient4632-0-6-4-4-4">
      <stop
         id="stop4634-4-4-7-4"
         style="stop-color:#efdfc4;stop-opacity:1"
         offset="0" />
      <stop
         id="stop4636-3-1-5-9"
         style="stop-color:#e7c591;stop-opacity:1"
         offset="1" />
    </linearGradient>
    <linearGradient
       x1="23.99999"
       y1="6.5279241"
       x2="23.99999"
       y2="41.472359"
       id="linearGradient4161-0-2"
       xlink:href="#linearGradient3924-0"
       gradientUnits="userSpaceOnUse"
       gradientTransform="matrix(0.67567568,0,0,0.48648659,11.783787,21.824293)" />
    <linearGradient
       id="linearGradient3924-0">
      <stop
         id="stop3926-6"
         style="stop-color:#ffffff;stop-opacity:1"
         offset="0" />
      <stop
         id="stop3928-3"
         style="stop-color:#ffffff;stop-opacity:0.23529412"
         offset="0.08841344" />
      <stop
         id="stop3930-2"
         style="stop-color:#ffffff;stop-opacity:0.15686275"
         offset="0.91179228" />
      <stop
         id="stop3932-62"
         style="stop-color:#ffffff;stop-opacity:0.39215687"
         offset="1" />
    </linearGradient>
    <linearGradient
       y2="102.23721"
       x2="23.587299"
       y1="57.64267"
       x1="23.587299"
       gradientTransform="matrix(0.50413225,0,0,0.44848537,16.108891,-2.3519325)"
       gradientUnits="userSpaceOnUse"
       id="linearGradient1048-3"
       xlink:href="#linearGradient4632-0-6-4-4-4" />
    <linearGradient
       xlink:href="#linearGradient3104-6"
       id="linearGradient1572"
       gradientUnits="userSpaceOnUse"
       gradientTransform="matrix(0.32898258,0,0,0.89471714,-5.1107438,6.7580728)"
       x1="72.893349"
       y1="43.73991"
       x2="72.893349"
       y2="12.523938" />
    <linearGradient
       id="linearGradient3104-6">
      <stop
         offset="0"
         style="stop-color:#000000;stop-opacity:0.31782946"
         id="stop3106-3" />
      <stop
         offset="1"
         style="stop-color:#000000;stop-opacity:0.24031007"
         id="stop3108-9" />
    </linearGradient>
    <linearGradient
       xlink:href="#linearGradient1159"
       id="linearGradient1148"
       gradientUnits="userSpaceOnUse"
       gradientTransform="matrix(0.67610048,0,0,0.67567572,11.773592,15.775937)"
       x1="31.752234"
       y1="9.216939"
       x2="31.752234"
       y2="41.711662" />
    <linearGradient
       id="linearGradient1159">
      <stop
         offset="0"
         style="stop-color:#ffffff;stop-opacity:1"
         id="stop1151" />
      <stop
         offset="0.06898633"
         style="stop-color:#ffffff;stop-opacity:0.23529412"
         id="stop1153" />
      <stop
         offset="0.90786326"
         style="stop-color:#ffffff;stop-opacity:0.15686275"
         id="stop1155" />
      <stop
         offset="1"
         style="stop-color:#ffffff;stop-opacity:0.39215687"
         id="stop1157" />
    </linearGradient>
    <linearGradient
       gradientTransform="matrix(0.67610048,0,0,0.67567572,11.773592,15.775937)"
       gradientUnits="userSpaceOnUse"
       xlink:href="#linearGradient3924"
       id="linearGradient3027"
       y2="41.75993"
       x2="13.594253"
       y1="6.272294"
       x1="13.594253" />
    <linearGradient
       id="linearGradient3924">
      <stop
         offset="0"
         style="stop-color:#ffffff;stop-opacity:1"
         id="stop3926" />
      <stop
         offset="0.07318898"
         style="stop-color:#ffffff;stop-opacity:0.23529412"
         id="stop3928" />
      <stop
         offset="0.90786326"
         style="stop-color:#ffffff;stop-opacity:0.15686275"
         id="stop3930" />
      <stop
         offset="1"
         style="stop-color:#ffffff;stop-opacity:0.39215687"
         id="stop3932" />
    </linearGradient>
    <linearGradient
       xlink:href="#linearGradient3600-9-51"
       id="linearGradient1512"
       gradientUnits="userSpaceOnUse"
       gradientTransform="matrix(0.66495982,0,0,0.63927116,-21.209481,15.907101)"
       x1="74.838791"
       y1="4.535933"
       x2="74.838791"
       y2="49.779099" />
    <linearGradient
       id="linearGradient3600-9-51">
      <stop
         offset="0"
         style="stop-color:#f4f4f4;stop-opacity:1"
         id="stop3602-0-0" />
      <stop
         offset="1"
         style="stop-color:#dbdbdb;stop-opacity:1"
         id="stop3604-9-04" />
    </linearGradient>
    <radialGradient
       cx="4.9929786"
       cy="43.5"
       r="2.5"
       fx="4.9929786"
       fy="43.5"
       id="radialGradient2976-3-3-6"
       xlink:href="#linearGradient3688-166-749"
       gradientUnits="userSpaceOnUse"
       gradientTransform="matrix(2.003784,0,0,1.4,27.98813,-17.4)" />
    <linearGradient
       id="linearGradient3688-166-749">
      <stop
         offset="0"
         style="stop-color:#181818;stop-opacity:1"
         id="stop2883" />
      <stop
         offset="1"
         style="stop-color:#181818;stop-opacity:0"
         id="stop2885" />
    </linearGradient>
    <radialGradient
       cx="4.9929786"
       cy="43.5"
       r="2.5"
       fx="4.9929786"
       fy="43.5"
       id="radialGradient2978-2-5-2"
       xlink:href="#linearGradient3688-166-749"
       gradientUnits="userSpaceOnUse"
       gradientTransform="matrix(2.003784,0,0,1.4,-20.01187,-104.4)" />
    <linearGradient
       inkscape:collect="always"
       xlink:href="#linearGradient3702-501-757"
       id="linearGradient17985"
       gradientUnits="userSpaceOnUse"
       x1="25.058096"
       y1="47.027729"
       x2="25.058096"
       y2="39.999443" />
    <linearGradient
       id="linearGradient3702-501-757">
      <stop
         offset="0"
         style="stop-color:#181818;stop-opacity:0"
         id="stop2895" />
      <stop
         offset="0.5"
         style="stop-color:#181818;stop-opacity:1"
         id="stop2897" />
      <stop
         offset="1"
         style="stop-color:#181818;stop-opacity:0"
         id="stop2899" />
    </linearGradient>
  </defs>
  <path
     id="path4045"
     d="M 8,6 C 7.0529933,6 7,6.4462922 7,7 V 8 H 8 C 8,8 7.989113,7.4998815 8,7 H 9 V 6 Z m 4,0 v 1 h 3 V 6 Z m 6,0 v 1 h 1.000001 v 1 h 1 V 7 c 0,-0.5878415 -0.441958,-1 -1,-1 z m 3.000001,2 v 1 h 2 V 8 Z M 26,8 v 1 h 3 V 8 Z m 6,0 v 1 h 1 v 1 h 1 V 9.03125 C 34,8.5241954 33.644068,8 33,8 Z M 5,10 v 3 h 1 v -3 z m 28,3 v 3 h 1 V 13 Z M 5,16 v 3 h 1 v -3 z m 28,3 v 2 h 1 V 19 Z M 5,22 v 3 h 1 v -3 z m 28.5,3.03125 -0.125,3 1,0.03125 0.125,-3 z M 5,28 v 1 c 0,0.562279 0.4200112,1 1,1 H 7 V 29 H 6 v -1 z m 5,1 v 1 h 3 v -1 z m 7.25,0 v 1 h 3 v -1 z m 6,0 v 1 h 2.999999 v -1 z m 5.999999,0 v 1 H 32.25 v -1 z"
     style="color:#000000;font-style:normal;font-variant:normal;font-weight:normal;font-stretch:normal;font-size:medium;line-height:normal;font-family:Sans;-inkscape-font-specification:Sans;text-indent:0;text-align:start;text-decoration:none;text-decoration-line:none;letter-spacing:normal;word-spacing:normal;text-transform:none;writing-mode:lr-tb;direction:ltr;baseline-shift:baseline;text-anchor:start;display:inline;overflow:visible;visibility:visible;opacity:0.3;fill:#ffffff;fill-opacity:1;stroke:none;stroke-width:1;marker:none;enable-background:accumulate" />
  <path
     style="color:#000000;font-style:normal;font-variant:normal;font-weight:normal;font-stretch:normal;font-size:medium;line-height:normal;font-family:Sans;-inkscape-font-specification:Sans;text-indent:0;text-align:start;text-decoration:none;text-decoration-line:none;letter-spacing:normal;word-spacing:normal;text-transform:none;writing-mode:lr-tb;direction:ltr;baseline-shift:baseline;text-anchor:start;display:inline;overflow:visible;visibility:visible;opacity:0.5;fill:#000000;fill-opacity:1;stroke:none;stroke-width:1;marker:none;enable-background:accumulate"
     d="M 8,5 C 7.0529933,5 7,5.4462922 7,6 V 7 H 8 C 8,7 7.989113,6.4998815 8,6 H 9 V 5 Z m 4,0 v 1 h 3 V 5 Z m 6,0 v 1 h 1.000001 v 1 h 1 V 6 c 0,-0.5878415 -0.441958,-1 -1,-1 z m 3.000001,2 v 1 h 2 V 7 Z M 26,7 v 1 h 3 V 7 Z m 6,0 v 1 h 1 v 1 h 1 V 8.03125 C 34,7.5241954 33.644068,7 33,7 Z M 5,9 v 3 H 6 V 9 Z m 28,3 v 3 h 1 V 12 Z M 5,15 v 3 h 1 v -3 z m 28,3 v 2 h 1 V 18 Z M 5,21 v 3 h 1 v -3 z m 28.5,3.03125 -0.125,3 1,0.03125 0.125,-3 z M 5,27 v 1 c 0,0.562279 0.4200112,1 1,1 H 7 V 28 H 6 v -1 z m 5,1 v 1 h 3 v -1 z m 7.25,0 v 1 h 3 v -1 z m 6,0 v 1 h 2.999999 v -1 z m 5.999999,0 v 1 H 32.25 v -1 z"
     id="use7669" />
  <g
     id="g891"
     transform="translate(1)">
    <g
       id="g3712-3-7-0-7"
       transform="matrix(0.73684208,0,0,0.42857134,10.315794,24.857109)">
      <rect
         style="opacity:0.3;fill:url(#radialGradient2976-3-3-6);fill-opacity:1;stroke:none"
         id="rect2801-0-9-6-9"
         y="40"
         x="38"
         height="7"
         width="5" />
      <rect
         style="opacity:0.3;fill:url(#radialGradient2978-2-5-2);fill-opacity:1;stroke:none"
         id="rect3696-2-2-2-2"
         transform="scale(-1)"
         y="-47"
         x="-10"
         height="7"
         width="5" />
      <rect
         style="opacity:0.3;fill:url(#linearGradient17985);fill-opacity:1;stroke:none"
         id="rect3700-1-0-6-0"
         y="40"
         x="10"
         height="7.0000005"
         width="28" />
    </g>
    <path
       id="rect5505-6-6-9"
       style="color:#000000;font-variation-settings:normal;display:inline;overflow:visible;visibility:visible;vector-effect:none;fill:url(#linearGradient1512);fill-opacity:1;stroke:none;stroke-width:1;stroke-linecap:butt;stroke-linejoin:miter;stroke-miterlimit:4;stroke-dasharray:none;stroke-dashoffset:0;stroke-opacity:1;-inkscape-stroke:none;marker:none;enable-background:accumulate;stop-color:#000000"
       d="M 17.495265,19 C 16.103856,19 15,20.103359 15,21.494141 v 4.5059 h 26 v -2.5059 C 41,22.103359 39.896142,21 38.504734,21 H 27.325868 C 25.508739,21 24.736049,20.067099 23.986472,19.492187 23.579516,19.180061 23.065874,19 22.49752,19 Z"
       sodipodi:nodetypes="ssccssssss" />
    <path
       id="rect4119"
       style="opacity:0.05;fill:#b6802e;fill-rule:evenodd;stroke-linecap:round;stroke-linejoin:round;paint-order:markers fill stroke;stop-color:#000000"
       d="m 17,21.000041 c -1.661998,0 -3,1.338002 -3,3 v 1 c 0,1.661998 1.338002,3 3,3 h 22 c 1.661998,0 3,-1.338002 3,-3 v -1 c 0,-1.661998 -1.338002,-3 -3,-3 H 27.326172 c 0.276143,-1e-6 0.500001,0.223858 0.5,0.5 1e-6,0.276142 -0.223857,0.500001 -0.5,0.5 -1.37638,0 -2.359397,-0.510708 -3.046875,-1 z" />
    <path
       id="rect4173"
       style="opacity:0.1;fill:#b6802e;fill-opacity:1;fill-rule:evenodd;stroke:none;stroke-width:1;stroke-linecap:round;stroke-linejoin:round;paint-order:markers fill stroke;stop-color:#000000"
       d="m 17.5,22.000041 c -1.384997,-1e-6 -2.5,1.115003 -2.5,2.5 v 2 c 0,1.384998 1.115003,2.5 2.5,2.5 h 21 c 1.384998,0 2.5,-1.115002 2.5,-2.5 v -2 c 0,-1.328815 -1.02752,-2.404778 -2.333984,-2.490234 0.699251,0.0761 1.249764,0.628208 1.324218,1.328125 C 39.537476,23.1238 39.033319,23.000041 38.5,23.000041 h -4.416016 c 2.01e-4,-5.72e-4 -2.01e-4,-0.0014 0,-0.002 -2.272658,10e-4 -4.646736,0.002 -4.660156,0.002 -1.376375,-3e-6 -2.3594,-0.51071 -3.046875,-1 z" />
    <path
       id="rect5505-6-6-8"
       style="color:#000000;font-variation-settings:normal;display:inline;overflow:visible;visibility:visible;vector-effect:none;fill:none;fill-opacity:1;stroke:url(#linearGradient3027);stroke-width:0.999998;stroke-linecap:round;stroke-linejoin:round;stroke-miterlimit:4;stroke-dasharray:none;stroke-dashoffset:0;stroke-opacity:1;-inkscape-stroke:none;marker:none;enable-background:accumulate;stop-color:#000000"
       d="m 27.326,21.5 c -1.973188,0 -2.966145,-1.091242 -3.64436,-1.611328 C 23.363,19.644324 22.957031,19.5 22.496093,19.5 H 17.494141 C 16.371933,19.5 15.5,20.370685 15.5,21.492187 v 2.984375"
       sodipodi:nodetypes="cssssc" />
    <path
       id="rect5505-6-6-8-2"
       style="color:#000000;font-variation-settings:normal;display:inline;overflow:visible;visibility:visible;vector-effect:none;fill:none;fill-opacity:1;stroke:url(#linearGradient1148);stroke-width:0.999998;stroke-linecap:round;stroke-linejoin:round;stroke-miterlimit:4;stroke-dasharray:none;stroke-dashoffset:0;stroke-opacity:1;-inkscape-stroke:none;marker:none;enable-background:accumulate;stop-color:#000000"
       d="M 40.5,24.476562 V 23.492187 C 40.5,22.370685 39.628066,21.5 38.505859,21.5 H 26.5"
       sodipodi:nodetypes="cssc" />
    <path
       id="rect5505-6-6"
       style="color:#000000;font-variation-settings:normal;display:inline;overflow:visible;visibility:visible;vector-effect:none;fill:none;fill-opacity:1;stroke:url(#linearGradient1572);stroke-width:1;stroke-linecap:butt;stroke-linejoin:round;stroke-miterlimit:4;stroke-dasharray:none;stroke-dashoffset:0;stroke-opacity:1;-inkscape-stroke:none;marker:none;enable-background:accumulate;stop-color:#000000"
       d="M 41.5,25.000041 V 23.5 c 0,-1.661997 -1.338004,-3 -3,-3 H 27.326172 c -1.659551,0 -2.207314,-0.772727 -3.028517,-1.402859 C 23.801917,18.716748 23.176321,18.5 22.5,18.5 h -5 c -1.661997,0 -3,1.338003 -3,3 v 3.500041"
       sodipodi:nodetypes="csssssssc" />
    <rect
       style="color:#000000;font-variation-settings:normal;display:inline;overflow:visible;visibility:visible;vector-effect:none;fill:url(#linearGradient1048-3);fill-opacity:1;fill-rule:nonzero;stroke:#987124;stroke-width:1;stroke-linecap:butt;stroke-linejoin:miter;stroke-miterlimit:4;stroke-dasharray:none;stroke-dashoffset:0;stroke-opacity:0.498039;-inkscape-stroke:none;marker:none;enable-background:accumulate;stop-color:#000000"
       id="rect5505-21-1-2-1"
       y="23.50004"
       x="14.500001"
       ry="3"
       rx="3"
       height="20"
       width="27" />
    <rect
       style="opacity:0.5;fill:none;stroke:url(#linearGradient4161-0-2);stroke-width:1;stroke-linecap:round;stroke-linejoin:round;stroke-miterlimit:4;stroke-dasharray:none;stroke-dashoffset:0;stroke-opacity:1"
       id="rect6741-7-4-3-8"
       y="24.50004"
       x="15.500001"
       ry="2"
       rx="2"
       height="18"
       width="25" />
  </g>
</svg>
