<?xml version="1.0" encoding="UTF-8" standalone="no"?>
<svg
   id="svg3844"
   height="64"
   width="64"
   version="1.1"
   sodipodi:docname="document-properties.svg"
   inkscape:version="1.1.2 (0a00cf5339, 2022-02-04)"
   xmlns:inkscape="http://www.inkscape.org/namespaces/inkscape"
   xmlns:sodipodi="http://sodipodi.sourceforge.net/DTD/sodipodi-0.dtd"
   xmlns:xlink="http://www.w3.org/1999/xlink"
   xmlns="http://www.w3.org/2000/svg"
   xmlns:svg="http://www.w3.org/2000/svg"
   xmlns:rdf="http://www.w3.org/1999/02/22-rdf-syntax-ns#"
   xmlns:cc="http://creativecommons.org/ns#"
   xmlns:dc="http://purl.org/dc/elements/1.1/">
  <sodipodi:namedview
     id="namedview59"
     pagecolor="#ffffff"
     bordercolor="#666666"
     borderopacity="1.0"
     inkscape:pageshadow="2"
     inkscape:pageopacity="0.0"
     inkscape:pagecheckerboard="0"
     showgrid="false"
     inkscape:zoom="15.070213"
     inkscape:cx="39.581391"
     inkscape:cy="38.818296"
     inkscape:window-width="1360"
     inkscape:window-height="893"
     inkscape:window-x="585"
     inkscape:window-y="432"
     inkscape:window-maximized="0"
     inkscape:current-layer="svg3844"
     inkscape:snap-global="false" />
  <defs
     id="defs3846">
    <linearGradient
       gradientTransform="matrix(1.0843523,0,0,1.1997367,79.550862,-4.1628601)"
       gradientUnits="userSpaceOnUse"
       xlink:href="#linearGradient3104-6"
       id="linearGradient3033"
       y2="2.9062471"
       x2="-51.786404"
       y1="50.786446"
       x1="-51.786404" />
    <linearGradient
       id="linearGradient3104-6">
      <stop
         offset="0"
         style="stop-color:#000000;stop-opacity:0.31782946"
         id="stop3106-3" />
      <stop
         offset="1"
         style="stop-color:#000000;stop-opacity:0.24031007"
         id="stop3108-9" />
    </linearGradient>
    <linearGradient
       gradientTransform="matrix(1.2162162,0,0,1.5405376,2.8108184,-6.9729501)"
       gradientUnits="userSpaceOnUse"
       xlink:href="#linearGradient3977-4"
       id="linearGradient3093"
       y2="42.100208"
       x2="23.99999"
       y1="5.8641062"
       x1="23.99999" />
    <linearGradient
       id="linearGradient3977-4">
      <stop
         offset="0"
         style="stop-color:#ffffff;stop-opacity:1"
         id="stop3979-7" />
      <stop
         offset="0.01214366"
         style="stop-color:#ffffff;stop-opacity:0.23529412"
         id="stop3981-6" />
      <stop
         offset="0.98781353"
         style="stop-color:#ffffff;stop-opacity:0.15686275"
         id="stop3983-5" />
      <stop
         offset="1"
         style="stop-color:#ffffff;stop-opacity:0.39215687"
         id="stop3985-6" />
    </linearGradient>
    <linearGradient
       gradientTransform="matrix(1.3142827,0,0,1.2602393,0.4572141,-2.1793201)"
       gradientUnits="userSpaceOnUse"
       xlink:href="#linearGradient3600-9"
       id="linearGradient3096"
       y2="47.013336"
       x2="25.132275"
       y1="0.98520643"
       x1="25.132275" />
    <linearGradient
       id="linearGradient3600-9">
      <stop
         offset="0"
         style="stop-color:#f4f4f4;stop-opacity:1"
         id="stop3602-3" />
      <stop
         offset="1"
         style="stop-color:#dbdbdb;stop-opacity:1"
         id="stop3604-7" />
    </linearGradient>
    <radialGradient
       gradientTransform="matrix(0.03132633,0,0,0.02058823,35.220859,49.45142)"
       gradientUnits="userSpaceOnUse"
       xlink:href="#linearGradient5060"
       id="radialGradient3153"
       fy="486.64789"
       fx="605.71429"
       r="117.14286"
       cy="486.64789"
       cx="605.71429" />
    <linearGradient
       id="linearGradient5060">
      <stop
         offset="0"
         style="stop-color:#000000;stop-opacity:1"
         id="stop5062" />
      <stop
         offset="1"
         style="stop-color:#000000;stop-opacity:0"
         id="stop5064" />
    </linearGradient>
    <radialGradient
       gradientTransform="matrix(-0.03132632,0,0,0.02058823,28.779136,49.45142)"
       gradientUnits="userSpaceOnUse"
       xlink:href="#linearGradient5060"
       id="radialGradient3156"
       fy="486.64789"
       fx="605.71429"
       r="117.14286"
       cy="486.64789"
       cx="605.71429" />
    <linearGradient
       id="linearGradient5048">
      <stop
         offset="0"
         style="stop-color:#000000;stop-opacity:0"
         id="stop5050" />
      <stop
         offset="0.5"
         style="stop-color:#000000;stop-opacity:1"
         id="stop5056" />
      <stop
         offset="1"
         style="stop-color:#000000;stop-opacity:0"
         id="stop5052" />
    </linearGradient>
    <linearGradient
       gradientTransform="matrix(0.09153846,0,0,0.02058823,-1.084616,49.45142)"
       gradientUnits="userSpaceOnUse"
       xlink:href="#linearGradient5048"
       id="linearGradient3842"
       y2="609.50507"
       x2="302.85715"
       y1="366.64789"
       x1="302.85715" />
    <linearGradient
       xlink:href="#linearGradient992"
       id="linearGradient994"
       x1="39.706413"
       y1="44.004978"
       x2="41.641293"
       y2="47.442352"
       gradientUnits="userSpaceOnUse"
       gradientTransform="matrix(1.373973,0,0,1.3739436,-1.3634553,-3.9174617)" />
    <linearGradient
       id="linearGradient992">
      <stop
         style="stop-color:#e0e0e0;stop-opacity:1"
         offset="0"
         id="stop988" />
      <stop
         style="stop-color:#d4d4d4;stop-opacity:0"
         offset="1"
         id="stop990" />
    </linearGradient>
    <linearGradient
       xlink:href="#linearGradient984"
       id="linearGradient986"
       x1="38.832764"
       y1="44.151825"
       x2="40.777378"
       y2="47.460476"
       gradientUnits="userSpaceOnUse"
       gradientTransform="matrix(1.373973,0,0,1.3739436,-1.3634553,-3.9174617)" />
    <linearGradient
       id="linearGradient984">
      <stop
         style="stop-color:#555761;stop-opacity:1;"
         offset="0"
         id="stop980" />
      <stop
         style="stop-color:#555761;stop-opacity:0;"
         offset="1"
         id="stop982" />
    </linearGradient>
    <linearGradient
       gradientTransform="matrix(1.6228263,0,0,1.6218722,-458.15197,-55.465691)"
       gradientUnits="userSpaceOnUse"
       xlink:href="#linearGradient7381"
       id="linearGradient3284"
       y2="60.767513"
       x2="308.64914"
       y1="57.458443"
       x1="301.56024" />
    <linearGradient
       id="linearGradient7381">
      <stop
         offset="0"
         style="stop-color:#abacae;stop-opacity:1"
         id="stop7383" />
      <stop
         offset="1"
         style="stop-color:#fafafa;stop-opacity:1"
         id="stop7385" />
    </linearGradient>
    <linearGradient
       gradientTransform="matrix(1.373973,0,0,1.3739436,-14.610195,-18.769206)"
       xlink:href="#linearGradient7421"
       id="linearGradient968"
       x1="47.430111"
       y1="54.704376"
       x2="50.420952"
       y2="58.91193"
       gradientUnits="userSpaceOnUse" />
    <linearGradient
       id="linearGradient7421">
      <stop
         offset="0"
         style="stop-color:white;stop-opacity:1"
         id="stop7423" />
      <stop
         offset="1"
         style="stop-color:white;stop-opacity:0"
         id="stop7425" />
    </linearGradient>
  </defs>
  <metadata
     id="metadata3849">
    <rdf:RDF>
      <cc:Work
         rdf:about="">
        <dc:format>image/svg+xml</dc:format>
        <dc:type
           rdf:resource="http://purl.org/dc/dcmitype/StillImage" />
      </cc:Work>
    </rdf:RDF>
  </metadata>
  <g
     id="layer1">
    <rect
       style="opacity:0.3;fill:url(#linearGradient3842);fill-opacity:1;fill-rule:nonzero;stroke:none;stroke-width:1;marker:none;visibility:visible;display:inline;overflow:visible"
       id="rect2879"
       y="57.000004"
       x="9.8999996"
       height="5"
       width="44.199997" />
    <path
       style="opacity:0.3;fill:url(#radialGradient3156);fill-opacity:1;fill-rule:nonzero;stroke:none;stroke-width:1;marker:none;visibility:visible;display:inline;overflow:visible"
       id="path2881"
       d="m 9.9,57.00022 c 0,0 0,4.9997 0,4.9997 -1.6132281,0.01 -3.9,-1.1202 -3.9,-2.5002 0,-1.38 1.8002408,-2.4995 3.9,-2.4995 z" />
    <path
       style="opacity:0.3;fill:url(#radialGradient3153);fill-opacity:1;fill-rule:nonzero;stroke:none;stroke-width:1;marker:none;visibility:visible;display:inline;overflow:visible"
       id="path2883"
       d="m 54.099999,57.00022 c 0,0 0,4.9997 0,4.9997 C 55.713227,62.00992 58,60.87972 58,59.49972 c 0,-1.38 -1.800241,-2.4995 -3.900001,-2.4995 z" />
    <path
       style="fill:url(#linearGradient3096);fill-opacity:1;stroke:none;display:inline"
       id="path4160-6"
       d="m 9,0.9998799 c 10.540935,0 45.999945,0.004 45.999945,0.004 L 55,59.00002 c 0,0 -30.666666,0 -46,0 0,-19.3334 0,-38.6665 0,-57.9998201 z" />
    <path
       style="fill:none;stroke:url(#linearGradient3093);stroke-width:1;stroke-linecap:round;stroke-linejoin:miter;stroke-miterlimit:4;stroke-opacity:1;stroke-dasharray:none;stroke-dashoffset:0"
       id="rect6741-1-8"
       d="m 54.499999,58.50002 -44.9999992,0 0,-57.0000401 44.9999992,0 z" />
    <path
       style="fill:none;stroke:url(#linearGradient3033);stroke-width:0.9999218;stroke-linecap:butt;stroke-linejoin:round;stroke-miterlimit:4;stroke-opacity:1;stroke-dasharray:none;stroke-dashoffset:0;display:inline"
       id="path4160-6-1"
       d="m 8.4999684,0.4998999 c 10.7700936,0 47.0000286,0.004 47.0000286,0.004 l 4.9e-5,58.9962201 c 0,0 -31.333384,0 -47.0000776,0 0,-19.6668 0,-39.3334 0,-58.9999701 z" />
  </g>
  <path
     id="path6912"
     d="m 27.31971,33.633655 c -0.07498,0.08014 -0.128852,0.177239 -0.154494,0.283845 -0.706125,3.041251 -0.372294,6.535624 0.967058,8.930822 1.82912,3.271089 5.638656,4.83188 9.368999,4.171634 1.524321,0.512511 3.546298,1.640815 5.942823,4.019923 l 12.839627,12.487189 5.636449,-5.595753 -12.83961,-12.487187 c -2.160406,-2.144683 -3.294095,-3.983172 -3.874791,-5.434942 0.503822,-2.006954 0.298568,-4.149674 -0.761625,-6.04569 -1.338799,-2.394177 -4.148075,-4.511142 -7.125312,-5.543479 -0.25548,-0.09342 -0.536847,-0.02205 -0.710618,0.183402 -0.17379,0.20541 -0.20399,0.500024 -0.06767,0.734286 l 3.645177,6.533064 c 0.327423,0.585512 0.156603,1.338596 -0.371107,2.10879 -0.53271,0.777492 -1.419033,1.554353 -2.553097,2.172141 -1.13429,0.617883 -2.268386,0.956888 -3.216537,0.98892 -0.942555,0.03195 -1.683228,-0.229496 -2.011477,-0.816547 L 28.36642,33.754745 c -0.102237,-0.182268 -0.281675,-0.301734 -0.489769,-0.325933 -0.208079,-0.02418 -0.418089,0.0506 -0.556905,0.204843 z"
     style="display:inline;vector-effect:none;fill:url(#linearGradient994);fill-opacity:1;fill-rule:evenodd;stroke:url(#linearGradient986);stroke-width:0.999999;stroke-linecap:round;stroke-linejoin:round;stroke-miterlimit:4;stroke-dasharray:none;stroke-dashoffset:0.3612;stroke-opacity:0.5;enable-background:new"
     sodipodi:nodetypes="ccccccccccccccsccccccc" />
  <path
     d="m 37.114038,28.872914 c 0.03035,0.01136 -0.188678,0.150713 -0.200038,0.150883 l 3.533367,6.505152 c 0.492578,0.880806 0.213756,1.88852 -0.379949,2.755086 -0.599619,0.875147 -1.528704,1.723077 -2.738522,2.382124 -1.212412,0.66046 -2.205217,0.773754 -3.271058,0.809775 -1.063501,0.03601 -2.061752,-0.267462 -2.535666,-1.115037 l -3.688368,-6.319435 c -0.02094,-0.0033 -0.0542,0.0033 -0.05079,0 0.03342,-0.03568 0.0064,-0.412316 0,-0.387506 -0.673343,2.900119 -0.706019,6.523992 0.530932,8.736064 1.691991,3.025861 5.606452,4.637454 9.104599,4.018302 3.481726,-0.622829 6.458784,-3.654352 7.201292,-6.538171 0.46885,-1.867714 0.31725,-3.918274 -0.66185,-5.669264 -1.233591,-2.206021 -3.995755,-4.34018 -6.844025,-5.327801 z"
     id="path7379"
     style="display:inline;fill:url(#linearGradient3284);fill-opacity:1;fill-rule:evenodd;stroke:none;stroke-width:1.18078;enable-background:new"
     sodipodi:nodetypes="ccccsccccccccccc" />
  <path
     d="m 38.94002,30.797633 2.434238,4.409466 c 0.692233,1.237817 0.217134,2.564776 -0.456419,3.547845 -0.680516,0.993222 -1.690694,1.875931 -2.992087,2.584857 -1.306861,0.711908 -2.646098,1.124892 -3.854212,1.165722 -1.20972,0.0409 -2.544932,-0.358003 -3.19494,-1.520505 l -2.535665,-4.561517 c -0.108076,2.137804 0.1355,4.297077 0.963552,5.777921 1.52622,2.7294 4.744545,4.066629 7.961993,3.49716 0.235536,-0.04649 0.48344,-0.02879 0.709986,0.05069 1.743873,0.586309 3.925033,1.810836 6.440592,4.308097 L 57.845229,62.751987 61.547303,59.102775 48.11913,46.408153 c -2.268013,-2.251493 -3.501832,-4.237621 -4.158492,-5.879286 -0.099,-0.256712 -0.116844,-0.543926 -0.05062,-0.810936 0.426593,-1.699389 0.272506,-3.543364 -0.608558,-5.119034 -0.805265,-1.440057 -2.509686,-2.759398 -4.361347,-3.801264 z"
     id="path6394"
     style="display:inline;vector-effect:none;fill:none;fill-opacity:1;stroke:url(#linearGradient968);stroke-width:1;stroke-linecap:round;stroke-linejoin:round;stroke-miterlimit:4;stroke-dasharray:none;stroke-dashoffset:0.3612;stroke-opacity:1;enable-background:new"
     sodipodi:nodetypes="ccsscccsccccccccccc" />
</svg>
